<?xml version="1.0" encoding="UTF-8"?> <svg xmlns="http://www.w3.org/2000/svg" xmlns:xlink="http://www.w3.org/1999/xlink" id="svg" version="1.1" width="400" height="77.19152471956792" viewBox="0, 0, 400,77.19152471956792"><g id="svgg"><path id="path0" d="M34.067 18.316 C 33.709 18.581,30.163 22.062,26.186 26.051 L 18.955 33.304 19.036 34.154 C 19.182 35.667,21.562 39.568,23.801 41.966 C 24.272 42.470,26.055 42.826,25.766 42.359 C 25.718 42.281,25.895 42.011,26.159 41.758 L 26.638 41.298 26.236 40.541 C 25.372 38.916,26.010 37.133,27.709 36.423 C 28.407 36.131,28.902 36.088,28.751 36.331 C 28.693 36.426,28.760 36.454,28.910 36.396 C 29.054 36.341,29.570 36.498,30.057 36.744 L 30.942 37.192 34.180 33.919 C 37.847 30.211,37.637 30.494,37.186 29.860 C 35.358 27.293,38.653 24.156,41.220 26.019 C 41.800 26.440,42.088 26.342,42.439 25.606 C 42.911 24.617,42.712 24.315,39.365 20.962 L 36.250 17.840 35.483 17.837 C 34.895 17.834,34.565 17.946,34.067 18.316 M35.985 20.271 L 36.502 21.374 35.387 22.562 C 34.774 23.215,34.230 23.767,34.178 23.789 C 34.126 23.810,33.795 23.294,33.443 22.641 L 32.803 21.456 33.939 20.311 C 35.331 18.908,35.347 18.908,35.985 20.271 M32.167 22.762 C 32.167 22.896,32.386 23.398,32.653 23.878 L 33.140 24.750 32.161 25.806 C 31.049 27.005,31.007 27.002,30.330 25.659 C 29.694 24.399,29.663 24.530,30.871 23.363 C 31.876 22.391,32.167 22.256,32.167 22.762 M103.089 23.708 C 102.949 24.727,98.667 59.466,98.667 59.586 C 98.667 59.918,115.114 59.554,116.500 59.191 C 125.639 56.797,128.105 44.418,120.184 40.695 L 118.857 40.070 119.599 39.677 C 124.247 37.211,125.128 29.375,121.181 25.610 C 118.813 23.351,117.197 23.000,109.184 23.000 L 103.187 23.000 103.089 23.708 M29.459 26.692 L 30.001 27.871 29.059 28.894 C 27.855 30.200,27.960 30.197,27.263 28.952 C 26.494 27.577,26.494 27.582,27.623 26.485 C 28.845 25.298,28.816 25.295,29.459 26.692 M38.750 26.224 C 38.475 26.349,38.081 26.754,37.875 27.123 C 36.647 29.323,39.106 31.625,40.921 29.974 C 42.764 28.296,40.977 25.208,38.750 26.224 M40.327 27.822 C 40.600 28.331,40.532 28.638,40.083 28.932 C 39.310 29.439,38.382 28.351,39.033 27.700 C 39.350 27.383,40.132 27.457,40.327 27.822 M25.935 28.958 C 25.994 29.210,26.227 29.763,26.453 30.187 L 26.863 30.958 26.280 31.722 C 25.960 32.142,25.610 32.751,25.502 33.076 C 25.225 33.918,25.125 33.844,24.249 32.147 L 23.464 30.628 24.519 29.564 C 25.716 28.357,25.786 28.327,25.935 28.958 M112.814 29.175 C 117.532 29.941,118.037 35.947,113.529 37.683 C 112.536 38.065,108.840 38.364,108.827 38.063 C 108.823 37.982,109.065 35.910,109.363 33.458 L 109.906 29.000 110.828 29.001 C 111.335 29.002,112.229 29.080,112.814 29.175 M168.552 29.832 C 163.609 31.128,160.708 35.655,161.730 40.477 C 162.331 43.312,163.836 44.624,168.750 46.592 C 172.544 48.111,173.477 49.332,172.741 51.813 C 172.143 53.826,170.704 54.750,168.167 54.750 C 165.695 54.750,164.569 54.103,163.016 51.792 C 162.329 50.770,162.487 50.716,160.078 52.784 C 157.678 54.844,157.791 54.587,158.747 55.829 C 161.193 59.008,163.920 60.336,167.993 60.330 C 174.727 60.321,178.723 56.664,179.116 50.151 C 179.364 46.042,177.685 43.808,172.813 41.766 C 168.846 40.102,168.173 39.665,167.898 38.570 C 166.955 34.813,172.768 33.186,175.846 36.347 L 176.636 37.158 178.401 35.176 C 180.480 32.842,180.422 33.092,179.160 31.950 C 176.693 29.717,172.320 28.845,168.552 29.832 M132.500 30.444 C 132.500 30.597,132.039 34.478,131.475 39.069 C 129.958 51.423,130.013 53.616,131.911 56.344 C 133.825 59.094,136.295 60.154,141.108 60.290 C 148.342 60.494,152.081 58.022,153.600 52.033 C 153.896 50.868,156.500 31.298,156.500 30.242 C 156.500 30.196,155.134 30.180,153.464 30.205 L 150.428 30.250 149.237 39.754 C 147.624 52.624,147.330 53.434,143.888 54.497 C 139.626 55.813,136.381 53.600,136.441 49.418 C 136.460 48.102,138.184 33.083,138.589 30.708 L 138.682 30.167 135.591 30.167 C 132.817 30.167,132.500 30.195,132.500 30.444 M352.588 30.708 C 352.511 31.159,349.546 55.284,349.244 57.917 C 349.192 58.375,349.110 58.956,349.061 59.208 L 348.974 59.667 352.046 59.667 L 355.119 59.667 355.226 58.625 C 355.285 58.052,355.570 55.623,355.860 53.227 L 356.386 48.870 359.818 48.790 C 363.621 48.701,364.458 48.548,366.427 47.587 C 371.359 45.180,372.817 37.021,369.061 32.844 C 367.127 30.693,364.922 30.167,357.848 30.167 L 352.682 30.167 352.588 30.708 M376.256 30.542 C 376.211 30.748,375.835 33.692,375.422 37.083 C 375.009 40.475,374.220 46.887,373.669 51.333 C 373.118 55.779,372.667 59.475,372.667 59.545 C 372.667 59.616,374.033 59.654,375.702 59.629 L 378.738 59.583 379.522 53.167 C 379.954 49.637,380.312 46.731,380.320 46.708 C 380.368 46.559,392.333 46.692,392.333 46.842 C 392.333 46.939,391.996 49.793,391.583 53.185 C 391.171 56.577,390.833 59.423,390.833 59.509 C 390.833 59.908,396.821 59.694,396.908 59.292 C 397.331 57.320,400.002 33.933,400.001 32.204 L 400.000 30.159 397.212 30.204 L 394.423 30.250 393.725 35.750 C 393.341 38.775,393.021 41.269,393.013 41.292 C 392.956 41.471,381.000 41.305,381.001 41.125 C 381.002 41.010,381.302 38.554,381.667 35.667 C 382.032 32.779,382.331 30.360,382.332 30.292 C 382.336 29.916,376.341 30.163,376.256 30.542 M6.083 32.333 C 6.628 32.883,7.110 33.333,7.156 33.333 C 7.202 33.333,6.794 32.883,6.250 32.333 C 5.706 31.783,5.223 31.333,5.177 31.333 C 5.131 31.333,5.539 31.783,6.083 32.333 M22.764 31.958 C 22.896 32.401,23.521 33.636,24.106 34.608 L 24.629 35.477 24.523 37.850 C 24.452 39.425,24.351 40.245,24.222 40.287 C 23.967 40.372,21.915 37.474,20.922 35.627 L 20.139 34.171 21.264 32.919 C 22.450 31.599,22.624 31.488,22.764 31.958 M362.469 35.730 C 364.192 36.359,364.859 37.329,364.853 39.197 C 364.844 42.139,363.228 43.369,359.070 43.600 L 356.981 43.716 357.068 43.317 C 357.116 43.097,357.358 41.201,357.606 39.103 L 358.057 35.289 359.904 35.379 C 360.942 35.429,362.065 35.583,362.469 35.730 M27.698 37.225 C 26.692 37.784,26.383 39.201,27.021 40.335 C 28.378 42.750,31.868 40.484,30.592 38.016 C 30.108 37.080,28.669 36.687,27.698 37.225 M29.405 38.595 C 29.756 38.946,29.735 39.265,29.333 39.667 C 28.770 40.230,28.000 39.957,28.000 39.194 C 28.000 38.379,28.833 38.023,29.405 38.595 M22.000 43.379 C 22.000 43.404,22.581 43.986,23.292 44.671 L 24.583 45.917 23.338 44.625 C 22.180 43.425,22.000 43.257,22.000 43.379 M112.798 44.006 C 115.936 44.515,117.322 45.868,117.330 48.429 C 117.341 52.173,115.498 53.414,109.615 53.620 L 106.814 53.718 106.902 53.317 C 106.951 53.097,107.224 50.967,107.508 48.583 C 107.793 46.200,108.055 44.156,108.091 44.042 C 108.173 43.780,111.263 43.757,112.798 44.006 M339.372 53.510 C 335.930 55.257,336.651 60.312,340.345 60.330 C 344.939 60.352,345.836 53.404,341.265 53.201 C 340.312 53.159,339.945 53.219,339.372 53.510 M48.994 54.625 L 48.083 55.583 49.042 54.672 C 49.932 53.826,50.076 53.667,49.953 53.667 C 49.927 53.667,49.495 54.098,48.994 54.625 " stroke="none" fill="#d32424" fill-rule="evenodd"></path><path id="path1" d="M23.333 0.350 C 22.379 0.920,0.525 22.900,0.244 23.571 C -0.081 24.349,-0.065 25.397,0.283 26.130 C 0.769 27.153,36.519 62.699,37.340 62.976 C 38.544 63.381,38.993 63.167,40.999 61.228 L 42.814 59.475 43.001 60.169 C 43.427 61.753,45.329 63.036,47.296 63.067 L 48.342 63.083 48.500 63.669 C 48.938 65.289,50.377 66.633,52.084 67.015 C 52.971 67.213,54.500 67.102,54.500 66.839 C 54.500 66.762,54.735 66.618,55.021 66.518 C 55.308 66.418,56.245 65.647,57.104 64.804 C 58.292 63.639,58.673 63.349,58.692 63.594 C 59.090 68.644,64.642 73.855,72.865 76.898 C 75.641 77.924,76.759 75.616,74.029 74.496 C 64.635 70.639,61.930 67.875,60.735 60.905 C 60.702 60.716,56.206 56.103,50.744 50.655 C 45.282 45.207,40.662 40.508,40.478 40.211 C 39.182 38.127,40.713 35.043,43.010 35.112 C 44.553 35.157,44.891 35.433,51.852 42.301 C 59.101 49.454,59.351 49.651,61.340 49.795 C 63.069 49.919,64.567 48.762,66.645 45.697 C 68.067 43.600,68.157 43.302,68.607 39.186 C 69.393 31.993,69.215 31.836,55.794 27.909 L 53.004 27.092 50.969 25.052 C 48.962 23.041,48.705 22.666,49.550 22.987 C 49.915 23.126,56.220 24.027,66.060 25.345 C 67.422 25.528,68.735 25.782,68.977 25.909 C 69.940 26.417,80.743 37.535,81.220 38.510 C 81.860 39.816,83.326 50.736,83.673 56.793 C 83.977 62.081,84.150 62.400,89.863 68.213 L 94.250 72.676 95.036 72.671 C 95.624 72.668,95.801 72.610,95.737 72.443 C 95.690 72.321,95.767 72.124,95.909 72.006 C 96.669 71.375,96.401 71.006,91.852 66.427 C 86.540 61.078,86.470 60.957,86.261 56.667 C 86.040 52.136,84.412 39.481,83.865 38.043 C 83.180 36.241,82.611 35.573,76.769 29.715 C 70.777 23.707,70.152 23.193,68.500 22.911 C 67.502 22.741,64.906 22.398,63.500 22.251 C 63.271 22.227,62.708 22.153,62.250 22.087 C 61.792 22.021,61.254 21.944,61.055 21.916 C 60.856 21.888,60.481 21.824,60.221 21.772 C 59.962 21.721,59.337 21.635,58.833 21.582 C 58.329 21.528,57.692 21.450,57.417 21.409 C 56.675 21.297,55.327 21.116,53.765 20.918 C 53.315 20.861,52.602 20.753,52.182 20.677 C 51.761 20.602,51.304 20.535,51.167 20.528 C 50.730 20.506,49.671 20.361,49.203 20.259 C 48.954 20.204,48.116 20.126,47.341 20.085 L 45.933 20.010 35.919 10.005 L 25.905 -0.000 24.911 0.001 C 24.200 0.001,23.750 0.101,23.333 0.350 M28.417 1.500 C 28.868 1.958,29.275 2.333,29.321 2.333 C 29.367 2.333,29.035 1.958,28.583 1.500 C 28.132 1.042,27.725 0.667,27.679 0.667 C 27.633 0.667,27.965 1.042,28.417 1.500 M29.496 7.212 C 32.576 10.320,33.969 11.833,33.752 11.833 C 32.940 11.833,31.624 13.699,32.263 13.945 C 32.556 14.057,34.167 12.587,34.167 12.206 C 34.167 12.066,34.243 12.034,34.375 12.121 C 34.701 12.337,48.611 26.393,48.359 26.252 C 48.077 26.095,46.500 27.608,46.500 28.035 C 46.500 28.651,47.224 28.356,48.000 27.423 C 48.413 26.927,48.788 26.536,48.833 26.555 C 48.879 26.573,51.511 29.212,54.681 32.419 L 60.446 38.250 58.146 40.507 L 55.846 42.765 51.230 38.146 C 46.240 33.154,45.664 32.715,43.848 32.516 C 43.055 32.429,42.980 32.389,43.223 32.188 C 43.597 31.879,43.582 31.333,43.199 31.333 C 43.034 31.333,42.642 31.598,42.329 31.922 C 42.015 32.245,41.380 32.683,40.917 32.895 C 39.895 33.363,38.797 34.460,38.224 35.583 C 37.991 36.042,37.460 36.767,37.044 37.195 C 36.550 37.704,36.323 38.065,36.389 38.237 C 36.520 38.580,37.108 38.576,37.301 38.231 C 37.407 38.041,37.477 38.280,37.538 39.046 C 37.706 41.133,38.015 41.559,42.999 46.573 L 47.492 51.094 43.081 55.502 L 38.670 59.911 37.543 58.830 L 36.417 57.750 37.481 58.861 C 38.445 59.867,38.728 60.500,38.213 60.500 C 38.141 60.500,30.058 52.475,20.250 42.667 L 2.417 24.834 13.583 13.667 C 19.725 7.525,24.787 2.520,24.833 2.545 C 24.879 2.570,26.977 4.670,29.496 7.212 M30.201 15.048 C 29.467 15.796,29.318 16.274,29.766 16.446 C 30.134 16.587,31.754 14.967,31.612 14.599 C 31.438 14.144,30.931 14.305,30.201 15.048 M14.964 15.167 C 14.461 15.582,14.752 21.393,15.279 21.468 C 15.527 21.504,15.762 21.358,16.019 21.010 C 16.523 20.328,16.471 20.304,18.019 21.917 C 19.761 23.731,19.766 23.731,21.572 21.875 C 23.328 20.070,23.328 20.068,21.667 18.417 C 20.215 16.973,20.125 16.754,20.750 16.167 C 21.195 15.749,21.301 15.201,20.958 15.087 C 20.286 14.864,15.250 14.931,14.964 15.167 M27.701 17.548 C 26.952 18.311,26.767 19.000,27.311 19.000 C 27.742 19.000,29.191 17.424,29.064 17.092 C 28.894 16.650,28.431 16.804,27.701 17.548 M25.100 20.149 C 24.276 20.987,24.159 21.500,24.793 21.500 C 25.228 21.500,26.546 20.111,26.472 19.729 C 26.366 19.175,25.928 19.309,25.100 20.149 M22.075 22.375 L 21.417 23.083 22.125 22.425 C 22.515 22.062,22.833 21.743,22.833 21.716 C 22.833 21.590,22.688 21.716,22.075 22.375 M22.535 22.715 C 21.752 23.512,21.626 24.000,22.202 24.000 C 22.648 24.000,24.000 22.721,24.000 22.299 C 24.000 21.751,23.279 21.956,22.535 22.715 M184.100 23.625 C 184.047 23.969,183.890 25.188,183.752 26.333 C 183.614 27.479,183.465 28.623,183.421 28.875 L 183.342 29.333 187.421 29.333 L 191.500 29.333 191.500 29.731 C 191.500 30.140,188.081 58.149,187.912 59.125 L 187.818 59.667 191.561 59.667 L 195.304 59.667 195.403 59.042 C 195.457 58.698,196.102 53.504,196.834 47.500 C 197.567 41.496,198.366 34.952,198.610 32.958 L 199.053 29.333 203.193 29.333 C 206.394 29.333,207.333 29.286,207.334 29.125 C 207.334 29.010,207.484 27.754,207.667 26.333 C 207.850 24.912,208.000 23.581,208.000 23.375 L 208.000 23.000 196.098 23.000 L 184.196 23.000 184.100 23.625 M20.035 25.215 C 19.302 25.962,19.151 26.441,19.596 26.611 C 19.922 26.736,21.500 25.233,21.500 24.798 C 21.500 24.251,20.779 24.456,20.035 25.215 M17.535 27.715 C 16.800 28.463,16.651 28.941,17.099 29.112 C 17.467 29.254,19.087 27.634,18.946 27.266 C 18.771 26.810,18.264 26.972,17.535 27.715 M44.685 29.564 C 43.964 30.299,43.825 30.862,44.341 30.962 C 44.646 31.020,46.230 29.237,46.083 29.000 C 45.872 28.657,45.381 28.855,44.685 29.564 M15.035 30.215 C 14.294 30.969,14.100 31.667,14.631 31.667 C 15.067 31.667,16.570 30.089,16.445 29.763 C 16.271 29.310,15.762 29.473,15.035 30.215 M232.417 29.839 C 224.533 31.495,219.834 37.767,219.834 46.632 C 219.833 54.919,224.755 60.024,233.000 60.288 C 236.361 60.396,240.783 59.478,241.091 58.608 C 241.219 58.248,241.994 51.772,241.919 51.697 C 241.877 51.655,241.385 52.046,240.824 52.565 C 237.964 55.213,233.142 55.696,229.926 53.656 C 224.058 49.933,225.027 39.268,231.531 35.984 C 235.041 34.213,239.915 34.825,242.612 37.375 C 243.102 37.839,243.544 38.178,243.593 38.129 C 243.838 37.884,244.505 31.273,244.297 31.141 C 242.021 29.703,236.135 29.057,232.417 29.839 M324.012 29.759 C 319.010 30.844,315.860 35.588,316.896 40.477 C 317.492 43.286,318.970 44.587,323.750 46.511 C 327.717 48.108,328.653 49.302,327.907 51.813 C 326.672 55.973,320.530 55.856,318.107 51.626 C 317.618 50.773,317.621 50.772,315.259 52.778 C 312.831 54.841,312.966 54.534,313.928 55.813 C 316.327 59.004,319.070 60.333,323.258 60.333 C 330.219 60.333,334.360 56.370,334.404 49.667 C 334.431 45.536,332.560 43.407,327.083 41.338 C 323.830 40.109,323.000 39.414,323.000 37.920 C 323.000 34.509,328.307 33.457,331.075 36.319 C 331.934 37.206,331.830 37.251,333.706 35.173 C 335.757 32.900,335.715 33.051,334.575 32.035 C 332.061 29.795,327.940 28.907,324.012 29.759 M210.500 30.418 C 210.500 30.556,209.713 37.029,208.750 44.802 C 207.787 52.575,207.000 59.099,207.000 59.300 C 207.000 59.664,207.022 59.667,209.985 59.667 L 212.971 59.667 213.068 59.042 C 213.121 58.698,213.913 52.267,214.828 44.750 C 215.743 37.233,216.529 30.877,216.575 30.625 L 216.658 30.167 213.579 30.167 C 210.946 30.167,210.500 30.203,210.500 30.418 M249.500 30.413 C 249.500 30.549,248.713 37.027,247.750 44.810 C 246.787 52.592,246.000 59.119,246.000 59.313 C 246.000 59.660,246.055 59.667,248.990 59.667 L 251.980 59.667 252.083 58.958 C 252.139 58.569,252.467 55.941,252.811 53.119 C 253.413 48.172,253.451 47.973,253.879 47.545 C 254.123 47.301,254.351 47.135,254.385 47.176 C 254.418 47.216,256.293 50.044,258.549 53.458 L 262.653 59.667 266.243 59.667 C 268.371 59.667,269.833 59.603,269.833 59.510 C 269.833 59.424,267.358 55.880,264.333 51.635 L 258.833 43.917 261.294 41.500 C 262.648 40.171,265.779 37.136,268.253 34.757 C 270.726 32.377,272.775 30.371,272.806 30.299 C 272.836 30.226,271.273 30.167,269.332 30.167 L 265.803 30.167 260.332 35.517 C 254.082 41.627,254.104 41.609,254.241 40.809 C 254.294 40.501,254.598 38.188,254.917 35.667 C 255.236 33.146,255.533 30.877,255.578 30.625 L 255.658 30.167 252.579 30.167 C 249.973 30.167,249.500 30.205,249.500 30.413 M275.946 36.458 C 275.520 39.919,274.721 46.387,274.170 50.833 C 273.619 55.279,273.167 59.085,273.167 59.292 L 273.167 59.667 281.383 59.667 L 289.600 59.667 289.885 57.292 C 290.041 55.985,290.169 54.823,290.168 54.708 C 290.167 54.546,289.017 54.500,284.977 54.500 L 279.788 54.500 279.883 53.792 C 279.936 53.402,280.145 51.677,280.348 49.958 L 280.718 46.833 285.689 46.833 L 290.660 46.833 290.741 46.458 C 290.832 46.031,291.333 42.007,291.333 41.701 C 291.333 41.549,290.135 41.500,286.365 41.500 L 281.396 41.500 281.773 38.458 C 281.980 36.785,282.153 35.399,282.158 35.377 C 282.163 35.356,284.510 35.318,287.375 35.294 L 292.583 35.250 292.862 33.167 C 293.016 32.021,293.147 30.877,293.154 30.625 L 293.167 30.167 284.943 30.167 L 276.720 30.167 275.946 36.458 M296.438 32.542 C 296.286 33.848,296.163 35.010,296.164 35.125 C 296.166 35.284,296.929 35.333,299.417 35.333 C 301.384 35.333,302.667 35.397,302.667 35.494 C 302.667 35.735,299.851 58.680,299.757 59.208 L 299.675 59.667 302.735 59.667 L 305.796 59.667 305.993 58.042 C 306.101 57.148,306.767 51.692,307.472 45.917 L 308.754 35.417 312.085 35.333 L 315.415 35.250 315.694 33.083 C 315.847 31.892,315.978 30.748,315.986 30.542 L 316.000 30.167 306.357 30.167 L 296.715 30.167 296.438 32.542 M58.261 31.309 C 58.438 31.410,59.783 31.879,61.250 32.351 C 65.015 33.562,65.981 34.119,66.262 35.239 C 66.369 35.664,65.720 41.719,65.495 42.396 C 65.051 43.735,62.090 47.342,61.445 47.330 C 60.925 47.320,59.781 46.606,58.770 45.661 L 57.650 44.613 60.228 42.015 C 64.052 38.160,64.052 38.171,59.903 33.994 C 56.693 30.762,56.369 30.232,58.261 31.309 M12.678 32.593 C 11.946 33.254,11.745 34.000,12.300 34.000 C 12.717 34.000,13.878 32.773,13.807 32.407 C 13.710 31.902,13.383 31.956,12.678 32.593 M34.610 39.639 C 33.788 40.474,33.668 40.780,34.096 40.945 C 34.345 41.040,36.000 39.614,36.000 39.304 C 36.000 38.741,35.337 38.901,34.610 39.639 M32.035 42.048 C 31.294 42.802,31.100 43.500,31.631 43.500 C 32.067 43.500,33.570 41.922,33.445 41.596 C 33.271 41.144,32.762 41.307,32.035 42.048 M29.535 44.548 C 28.794 45.303,28.600 46.000,29.132 46.000 C 29.554 46.000,30.833 44.648,30.833 44.202 C 30.833 43.616,30.314 43.754,29.535 44.548 M27.039 47.043 C 26.302 47.794,26.151 48.274,26.596 48.444 C 26.963 48.585,28.362 47.195,28.298 46.753 C 28.217 46.190,27.777 46.291,27.039 47.043 M30.417 51.833 C 31.053 52.475,31.612 53.000,31.658 53.000 C 31.704 53.000,31.220 52.475,30.583 51.833 C 29.947 51.192,29.388 50.667,29.342 50.667 C 29.296 50.667,29.780 51.192,30.417 51.833 M51.041 54.596 L 52.492 56.109 50.454 58.121 C 48.151 60.396,47.531 60.726,46.426 60.265 C 45.324 59.804,44.794 58.136,45.440 57.162 C 45.793 56.630,49.385 52.985,49.501 53.041 C 49.550 53.064,50.243 53.764,51.041 54.596 M57.296 60.991 C 57.321 61.056,56.636 61.792,55.774 62.626 C 53.657 64.675,52.687 64.943,51.522 63.805 C 50.328 62.637,50.586 61.706,52.699 59.559 L 54.373 57.858 55.811 59.365 C 56.603 60.194,57.271 60.926,57.296 60.991 " stroke="none" fill="#046cbb" fill-rule="evenodd"></path><path id="path2" d="M35.872 9.958 C 45.374 19.451,46.457 20.443,46.873 20.027 C 46.945 19.955,42.621 15.530,37.263 10.194 C 28.047 1.015,26.938 0.000,26.124 0.000 C 26.004 0.000,30.390 4.481,35.872 9.958 M13.583 13.667 L 2.417 24.834 20.250 42.667 C 30.058 52.475,38.158 60.475,38.250 60.445 C 38.342 60.414,38.440 60.271,38.468 60.126 C 38.543 59.739,27.250 48.428,26.782 48.422 C 26.533 48.418,26.395 48.287,26.336 48.000 C 26.231 47.489,12.683 34.000,12.275 34.000 C 12.124 34.000,12.000 33.869,12.000 33.710 C 12.000 33.550,10.069 31.487,7.709 29.126 L 3.418 24.833 14.317 13.933 C 24.709 3.540,25.670 2.500,24.880 2.500 C 24.808 2.500,19.724 7.525,13.583 13.667 M33.625 12.909 C 32.894 13.740,32.870 13.833,33.384 13.833 C 33.877 13.833,34.915 12.786,34.777 12.428 C 34.618 12.012,34.295 12.146,33.625 12.909 M31.197 15.338 C 30.520 16.112,30.418 16.500,30.892 16.500 C 31.200 16.500,32.500 15.114,32.500 14.785 C 32.500 14.260,31.927 14.504,31.197 15.338 M21.167 15.471 C 21.167 15.638,20.979 15.951,20.750 16.167 C 20.125 16.754,20.215 16.973,21.667 18.417 C 23.314 20.054,23.315 20.093,21.729 21.687 C 20.572 22.851,20.323 23.337,20.885 23.331 C 20.994 23.330,21.740 22.711,22.542 21.955 C 24.465 20.144,24.468 20.041,22.667 18.250 C 21.138 16.731,21.186 16.848,21.809 16.131 C 22.372 15.482,22.321 15.167,21.653 15.167 C 21.293 15.167,21.167 15.246,21.167 15.471 M28.699 17.834 C 28.022 18.619,27.922 19.000,28.392 19.000 C 28.700 19.000,30.000 17.614,30.000 17.285 C 30.000 16.752,29.420 16.996,28.699 17.834 M36.333 17.894 C 36.333 17.928,37.678 19.287,39.321 20.914 C 42.502 24.064,42.848 24.546,42.532 25.383 C 42.389 25.762,42.389 25.949,42.529 26.119 C 42.849 26.504,43.667 25.586,43.667 24.842 C 43.667 23.858,37.497 17.833,36.489 17.833 C 36.403 17.833,36.333 17.861,36.333 17.894 M33.935 20.315 L 32.796 21.463 33.426 22.606 C 33.773 23.235,34.079 23.779,34.108 23.815 C 34.220 23.960,34.667 23.440,34.667 23.163 C 34.667 23.001,34.481 22.541,34.255 22.142 L 33.843 21.417 34.775 20.475 C 35.630 19.610,35.801 19.167,35.277 19.167 C 35.166 19.167,34.562 19.683,33.935 20.315 M26.208 20.323 C 25.437 21.219,25.339 21.500,25.799 21.500 C 26.176 21.500,27.500 20.166,27.500 19.785 C 27.500 19.254,26.922 19.495,26.208 20.323 M16.162 20.841 C 16.035 21.078,16.025 21.259,16.133 21.367 C 16.372 21.605,17.032 21.208,16.966 20.866 C 16.886 20.446,16.382 20.431,16.162 20.841 M23.708 22.823 C 22.937 23.719,22.839 24.000,23.299 24.000 C 23.732 24.000,25.069 22.588,24.944 22.262 C 24.774 21.818,24.446 21.966,23.708 22.823 M30.871 23.363 C 29.663 24.530,29.694 24.399,30.330 25.659 C 30.912 26.813,31.102 26.969,31.473 26.598 C 31.728 26.343,31.713 26.259,31.255 25.412 L 30.762 24.501 31.465 23.786 C 32.124 23.114,32.333 22.623,32.037 22.440 C 31.966 22.396,31.441 22.811,30.871 23.363 M49.000 22.950 C 49.000 23.026,49.919 23.997,51.042 25.107 L 53.083 27.126 56.330 28.079 C 69.229 31.866,69.391 32.012,68.607 39.186 C 68.246 42.484,68.138 43.068,67.741 43.853 C 66.687 45.937,64.566 48.585,63.408 49.264 C 62.527 49.780,62.477 49.901,63.208 49.743 C 64.534 49.457,65.578 48.564,67.295 46.250 C 68.901 44.085,69.150 43.349,69.608 39.432 C 70.474 32.022,70.219 31.802,56.000 27.652 L 54.083 27.092 52.256 25.195 C 51.251 24.152,50.276 23.241,50.089 23.171 C 49.318 22.883,49.000 22.818,49.000 22.950 M68.917 22.961 C 69.008 23.044,69.458 23.246,69.917 23.411 C 70.648 23.673,71.476 24.435,76.687 29.646 C 82.622 35.582,83.176 36.230,83.865 38.043 C 84.412 39.481,86.040 52.136,86.261 56.667 C 86.470 60.957,86.540 61.078,91.852 66.427 C 96.437 71.042,96.590 71.256,95.887 72.032 C 95.699 72.241,95.663 72.396,95.777 72.510 C 96.014 72.747,96.735 72.447,97.067 71.973 C 97.660 71.127,97.567 70.999,93.017 66.424 C 87.602 60.980,87.596 60.969,87.332 56.515 C 87.029 51.428,85.554 39.859,85.005 38.263 C 84.378 36.442,83.852 35.815,78.102 30.027 C 72.203 24.090,71.511 23.476,70.409 23.199 C 69.053 22.858,68.750 22.810,68.917 22.961 M21.175 25.374 C 20.351 26.252,20.273 26.500,20.822 26.500 C 21.121 26.500,22.500 25.148,22.500 24.855 C 22.500 24.354,21.919 24.582,21.175 25.374 M38.404 25.649 C 36.801 26.377,36.189 28.461,37.172 29.842 C 37.641 30.499,37.772 30.315,34.500 33.583 C 31.399 36.681,31.322 36.775,31.766 36.946 C 31.956 37.019,32.973 36.108,35.331 33.752 L 38.631 30.456 38.065 29.715 C 37.107 28.459,37.457 27.018,38.966 26.004 C 39.980 25.323,39.621 25.097,38.404 25.649 M27.623 26.485 C 26.494 27.581,26.495 27.578,27.258 28.942 C 27.887 30.067,28.001 30.151,28.342 29.739 C 28.524 29.521,28.484 29.327,28.102 28.547 L 27.646 27.616 28.378 26.850 C 29.776 25.388,29.093 25.058,27.623 26.485 M40.667 26.222 C 40.667 26.275,40.848 26.500,41.070 26.721 C 41.959 27.610,41.923 29.114,40.995 29.895 C 40.410 30.387,40.382 30.500,40.842 30.500 C 42.515 30.500,43.437 28.238,42.292 26.943 C 41.823 26.413,40.667 25.899,40.667 26.222 M48.110 27.258 C 47.090 28.418,47.654 28.789,48.743 27.674 C 49.287 27.117,49.353 26.975,49.173 26.757 C 48.883 26.408,48.842 26.427,48.110 27.258 M18.684 27.864 C 17.856 28.745,17.772 29.000,18.309 29.000 C 18.674 29.000,19.833 27.829,19.833 27.461 C 19.833 26.891,19.483 27.014,18.684 27.864 M39.033 27.700 C 38.382 28.351,39.310 29.439,40.083 28.932 C 40.532 28.638,40.600 28.331,40.327 27.822 C 40.132 27.457,39.350 27.383,39.033 27.700 M24.519 29.564 L 23.464 30.628 24.249 32.147 C 25.099 33.793,25.226 33.904,25.460 33.208 C 25.587 32.829,25.518 32.577,25.062 31.751 L 24.510 30.752 25.272 29.978 C 25.864 29.376,26.009 29.125,25.923 28.852 C 25.762 28.347,25.688 28.385,24.519 29.564 M46.417 28.961 C 46.076 29.211,45.000 30.507,45.000 30.667 C 45.000 31.060,45.651 30.778,46.321 30.096 C 47.100 29.302,47.175 28.403,46.417 28.961 M16.044 30.489 C 15.427 31.195,15.371 31.324,15.594 31.509 C 15.898 31.761,17.333 30.487,17.333 29.965 C 17.333 29.430,16.770 29.659,16.044 30.489 M57.000 30.964 C 57.000 31.023,58.306 32.387,59.903 33.994 C 64.052 38.171,64.052 38.160,60.228 42.015 L 57.650 44.613 58.772 45.663 C 59.931 46.746,61.160 47.435,61.621 47.259 C 61.818 47.183,61.701 47.039,61.150 46.683 C 60.747 46.421,60.046 45.824,59.592 45.356 L 58.768 44.505 61.287 41.953 C 63.993 39.211,64.174 38.908,63.922 37.542 C 63.702 36.350,57.000 29.981,57.000 30.964 M43.360 32.000 L 42.990 32.500 43.469 32.500 C 43.946 32.500,44.500 32.067,44.500 31.695 C 44.500 31.296,43.728 31.502,43.360 32.000 M21.267 32.916 L 20.139 34.171 20.922 35.627 C 21.915 37.475,23.967 40.372,24.222 40.287 C 24.674 40.137,24.459 39.559,23.342 37.918 C 22.691 36.962,21.936 35.709,21.664 35.135 L 21.170 34.090 22.018 33.232 C 22.821 32.419,23.023 31.868,22.573 31.719 C 22.475 31.686,21.888 32.225,21.267 32.916 M13.532 33.000 C 12.884 33.753,12.756 34.167,13.170 34.167 C 13.434 34.167,14.833 32.707,14.833 32.432 C 14.833 31.918,14.242 32.176,13.532 33.000 M45.083 32.788 C 46.459 33.405,46.856 33.751,51.325 38.232 C 55.759 42.678,56.333 43.145,56.333 42.307 C 56.333 42.223,54.402 40.211,52.042 37.835 C 47.472 33.236,46.916 32.811,45.167 32.586 L 44.417 32.489 45.083 32.788 M41.917 35.262 C 40.190 36.160,39.479 38.604,40.478 40.211 C 40.662 40.508,45.282 45.207,50.744 50.655 C 56.206 56.103,60.702 60.716,60.735 60.905 C 61.930 67.875,64.635 70.639,74.029 74.496 C 75.565 75.126,75.848 75.574,75.339 76.573 L 75.036 77.167 75.416 77.167 C 76.058 77.167,76.567 76.622,76.567 75.936 C 76.567 75.123,76.395 74.991,74.167 74.087 C 66.227 70.867,62.406 67.004,61.900 61.689 L 61.795 60.583 51.737 50.500 C 41.151 39.887,41.163 39.901,41.170 38.380 C 41.176 37.127,42.261 35.333,43.013 35.333 C 43.097 35.333,43.167 35.258,43.167 35.167 C 43.167 34.916,42.482 34.968,41.917 35.262 M27.672 36.431 C 26.003 37.154,25.381 38.934,26.236 40.541 L 26.638 41.298 26.151 41.765 C 25.587 42.306,25.730 42.594,26.431 42.328 C 27.244 42.021,28.088 41.000,27.531 41.000 C 27.249 41.000,26.667 39.682,26.667 39.044 C 26.667 38.247,27.341 37.228,28.234 36.677 C 29.156 36.107,28.789 35.946,27.672 36.431 M30.026 37.358 C 31.056 38.270,31.163 39.704,30.267 40.600 L 29.700 41.167 30.186 41.167 C 32.504 41.167,32.448 37.475,30.124 37.062 L 29.583 36.966 30.026 37.358 M28.200 38.533 C 27.709 39.025,28.122 40.000,28.822 40.000 C 29.081 40.000,29.667 39.373,29.667 39.095 C 29.667 38.483,28.642 38.091,28.200 38.533 M35.548 39.819 C 34.846 40.621,34.803 40.833,35.340 40.833 C 35.690 40.833,37.053 39.387,36.914 39.163 C 36.701 38.817,36.222 39.047,35.548 39.819 M33.042 42.326 C 32.223 43.263,32.200 43.333,32.716 43.333 C 33.162 43.333,34.333 42.212,34.333 41.785 C 34.333 41.263,33.761 41.503,33.042 42.326 M30.518 44.850 C 29.960 45.498,29.839 45.734,30.009 45.839 C 30.437 46.103,31.962 44.742,31.777 44.261 C 31.606 43.815,31.277 43.969,30.518 44.850 M28.032 47.334 C 27.356 48.119,27.255 48.500,27.725 48.500 C 28.090 48.500,29.387 47.048,29.278 46.762 C 29.107 46.316,28.779 46.467,28.032 47.334 M47.562 54.875 C 46.545 55.906,45.590 56.935,45.440 57.162 C 44.790 58.142,45.325 59.805,46.440 60.270 C 47.289 60.625,47.682 60.441,47.083 59.970 C 45.639 58.834,45.935 57.692,48.293 55.298 C 49.794 53.774,50.020 53.475,49.839 53.256 C 49.523 52.876,49.556 52.853,47.562 54.875 M52.708 59.550 C 51.764 60.509,50.975 61.459,50.911 61.714 C 50.632 62.825,51.448 64.186,52.535 64.424 C 53.239 64.579,53.273 64.424,52.657 63.873 C 52.195 63.460,52.104 63.250,52.037 62.444 L 51.959 61.499 53.396 60.030 C 54.879 58.515,54.988 58.336,54.612 58.024 C 54.439 57.880,54.019 58.217,52.708 59.550 M40.959 61.266 C 39.196 62.973,39.071 63.252,40.297 62.743 C 41.010 62.447,43.001 60.551,42.997 60.171 C 42.990 59.437,42.673 59.607,40.959 61.266 M57.164 64.754 C 56.386 65.537,55.469 66.302,55.125 66.454 C 54.781 66.606,54.500 66.795,54.500 66.873 C 54.500 67.143,55.753 66.793,56.525 66.307 C 57.297 65.822,58.844 64.300,58.822 64.049 C 58.752 63.269,58.558 63.351,57.164 64.754 " stroke="none" fill="#d4d6e1" fill-rule="evenodd"></path></g></svg> 