<?xml version='1.0' encoding='utf-8'?>
<svg xmlns="http://www.w3.org/2000/svg" version="1.1" viewBox="0.00 27.60 301.74 244.95" width="300" height="243">
<path fill="#dd0000" d="   M 0.00 148.19   L 0.00 147.50   C 26.49 125.63 53.00 103.78 79.53 81.95   C 91.37 72.20 102.04 63.62 111.55 56.20   C 129.12 42.49 139.89 34.04 143.87 30.87   C 144.26 30.56 144.65 30.20 145.02 29.79   C 145.17 29.63 145.42 29.60 145.60 29.73   C 169.76 47.02 193.72 64.70 217.47 82.78   C 245.20 103.89 272.54 125.08 299.48 146.36   C 299.74 146.57 299.71 146.98 299.42 147.14   C 298.70 147.55 298.19 147.89 297.88 148.14   C 271.71 169.84 254.06 184.44 244.94 191.94   C 212.00 219.04 179.21 245.00 146.56 269.82   C 146.44 269.92 146.36 270.06 146.33 270.22   C 146.32 270.33 146.29 270.41 146.24 270.45   C 146.14 270.54 145.98 270.55 145.87 270.46   C 134.42 261.23 127.49 255.63 125.06 253.67   C 81.73 218.64 44.57 186.79 0.00 148.19   Z   M 279.27 146.79   C 234.86 111.11 190.49 76.90 146.15 44.15   C 145.84 43.92 145.42 43.92 145.13 44.16   C 123.54 61.35 101.08 79.20 77.74 97.72   C 57.52 113.76 40.82 127.89 19.40 145.58   C 18.69 146.16 18.57 147.19 19.11 147.92   C 20.55 149.86 22.53 151.29 24.14 152.70   C 64.04 187.71 104.18 221.64 144.56 254.49   C 144.82 254.70 145.18 254.70 145.44 254.50   C 168.98 236.15 187.85 221.75 209.88 203.78   C 218.71 196.58 241.84 177.76 279.27 147.31   C 279.44 147.18 279.44 146.92 279.27 146.79   Z" />
<path fill="#ffffff" d="   M 279.27 146.79   C 279.44 146.92 279.44 147.18 279.27 147.31   C 241.84 177.76 218.71 196.58 209.88 203.78   C 187.85 221.75 168.98 236.15 145.44 254.50   C 145.18 254.70 144.82 254.70 144.56 254.49   C 104.18 221.64 64.04 187.71 24.14 152.70   C 22.53 151.29 20.55 149.86 19.11 147.92   C 18.57 147.19 18.69 146.16 19.40 145.58   C 40.82 127.89 57.52 113.76 77.74 97.72   C 101.08 79.20 123.54 61.35 145.13 44.16   C 145.42 43.92 145.84 43.92 146.15 44.15   C 190.49 76.90 234.86 111.11 279.27 146.79   Z   M 147.35 239.58   C 147.70 239.57 148.12 239.40 148.60 239.09   C 158.78 232.45 168.76 226.05 176.27 217.76   C 182.10 211.34 185.28 203.41 185.82 193.98   C 186.25 186.51 186.24 177.04 185.79 165.56   C 185.65 162.04 185.74 156.26 184.45 152.24   C 183.04 147.87 180.67 144.13 177.36 141.01   C 177.15 140.81 177.16 140.46 177.39 140.27   C 181.92 136.54 184.29 131.69 184.51 125.73   C 184.81 117.46 184.70 109.79 184.17 102.71   C 183.10 88.52 176.94 76.94 165.69 67.95   C 160.84 64.08 154.93 59.80 147.96 55.12   C 147.61 54.89 147.15 55.14 147.15 55.56   L 147.15 239.39   C 147.15 239.50 147.24 239.59 147.35 239.58   Z   M 115.11 221.65   C 115.11 221.75 115.16 221.85 115.23 221.91   L 131.62 235.09   C 131.83 235.26 132.15 235.11 132.15 234.83   L 132.79 92.16   C 132.79 92.05 132.84 91.94 132.94 91.88   L 142.97 85.22   C 143.07 85.16 143.12 85.05 143.12 84.94   L 143.25 56.43   C 143.25 56.25 143.10 56.10 142.92 56.10   L 142.15 56.10   C 142.08 56.10 142.01 56.12 141.95 56.17   L 106.81 82.28   C 106.73 82.34 106.68 82.44 106.68 82.54   L 106.56 108.51   C 106.56 108.77 106.86 108.93 107.08 108.79   L 115.12 103.43   C 115.34 103.29 115.64 103.45 115.64 103.71   L 115.11 221.65   Z   M 207.27 140.45   L 219.63 140.50   C 220.00 140.50 220.31 140.20 220.32 139.83   C 220.55 133.40 220.45 127.71 220.04 122.76   C 219.15 112.04 214.25 101.97 205.70 95.27   C 199.72 90.59 193.22 90.78 190.82 98.64   C 188.43 106.48 188.56 112.33 188.65 120.75   C 188.76 129.98 189.10 150.89 189.67 183.49   C 189.77 189.10 192.86 205.04 202.15 200.63   C 214.01 194.99 220.44 180.13 220.63 167.53   C 220.74 160.06 220.79 156.09 220.78 155.62   C 220.77 155.35 220.56 155.14 220.29 155.14   L 207.61 155.14   C 207.36 155.14 207.16 155.35 207.16 155.60   L 207.16 177.29   C 207.16 178.16 206.75 178.97 206.06 179.49   L 205.06 180.23   C 203.97 181.04 202.42 180.27 202.42 178.91   L 202.42 113.65   C 202.42 112.93 203.00 112.35 203.72 112.36   L 204.15 112.36   C 205.38 112.37 206.38 113.37 206.38 114.60   L 206.38 139.55   C 206.38 140.04 206.78 140.44 207.27 140.45   Z   M 102.68 185.22   C 102.68 185.09 102.62 184.96 102.51 184.88   L 91.04 176.39   C 90.94 176.31 90.87 176.18 90.87 176.04   L 92.64 93.95   C 92.65 93.60 92.25 93.39 91.97 93.60   L 73.82 107.09   C 73.72 107.16 73.66 107.29 73.66 107.42   L 71.94 187.10   C 71.94 187.23 72.00 187.36 72.10 187.44   L 101.88 211.39   C 102.15 211.61 102.56 211.42 102.56 211.07   L 102.68 185.22   Z   M 229.33 116.25   C 225.14 117.92 224.47 122.86 224.63 127.48   C 225.10 141.62 225.30 153.79 225.23 164.00   C 225.20 168.17 226.28 178.74 232.89 176.38   C 244.24 172.31 252.20 162.64 252.01 150.26   C 251.94 145.98 252.23 141.26 251.39 137.64   C 250.25 132.75 247.89 128.45 244.31 124.73   C 241.72 122.04 233.16 114.72 229.33 116.25   Z   M 43.25 163.82   C 48.44 168.07 53.10 171.90 57.24 175.31   C 59.53 177.19 61.86 179.31 64.49 178.18   C 66.20 177.44 67.07 176.13 67.09 174.25   C 67.27 157.87 67.48 142.29 67.71 127.51   C 67.77 123.28 66.68 117.74 61.76 117.22   C 61.54 117.19 61.31 117.26 61.12 117.40   L 43.41 130.56   C 42.94 130.91 42.66 131.47 42.66 132.06   L 42.66 162.56   C 42.66 163.05 42.88 163.51 43.25 163.82   Z   M 255.84 133.19   C 255.63 133.04 255.34 133.20 255.34 133.46   L 255.86 160.29   C 255.86 160.55 256.16 160.69 256.37 160.54   L 274.51 146.77   C 274.69 146.64 274.68 146.38 274.50 146.25   L 255.84 133.19   Z   M 37.28 159.01   C 37.58 159.26 38.03 159.05 38.03 158.66   L 38.27 135.77   C 38.27 135.38 37.83 135.16 37.53 135.40   L 23.09 146.70   C 22.86 146.88 22.86 147.23 23.09 147.42   L 37.28 159.01   Z" />
<path fill="#dd0000" d="   M 147.35 239.58   C 147.24 239.59 147.15 239.50 147.15 239.39   L 147.15 55.56   C 147.15 55.14 147.61 54.89 147.96 55.12   C 154.93 59.80 160.84 64.08 165.69 67.95   C 176.94 76.94 183.10 88.52 184.17 102.71   C 184.70 109.79 184.81 117.46 184.51 125.73   C 184.29 131.69 181.92 136.54 177.39 140.27   C 177.16 140.46 177.15 140.81 177.36 141.01   C 180.67 144.13 183.04 147.87 184.45 152.24   C 185.74 156.26 185.65 162.04 185.79 165.56   C 186.24 177.04 186.25 186.51 185.82 193.98   C 185.28 203.41 182.10 211.34 176.27 217.76   C 168.76 226.05 158.78 232.45 148.60 239.09   C 148.12 239.40 147.70 239.57 147.35 239.58   Z   M 163.62 94.38   L 163.62 127.33   C 163.62 128.29 164.71 128.83 165.48 128.26   L 166.72 127.34   C 167.88 126.47 168.57 125.10 168.57 123.65   L 168.57 100.34   C 168.57 99.09 168.17 97.87 167.42 96.86   L 165.19 93.86   C 164.69 93.19 163.62 93.54 163.62 94.38   Z   M 163.89 154.73   C 163.67 154.78 163.51 154.97 163.50 155.20   L 163.30 199.91   C 163.30 200.31 163.77 200.52 164.07 200.25   C 167.26 197.38 168.86 194.13 168.87 190.51   C 168.90 174.42 168.91 165.76 168.90 164.54   C 168.89 161.30 169.08 153.64 163.89 154.73   Z" />
<path fill="#dd0000" d="   M 115.11 221.65   L 115.64 103.71   C 115.64 103.45 115.34 103.29 115.12 103.43   L 107.08 108.79   C 106.86 108.93 106.56 108.77 106.56 108.51   L 106.68 82.54   C 106.68 82.44 106.73 82.34 106.81 82.28   L 141.95 56.17   C 142.01 56.12 142.08 56.10 142.15 56.10   L 142.92 56.10   C 143.10 56.10 143.25 56.25 143.25 56.43   L 143.12 84.94   C 143.12 85.05 143.07 85.16 142.97 85.22   L 132.94 91.88   C 132.84 91.94 132.79 92.05 132.79 92.16   L 132.15 234.83   C 132.15 235.11 131.83 235.26 131.62 235.09   L 115.23 221.91   C 115.16 221.85 115.11 221.75 115.11 221.65   Z" />
<path fill="#dd0000" d="   M 206.38 139.55   L 206.38 114.60   C 206.38 113.37 205.38 112.37 204.15 112.36   L 203.72 112.36   C 203.00 112.35 202.42 112.93 202.42 113.65   L 202.42 178.91   C 202.42 180.27 203.97 181.04 205.06 180.23   L 206.06 179.49   C 206.75 178.97 207.16 178.16 207.16 177.29   L 207.16 155.60   C 207.16 155.35 207.36 155.14 207.61 155.14   L 220.29 155.14   C 220.56 155.14 220.77 155.35 220.78 155.62   C 220.79 156.09 220.74 160.06 220.63 167.53   C 220.44 180.13 214.01 194.99 202.15 200.63   C 192.86 205.04 189.77 189.10 189.67 183.49   C 189.10 150.89 188.76 129.98 188.65 120.75   C 188.56 112.33 188.43 106.48 190.82 98.64   C 193.22 90.78 199.72 90.59 205.70 95.27   C 214.25 101.97 219.15 112.04 220.04 122.76   C 220.45 127.71 220.55 133.40 220.32 139.83   C 220.31 140.20 220.00 140.50 219.63 140.50   L 207.27 140.45   C 206.78 140.44 206.38 140.04 206.38 139.55   Z" />
<path fill="#dd0000" d="   M 102.68 185.22   L 102.56 211.07   C 102.56 211.42 102.15 211.61 101.88 211.39   L 72.10 187.44   C 72.00 187.36 71.94 187.23 71.94 187.10   L 73.66 107.42   C 73.66 107.29 73.72 107.16 73.82 107.09   L 91.97 93.60   C 92.25 93.39 92.65 93.60 92.64 93.95   L 90.87 176.04   C 90.87 176.18 90.94 176.31 91.04 176.39   L 102.51 184.88   C 102.62 184.96 102.68 185.09 102.68 185.22   Z" />
<path fill="#ffffff" d="   M 163.62 94.38   C 163.62 93.54 164.69 93.19 165.19 93.86   L 167.42 96.86   C 168.17 97.87 168.57 99.09 168.57 100.34   L 168.57 123.65   C 168.57 125.10 167.88 126.47 166.72 127.34   L 165.48 128.26   C 164.71 128.83 163.62 128.29 163.62 127.33   L 163.62 94.38   Z" />
<path fill="#dd0000" d="   M 229.33 116.25   C 233.16 114.72 241.72 122.04 244.31 124.73   C 247.89 128.45 250.25 132.75 251.39 137.64   C 252.23 141.26 251.94 145.98 252.01 150.26   C 252.20 162.64 244.24 172.31 232.89 176.38   C 226.28 178.74 225.20 168.17 225.23 164.00   C 225.30 153.79 225.10 141.62 224.63 127.48   C 224.47 122.86 225.14 117.92 229.33 116.25   Z   M 240.5350 133.0585   C 240.52 132.06 239.70 131.26 238.7031 131.2707   L 238.6231 131.2717   C 237.62 131.28 236.82 132.10 236.8353 133.1037   L 237.1850 161.7215   C 237.20 162.72 238.02 163.52 239.0169 163.5093   L 239.0969 163.5083   C 240.10 163.50 240.90 162.68 240.8847 161.6763   L 240.5350 133.0585   Z" />
<path fill="#dd0000" d="   M 42.66 162.56   L 42.66 132.06   C 42.66 131.47 42.94 130.91 43.41 130.56   L 61.12 117.40   C 61.31 117.26 61.54 117.19 61.76 117.22   C 66.68 117.74 67.77 123.28 67.71 127.51   C 67.48 142.29 67.27 157.87 67.09 174.25   C 67.07 176.13 66.20 177.44 64.49 178.18   C 61.86 179.31 59.53 177.19 57.24 175.31   C 53.10 171.90 48.44 168.07 43.25 163.82   C 42.88 163.51 42.66 163.05 42.66 162.56   Z   M 57.0594 133.8998   C 57.07 133.04 56.38 132.34 55.5258 132.3337   L 54.9858 132.3280   C 54.13 132.32 53.43 133.01 53.4196 133.8617   L 53.1206 162.4202   C 53.11 163.28 53.80 163.98 54.6542 163.9863   L 55.1942 163.9920   C 56.05 164.00 56.75 163.31 56.7604 162.4583   L 57.0594 133.8998   Z" />
<path fill="#ffffff" d="   M 240.8847 161.6763   C 240.90 162.68 240.10 163.50 239.0969 163.5083   L 239.0169 163.5093   C 238.02 163.52 237.20 162.72 237.1850 161.7215   L 236.8353 133.1037   C 236.82 132.10 237.62 131.28 238.6231 131.2717   L 238.7031 131.2707   C 239.70 131.26 240.52 132.06 240.5350 133.0585   L 240.8847 161.6763   Z" />
<path fill="#ffffff" d="   M 56.7604 162.4583   C 56.75 163.31 56.05 164.00 55.1942 163.9920   L 54.6542 163.9863   C 53.80 163.98 53.11 163.28 53.1206 162.4202   L 53.4196 133.8617   C 53.43 133.01 54.13 132.32 54.9858 132.3280   L 55.5258 132.3337   C 56.38 132.34 57.07 133.04 57.0594 133.8998   L 56.7604 162.4583   Z" />
<path fill="#dd0000" d="   M 255.84 133.19   L 274.50 146.25   C 274.68 146.38 274.69 146.64 274.51 146.77   L 256.37 160.54   C 256.16 160.69 255.86 160.55 255.86 160.29   L 255.34 133.46   C 255.34 133.20 255.63 133.04 255.84 133.19   Z" />
<path fill="#dd0000" d="   M 37.28 159.01   L 23.09 147.42   C 22.86 147.23 22.86 146.88 23.09 146.70   L 37.53 135.40   C 37.83 135.16 38.27 135.38 38.27 135.77   L 38.03 158.66   C 38.03 159.05 37.58 159.26 37.28 159.01   Z" />
<path fill="#ffffff" d="   M 163.89 154.73   C 169.08 153.64 168.89 161.30 168.90 164.54   C 168.91 165.76 168.90 174.42 168.87 190.51   C 168.86 194.13 167.26 197.38 164.07 200.25   C 163.77 200.52 163.30 200.31 163.30 199.91   L 163.50 155.20   C 163.51 154.97 163.67 154.78 163.89 154.73   Z" />
</svg>