<?xml version='1.0' encoding='utf-8'?>
<svg xmlns="http://www.w3.org/2000/svg" version="1.1" viewBox="0.00 68.28 301.70 162.80" width="300" height="161">
<path fill="#010001" d="   M 0.00 126.72   L 0.00 126.12   C 0.25 125.65 0.54 125.41 0.85 125.40   C 1.13 125.39 1.41 125.62 1.69 126.10   C 3.22 128.71 5.06 131.10 7.22 133.29   C 7.61 133.68 7.91 133.87 8.14 133.87   C 8.54 133.87 8.81 133.48 8.67 133.11   C 4.56 122.21 1.98 111.05 0.95 99.64   C 0.92 99.35 1.01 99.04 1.21 98.73   C 1.56 98.19 2.35 98.23 2.65 98.79   C 3.87 101.11 4.93 103.16 5.84 104.95   C 8.05 109.31 11.14 113.14 14.59 116.84   C 15.04 117.32 15.83 116.83 15.60 116.21   C 14.86 114.20 13.28 111.35 12.29 108.32   C 8.40 96.39 7.49 84.22 9.56 71.81   C 9.63 71.34 9.78 70.99 9.99 70.74   C 10.37 70.28 11.12 70.56 11.12 71.16   L 11.12 72.71   C 11.12 73.16 11.22 73.60 11.41 74.01   C 15.68 83.16 19.56 90.04 23.07 94.65   C 28.47 101.74 36.13 108.20 46.04 114.04   C 47.29 114.77 51.74 116.86 59.40 120.31   C 59.51 120.36 59.62 120.39 59.74 120.41   L 66.59 121.64   C 67.77 121.85 68.44 123.13 67.93 124.22   C 61.96 137.16 60.18 150.73 62.59 164.94   C 63.66 171.29 65.72 177.23 68.77 182.77   C 69.30 183.72 68.65 184.90 67.56 184.96   C 65.74 185.06 63.64 185.20 61.25 185.37   C 50.82 186.11 41.21 183.18 32.04 178.22   C 23.10 173.40 14.88 163.88 10.59 155.73   C 6.82 148.56 4.46 143.22 3.53 139.70   C 2.38 135.39 1.21 131.06 0.00 126.72   Z   M 2.55 130.29   C 2.42 130.30 2.33 130.42 2.36 130.55   C 4.34 139.24 7.36 147.25 11.43 154.56   C 15.94 162.68 21.07 168.90 26.81 173.22   C 38.76 182.21 52.19 185.67 67.08 183.60   C 67.43 183.55 67.63 183.17 67.47 182.86   C 66.60 181.14 65.09 178.79 64.35 176.67   C 58.98 161.38 58.87 145.89 64.01 130.20   C 64.50 128.71 65.36 126.84 66.59 124.60   C 67.02 123.81 66.53 122.83 65.64 122.70   L 61.18 122.03   C 60.59 121.94 60.01 121.79 59.45 121.56   C 53.02 118.99 47.40 116.27 42.58 113.41   C 30.21 106.08 20.71 95.75 14.09 82.42   C 12.74 79.69 11.69 77.49 10.96 75.83   C 10.80 75.46 10.25 75.55 10.21 75.95   C 8.74 90.50 11.09 104.18 17.25 117.01   C 17.56 117.66 17.69 118.27 17.62 118.86   C 17.53 119.66 16.60 120.03 15.98 119.52   C 10.39 114.83 6.18 109.15 3.35 102.49   C 3.26 102.28 3.03 102.17 2.81 102.23   C 2.59 102.28 2.45 102.50 2.48 102.72   C 3.95 114.61 7.00 126.05 11.63 137.05   C 11.81 137.47 11.47 137.92 11.02 137.87   C 10.57 137.82 10.13 137.62 9.72 137.26   C 7.07 134.95 5.00 132.78 3.49 130.75   C 3.24 130.41 2.93 130.26 2.55 130.29   Z" />
<path fill="#010001" d="   M 290.13 71.16   C 290.51 73.58 290.76 75.05 290.87 75.56   C 291.42 78.14 291.47 83.28 291.00 90.98   C 290.49 99.51 288.33 107.77 284.53 115.74   C 284.39 116.02 284.48 116.36 284.74 116.54   C 285.00 116.72 285.35 116.69 285.57 116.47   C 289.98 112.01 293.62 106.53 296.49 100.02   C 296.72 99.51 297.09 99.03 297.60 98.58   C 298.14 98.10 298.98 98.52 298.92 99.24   C 297.92 110.87 295.36 122.12 291.23 132.99   C 291.14 133.22 291.19 133.42 291.37 133.61   C 291.69 133.94 292.01 133.95 292.34 133.62   C 294.81 131.14 296.83 128.52 298.40 125.76   C 298.56 125.48 298.90 125.35 299.21 125.46   C 299.51 125.57 299.70 125.89 299.64 126.21   C 297.73 137.10 294.07 147.33 288.64 156.88   C 284.52 164.14 277.17 172.72 269.65 177.14   C 259.24 183.27 248.60 186.43 236.47 185.22   C 234.62 185.04 232.91 185.27 231.58 184.62   C 230.91 184.29 230.66 183.47 231.02 182.82   C 231.93 181.18 233.64 178.22 234.57 175.46   C 239.66 160.31 239.57 145.05 234.30 129.66   C 234.11 129.09 233.34 127.44 231.99 124.70   C 231.38 123.47 231.87 122.43 233.45 121.58   C 233.58 121.51 233.73 121.46 233.88 121.43   L 239.54 120.50   C 240.04 120.41 240.54 120.26 241.01 120.05   C 248.21 116.78 252.41 114.81 253.62 114.12   C 263.03 108.77 270.58 102.49 276.29 95.26   C 280.41 90.03 284.48 82.86 288.49 73.74   C 288.76 73.11 288.87 72.21 288.82 71.02   C 288.80 70.74 289.05 70.51 289.33 70.55   L 289.53 70.58   C 289.84 70.62 290.08 70.86 290.13 71.16   Z   M 297.30 130.29   C 296.92 130.26 296.61 130.41 296.36 130.75   C 294.86 132.78 292.78 134.95 290.14 137.26   C 289.72 137.62 289.29 137.82 288.84 137.87   C 288.39 137.92 288.05 137.47 288.23 137.05   C 292.85 126.06 295.90 114.62 297.37 102.73   C 297.40 102.51 297.26 102.30 297.04 102.24   C 296.82 102.18 296.59 102.29 296.50 102.50   C 293.68 109.16 289.47 114.84 283.88 119.53   C 283.26 120.04 282.32 119.66 282.24 118.87   C 282.17 118.28 282.30 117.67 282.61 117.02   C 288.77 104.20 291.11 90.51 289.64 75.97   C 289.60 75.57 289.06 75.48 288.89 75.85   C 288.16 77.51 287.12 79.71 285.77 82.44   C 279.15 95.76 269.66 106.09 257.29 113.42   C 252.47 116.28 246.85 119.00 240.42 121.57   C 239.87 121.80 239.28 121.95 238.69 122.04   L 234.24 122.71   C 233.34 122.84 232.85 123.82 233.29 124.61   C 234.51 126.85 235.37 128.71 235.87 130.21   C 241.00 145.89 240.89 161.37 235.53 176.66   C 234.79 178.78 233.28 181.13 232.41 182.85   C 232.25 183.16 232.45 183.54 232.80 183.59   C 247.69 185.66 261.11 182.20 273.05 173.21   C 278.79 168.89 283.92 162.67 288.43 154.56   C 292.49 147.24 295.52 139.24 297.49 130.55   C 297.53 130.43 297.43 130.30 297.30 130.29   Z" />
<path fill="#fff133" d="   M 2.55 130.29   C 2.93 130.26 3.24 130.41 3.49 130.75   C 5.00 132.78 7.07 134.95 9.72 137.26   C 10.13 137.62 10.57 137.82 11.02 137.87   C 11.47 137.92 11.81 137.47 11.63 137.05   C 7.00 126.05 3.95 114.61 2.48 102.72   C 2.45 102.50 2.59 102.28 2.81 102.23   C 3.03 102.17 3.26 102.28 3.35 102.49   C 6.18 109.15 10.39 114.83 15.98 119.52   C 16.60 120.03 17.53 119.66 17.62 118.86   C 17.69 118.27 17.56 117.66 17.25 117.01   C 11.09 104.18 8.74 90.50 10.21 75.95   C 10.25 75.55 10.80 75.46 10.96 75.83   C 11.69 77.49 12.74 79.69 14.09 82.42   C 20.71 95.75 30.21 106.08 42.58 113.41   C 47.40 116.27 53.02 118.99 59.45 121.56   C 60.01 121.79 60.59 121.94 61.18 122.03   L 65.64 122.70   C 66.53 122.83 67.02 123.81 66.59 124.60   C 65.36 126.84 64.50 128.71 64.01 130.20   C 58.87 145.89 58.98 161.38 64.35 176.67   C 65.09 178.79 66.60 181.14 67.47 182.86   C 67.63 183.17 67.43 183.55 67.08 183.60   C 52.19 185.67 38.76 182.21 26.81 173.22   C 21.07 168.90 15.94 162.68 11.43 154.56   C 7.36 147.25 4.34 139.24 2.36 130.55   C 2.33 130.42 2.42 130.30 2.55 130.29   Z   M 16.26 97.00   C 16.29 98.79 16.59 100.87 17.16 103.25   C 21.71 122.17 35.09 138.16 55.65 139.20   C 56.27 139.23 56.82 138.81 56.97 138.21   L 59.39 128.11   C 59.50 127.62 59.21 127.14 58.73 127.02   C 47.72 124.20 38.02 119.72 29.71 111.67   C 24.66 106.77 20.54 101.77 17.35 96.67   C 17.04 96.17 16.25 96.40 16.26 97.00   Z   M 55.99 158.44   C 55.40 154.56 55.34 150.28 55.82 145.59   C 55.87 145.07 55.46 144.62 54.94 144.61   C 40.52 144.42 28.80 139.16 17.41 129.81   C 17.18 129.63 16.88 129.54 16.51 129.55   C 16.18 129.56 15.97 129.89 16.09 130.19   C 22.62 146.34 36.67 159.84 55.01 159.60   C 55.62 159.59 56.08 159.05 55.99 158.44   Z   M 20.50 155.40   C 19.91 155.12 19.32 155.79 19.68 156.33   C 28.33 169.55 42.80 178.89 58.70 178.19   C 59.22 178.16 59.59 177.67 59.47 177.17   L 56.35 164.07   C 56.25 163.63 55.88 163.29 55.42 163.24   C 51.44 162.78 46.80 163.07 42.86 162.58   C 34.97 161.60 27.91 158.94 20.50 155.40   Z" />
<path fill="#fff133" d="   M 297.30 130.29   C 297.43 130.30 297.53 130.43 297.49 130.55   C 295.52 139.24 292.49 147.24 288.43 154.56   C 283.92 162.67 278.79 168.89 273.05 173.21   C 261.11 182.20 247.69 185.66 232.80 183.59   C 232.45 183.54 232.25 183.16 232.41 182.85   C 233.28 181.13 234.79 178.78 235.53 176.66   C 240.89 161.37 241.00 145.89 235.87 130.21   C 235.37 128.71 234.51 126.85 233.29 124.61   C 232.85 123.82 233.34 122.84 234.24 122.71   L 238.69 122.04   C 239.28 121.95 239.87 121.80 240.42 121.57   C 246.85 119.00 252.47 116.28 257.29 113.42   C 269.66 106.09 279.15 95.76 285.77 82.44   C 287.12 79.71 288.16 77.51 288.89 75.85   C 289.06 75.48 289.60 75.57 289.64 75.97   C 291.11 90.51 288.77 104.20 282.61 117.02   C 282.30 117.67 282.17 118.28 282.24 118.87   C 282.32 119.66 283.26 120.04 283.88 119.53   C 289.47 114.84 293.68 109.16 296.50 102.50   C 296.59 102.29 296.82 102.18 297.04 102.24   C 297.26 102.30 297.40 102.51 297.37 102.73   C 295.90 114.62 292.85 126.06 288.23 137.05   C 288.05 137.47 288.39 137.92 288.84 137.87   C 289.29 137.82 289.72 137.62 290.14 137.26   C 292.78 134.95 294.86 132.78 296.36 130.75   C 296.61 130.41 296.92 130.26 297.30 130.29   Z   M 283.61 97.02   C 283.62 96.42 282.84 96.18 282.52 96.69   C 279.33 101.79 275.20 106.79 270.15 111.68   C 261.83 119.73 252.12 124.20 241.11 127.01   C 240.63 127.13 240.33 127.62 240.45 128.10   L 242.86 138.21   C 243.01 138.81 243.56 139.23 244.18 139.20   C 264.75 138.18 278.14 122.19 282.71 103.27   C 283.28 100.89 283.58 98.81 283.61 97.02   Z   M 243.84 158.47   C 243.75 159.07 244.21 159.62 244.82 159.63   C 263.20 159.87 277.28 146.33 283.82 130.15   C 283.94 129.85 283.72 129.52 283.40 129.51   C 283.03 129.50 282.73 129.58 282.50 129.77   C 271.08 139.14 259.34 144.41 244.89 144.61   C 244.36 144.62 243.96 145.07 244.01 145.59   C 244.49 150.29 244.43 154.58 243.84 158.47   Z   M 279.39 155.38   C 271.98 158.93 264.92 161.59 257.03 162.58   C 253.09 163.07 248.45 162.78 244.46 163.24   C 244.01 163.30 243.64 163.63 243.54 164.07   L 240.42 177.18   C 240.30 177.68 240.67 178.17 241.19 178.20   C 257.10 178.89 271.57 169.54 280.21 156.31   C 280.57 155.77 279.98 155.10 279.39 155.38   Z" />
<path fill="#227baa" d="   M 64.9001 154.4533   C 64.97 113.36 102.66 80.12 149.0899 80.2001   C 195.51 80.28 233.09 113.66 233.0199 154.7467   C 232.95 195.84 195.26 229.08 148.8301 228.9999   C 102.41 228.92 64.83 195.54 64.9001 154.4533   Z   M 127.77 102.28   C 124.18 103.05 121.71 103.01 120.35 102.18   C 118.76 99.89 116.44 98.03 113.41 96.60   C 113.12 96.47 112.78 96.52 112.54 96.74   C 108.07 100.83 104.09 105.47 100.61 110.64   C 100.43 110.91 100.51 111.28 100.80 111.44   L 112.17 118.01   C 112.47 118.18 112.85 118.02 112.94 117.69   C 113.97 113.78 115.47 110.10 117.46 106.67   C 118.18 108.76 118.32 110.59 117.87 112.16   C 116.53 114.23 115.60 116.43 115.08 118.77   C 115.01 119.07 115.11 119.39 115.34 119.61   C 116.05 120.27 116.86 120.67 117.77 120.81   L 117.03 122.46   C 116.16 121.96 115.40 121.69 114.74 121.64   C 114.44 121.62 114.17 121.81 114.09 122.10   C 111.98 129.99 110.62 137.99 110.02 146.11   C 110.00 146.44 110.17 146.75 110.47 146.90   C 114.56 148.87 118.82 150.32 123.25 151.25   L 123.20 156.53   C 121.10 157.18 119.01 157.80 116.92 158.37   C 114.44 159.05 111.97 160.25 110.09 161.20   C 109.91 161.29 109.80 161.47 109.81 161.67   C 110.26 170.02 111.50 178.20 113.52 186.20   C 113.59 186.49 113.89 186.65 114.18 186.56   L 116.57 185.75   C 117.10 185.96 117.52 186.36 117.81 186.97   L 114.56 188.60   C 114.28 188.73 114.15 189.07 114.27 189.36   L 117.86 198.11   C 118.35 199.58 118.21 201.37 117.44 203.46   C 115.21 199.23 113.46 194.81 112.19 190.21   C 112.14 190.05 111.96 189.97 111.81 190.05   L 100.81 196.41   C 100.49 196.59 100.40 197.00 100.60 197.31   C 103.93 202.29 107.88 206.90 112.46 211.13   C 112.70 211.35 113.06 211.37 113.32 211.18   L 119.56 206.83   C 120.40 206.04 122.23 205.92 125.04 206.48   C 124.07 207.07 123.41 207.64 123.08 208.21   C 122.92 208.49 122.92 208.83 123.09 209.09   C 125.79 213.46 128.87 217.15 132.32 220.16   C 135.44 222.88 137.63 224.37 138.88 224.62   C 145.06 225.90 151.53 226.03 158.28 225.02   C 159.03 224.91 159.76 224.65 160.42 224.27   C 166.91 220.46 171.01 215.66 175.26 209.61   C 175.63 209.08 175.38 208.34 174.76 208.14   L 162.41 204.19   C 163.22 203.46 163.87 203.03 164.36 202.90   L 176.36 206.77   C 176.64 206.86 176.95 206.74 177.09 206.47   C 180.06 200.88 182.50 195.06 184.41 189.00   C 184.53 188.61 184.33 188.19 183.95 188.04   L 178.11 185.69   C 178.06 185.15 178.27 184.66 178.75 184.21   C 180.90 184.48 182.92 185.18 184.81 186.30   C 184.97 186.40 185.19 186.31 185.23 186.12   C 187.16 178.64 188.44 170.98 189.07 163.15   C 189.09 162.84 188.93 162.55 188.66 162.41   L 183.77 159.88   C 183.60 159.41 183.70 158.79 184.08 158.03   L 189.05 160.33   C 189.20 160.40 189.38 160.28 189.38 160.11   L 189.38 155.03   C 189.38 154.89 189.26 154.77 189.12 154.78   L 184.11 154.92   C 183.57 154.11 183.51 153.39 183.93 152.75   L 188.76 152.80   C 189.13 152.81 189.44 152.50 189.44 152.13   L 189.44 148.03   C 189.44 147.71 189.10 147.51 188.82 147.65   L 183.85 150.11   C 183.56 149.20 183.52 148.46 183.72 147.90   L 188.64 145.45   C 188.91 145.32 189.07 145.03 189.05 144.73   C 188.47 137.04 187.22 129.47 185.31 122.01   C 185.25 121.75 184.97 121.60 184.72 121.70   L 178.96 123.86   C 178.65 123.53 178.38 123.00 178.14 122.28   L 183.91 119.86   C 184.30 119.70 184.50 119.26 184.38 118.86   C 182.44 112.79 180.01 107.07 177.09 101.69   C 176.84 101.23 176.29 101.01 175.79 101.18   L 164.49 105.08   L 162.78 103.55   L 175.23 99.43   C 175.44 99.36 175.53 99.11 175.40 98.92   C 170.18 91.06 161.82 82.24 151.43 82.28   C 147.43 82.29 145.20 82.36 144.75 82.48   C 135.68 84.98 128.95 91.65 123.94 99.47   C 123.73 99.80 123.84 100.24 124.19 100.42   L 127.77 102.28   Z   M 134.51 84.66   C 134.64 84.51 134.49 84.29 134.30 84.35   C 127.03 86.86 120.51 90.32 114.73 94.71   C 114.53 94.86 114.55 95.16 114.76 95.28   L 120.92 98.84   C 121.20 99.00 121.56 98.91 121.73 98.64   C 124.10 94.97 127.46 90.36 130.95 87.67   C 132.77 86.27 133.96 85.27 134.51 84.66   Z   M 165.09 84.55   C 165.63 85.14 166.78 86.11 168.54 87.46   C 171.92 90.07 175.18 94.53 177.47 98.08   C 177.64 98.34 177.98 98.42 178.26 98.27   L 184.22 94.82   C 184.42 94.70 184.44 94.41 184.25 94.27   C 178.65 90.02 172.33 86.68 165.30 84.25   C 165.12 84.19 164.97 84.41 165.09 84.55   Z   M 126.61 84.30   C 126.60 84.28 126.58 84.26 126.56 84.27   L 109.56 90.72   C 109.11 90.89 109.04 91.50 109.43 91.78   L 111.77 93.45   C 112.20 93.76 112.79 93.75 113.21 93.41   C 116.73 90.54 121.19 87.83 126.60 85.28   C 126.79 85.19 126.87 84.98 126.80 84.79   L 126.61 84.30   Z   M 175.12 85.50   L 174.96 85.90   C 174.90 86.05 174.97 86.23 175.12 86.31   C 179.50 88.48 183.11 90.77 185.94 93.18   C 186.28 93.46 186.76 93.48 187.12 93.23   L 189.06 91.91   C 189.39 91.68 189.33 91.19 188.97 91.04   L 175.17 85.48   C 175.15 85.47 175.13 85.49 175.12 85.50   Z   M 110.55 94.99   L 107.47 92.63   C 107.15 92.38 106.71 92.35 106.34 92.54   C 100.71 95.56 95.57 99.10 90.90 103.17   C 90.64 103.40 90.66 103.81 90.93 104.02   L 98.08 109.52   C 98.33 109.71 98.70 109.65 98.87 109.39   C 102.35 104.10 106.25 99.54 110.58 95.72   C 110.80 95.52 110.78 95.17 110.55 94.99   Z   M 201.47 109.80   L 208.52 104.74   C 208.61 104.67 208.62 104.54 208.53 104.46   C 203.06 99.65 197.48 95.70 191.81 92.63   C 191.62 92.53 191.39 92.54 191.22 92.66   L 188.37 94.71   C 188.21 94.82 188.20 95.05 188.35 95.17   C 193.34 99.44 197.53 104.28 200.91 109.69   C 201.03 109.88 201.29 109.93 201.47 109.80   Z   M 199.04 110.68   C 195.41 105.27 191.24 100.47 186.53 96.29   C 186.33 96.12 186.05 96.09 185.82 96.22   L 179.24 100.02   C 179.07 100.12 179.01 100.34 179.11 100.51   C 182.23 105.74 184.74 111.56 186.65 117.96   C 186.73 118.23 187.04 118.35 187.27 118.21   L 198.84 111.53   C 199.14 111.36 199.23 110.97 199.04 110.68   Z   M 88.14 133.75   C 90.15 125.74 93.21 118.46 97.32 111.93   C 97.45 111.72 97.40 111.45 97.20 111.30   L 89.19 105.14   C 89.05 105.03 88.85 105.04 88.72 105.16   C 83.11 110.53 78.46 116.57 74.77 123.30   C 74.62 123.58 74.70 123.93 74.95 124.13   L 87.67 133.91   C 87.84 134.04 88.09 133.96 88.14 133.75   Z   M 211.75 133.43   L 223.14 125.24   C 223.64 124.89 223.79 124.22 223.49 123.69   C 219.66 116.80 215.30 111.05 210.43 106.42   C 210.20 106.21 209.85 106.18 209.60 106.37   L 202.62 111.38   C 202.37 111.55 202.30 111.89 202.46 112.16   C 206.46 118.71 209.32 125.71 211.05 133.16   C 211.12 133.47 211.49 133.62 211.75 133.43   Z   M 107.68 144.97   C 108.13 136.52 109.51 128.40 111.80 120.62   C 111.88 120.35 111.77 120.06 111.52 119.91   L 99.80 113.15   C 99.53 113.00 99.18 113.09 99.03 113.36   C 95.09 120.09 92.17 127.43 90.27 135.38   C 90.23 135.57 90.31 135.77 90.47 135.89   C 95.68 139.52 101.22 142.66 107.09 145.33   C 107.36 145.45 107.66 145.26 107.68 144.97   Z   M 191.99 144.03   C 198.59 141.52 204.24 138.63 208.93 135.37   C 209.21 135.18 209.33 134.83 209.25 134.50   C 207.24 126.78 204.36 119.70 200.59 113.25   C 200.50 113.10 200.31 113.05 200.16 113.14   L 187.75 120.30   C 187.56 120.41 187.47 120.65 187.53 120.87   C 189.62 128.18 190.93 135.79 191.46 143.69   C 191.48 143.95 191.74 144.12 191.99 144.03   Z   M 74.02 125.79   C 73.77 125.60 73.40 125.68 73.26 125.97   C 69.29 134.27 67.09 143.02 66.67 152.21   C 66.65 152.58 66.94 152.89 67.31 152.89   L 84.83 153.14   C 85.21 153.15 85.53 152.87 85.58 152.49   L 87.53 137.16   C 87.58 136.83 87.45 136.49 87.18 136.28   L 74.02 125.79   Z   M 214.22 152.86   L 230.78 152.63   C 230.93 152.62 231.04 152.50 231.04 152.35   C 230.78 143.37 228.74 134.80 224.91 126.64   C 224.84 126.50 224.66 126.45 224.53 126.55   L 212.08 135.71   C 211.84 135.89 211.73 136.20 211.80 136.48   C 213.03 141.60 213.69 146.91 213.78 152.44   C 213.79 152.68 213.98 152.87 214.22 152.86   Z   M 191.81 152.19   C 191.81 152.54 192.09 152.82 192.44 152.82   L 210.98 152.84   C 211.43 152.84 211.78 152.45 211.73 152.00   L 210.08 137.62   C 210.04 137.25 209.62 137.07 209.32 137.28   C 206.60 139.20 204.94 140.40 202.09 141.67   C 196.01 144.38 192.76 145.82 192.32 146.00   C 192.02 146.12 191.82 146.41 191.82 146.74   L 191.81 152.19   Z   M 89.49 138.58   L 87.89 152.30   C 87.85 152.67 88.13 152.99 88.50 152.99   L 106.91 152.99   C 107.21 152.99 107.46 152.74 107.46 152.44   L 107.46 148.23   C 107.46 147.88 107.26 147.56 106.94 147.42   C 100.08 144.39 94.54 141.32 90.33 138.21   C 90.00 137.97 89.53 138.17 89.49 138.58   Z   M 109.70 149.22   L 109.69 152.49   C 109.69 152.82 109.96 153.09 110.29 153.09   L 120.10 153.09   C 120.43 153.09 120.52 152.64 120.22 152.51   C 118.35 151.72 116.15 151.60 114.30 150.75   C 111.72 149.56 110.37 148.93 110.26 148.87   C 110.00 148.74 109.70 148.93 109.70 149.22   Z   M 214.11 154.71   C 213.87 154.71 213.67 154.91 213.67 155.15   C 213.66 160.82 213.06 166.28 211.87 171.54   C 211.80 171.84 211.92 172.15 212.17 172.33   L 225.07 181.54   C 225.20 181.64 225.39 181.59 225.46 181.44   C 229.27 173.02 231.24 164.20 231.37 154.99   C 231.37 154.84 231.25 154.71 231.10 154.71   L 214.11 154.71   Z   M 109.66 158.75   C 109.66 159.03 109.96 159.21 110.20 159.08   C 110.31 159.03 111.59 158.41 114.05 157.25   C 115.81 156.42 117.92 156.28 119.70 155.51   C 119.99 155.38 119.90 154.95 119.58 154.95   L 110.19 155.04   C 109.87 155.05 109.62 155.31 109.62 155.62   L 109.66 158.75   Z   M 191.66 155.40   L 191.66 160.92   C 191.66 161.25 191.86 161.55 192.17 161.67   C 192.61 161.85 195.90 163.31 202.05 166.06   C 204.94 167.35 206.62 168.57 209.37 170.52   C 209.68 170.74 210.10 170.55 210.14 170.18   L 211.83 155.62   C 211.88 155.16 211.53 154.76 211.07 154.76   L 192.30 154.76   C 191.95 154.76 191.66 155.05 191.66 155.40   Z   M 73.61 182.37   L 86.95 172.05   C 87.22 171.85 87.35 171.51 87.31 171.18   L 85.58 155.79   C 85.53 155.41 85.22 155.13 84.84 155.13   L 67.28 155.13   C 66.91 155.13 66.62 155.43 66.63 155.80   C 66.92 165.01 68.99 173.81 72.86 182.18   C 72.99 182.47 73.36 182.56 73.61 182.37   Z   M 89.48 169.38   C 89.53 169.78 89.99 169.98 90.32 169.74   C 94.50 166.65 100.00 163.59 106.81 160.56   C 107.12 160.42 107.33 160.11 107.33 159.76   L 107.32 155.57   C 107.32 155.27 107.07 155.03 106.77 155.03   L 88.47 155.06   C 88.11 155.06 87.83 155.38 87.87 155.74   L 89.48 169.38   Z   M 107.56 163.01   C 107.54 162.72 107.24 162.53 106.97 162.65   C 101.12 165.29 95.59 168.40 90.38 171.99   C 90.22 172.10 90.14 172.30 90.18 172.50   C 92.04 180.43 94.92 187.75 98.82 194.46   C 98.97 194.73 99.31 194.83 99.58 194.68   L 111.28 187.99   C 111.53 187.84 111.65 187.55 111.57 187.28   C 109.31 179.52 107.98 171.43 107.56 163.01   Z   M 191.93 163.89   C 191.69 163.80 191.42 163.97 191.40 164.23   C 190.90 172.13 189.61 179.74 187.54 187.06   C 187.48 187.28 187.57 187.52 187.76 187.63   L 200.19 194.75   C 200.34 194.84 200.53 194.79 200.62 194.64   C 204.37 188.18 207.24 181.09 209.22 173.37   C 209.30 173.04 209.17 172.69 208.90 172.50   C 204.19 169.25 198.54 166.38 191.93 163.89   Z   M 87.50 174.07   L 74.43 184.18   C 74.15 184.40 74.07 184.79 74.24 185.10   C 77.81 191.82 82.39 197.87 87.96 203.24   C 88.09 203.37 88.30 203.38 88.45 203.27   L 96.97 196.68   C 97.24 196.47 97.32 196.09 97.14 195.79   C 92.87 188.68 90.51 181.94 88.30 174.33   C 88.20 173.99 87.79 173.85 87.50 174.07   Z   M 211.10 174.39   C 209.27 182.20 206.41 189.31 202.52 195.72   C 202.40 195.93 202.46 196.19 202.65 196.33   L 210.52 202.19   C 210.67 202.29 210.86 202.28 210.98 202.16   C 216.35 196.86 220.77 190.92 224.24 184.33   C 224.38 184.05 224.31 183.71 224.06 183.53   L 211.55 174.23   C 211.38 174.10 211.14 174.19 211.10 174.39   Z   M 199.07 197.20   C 199.26 196.91 199.17 196.53 198.87 196.35   L 187.30 189.70   C 187.07 189.56 186.77 189.69 186.68 189.95   C 184.79 196.35 182.29 202.16 179.19 207.40   C 179.09 207.57 179.15 207.79 179.32 207.89   L 185.90 211.67   C 186.12 211.80 186.41 211.77 186.61 211.60   C 191.30 207.42 195.46 202.62 199.07 197.20   Z   M 200.71 198.37   C 200.55 198.76 200.30 199.21 199.96 199.71   C 196.59 204.70 192.80 208.99 188.58 212.58   C 188.19 212.91 188.33 213.55 188.83 213.69   C 190.08 214.02 190.79 214.49 190.94 215.09   C 191.25 216.32 190.80 216.71 189.60 216.27   C 188.71 215.94 188.07 215.49 187.68 214.92   C 187.29 214.37 186.52 214.27 186.01 214.70   C 182.07 218.07 177.37 220.87 171.90 223.09   C 170.03 223.84 168.69 224.42 167.86 224.83   C 167.76 224.88 167.71 224.99 167.75 225.10   C 167.78 225.20 167.89 225.26 168.00 225.24   C 183.77 221.83 197.50 214.76 209.19 204.03   C 209.33 203.91 209.32 203.68 209.17 203.57   L 201.55 198.13   C 201.26 197.92 200.85 198.04 200.71 198.37   Z   M 110.68 213.00   C 110.92 212.89 110.97 212.57 110.77 212.39   C 106.09 208.32 102.08 203.64 98.75 198.37   C 98.63 198.17 98.36 198.12 98.17 198.26   L 90.43 204.25   C 90.00 204.59 89.98 205.23 90.39 205.59   C 94.97 209.53 100.07 213.12 105.70 216.36   C 105.99 216.53 106.36 216.45 106.56 216.19   C 107.61 214.82 108.99 213.75 110.68 213.00   Z   M 131.02 222.07   C 130.58 221.54 129.62 220.66 128.13 219.42   C 125.29 217.05 122.62 213.06 120.75 209.90   C 120.61 209.67 120.32 209.58 120.07 209.70   L 114.78 212.49   C 114.60 212.59 114.58 212.84 114.73 212.97   C 119.45 216.85 124.81 219.97 130.84 222.33   C 130.99 222.39 131.13 222.20 131.02 222.07   Z   M 166.80 222.72   C 166.68 222.86 166.82 223.05 166.99 222.99   C 173.40 220.62 179.14 217.43 184.19 213.41   C 184.36 213.28 184.35 213.01 184.16 212.91   L 178.61 209.86   C 178.36 209.72 178.05 209.81 177.90 210.05   C 175.86 213.36 172.96 217.52 169.90 219.98   C 168.31 221.26 167.28 222.17 166.80 222.72   Z   M 134.12 225.67   C 134.20 225.44 134.06 225.18 133.82 225.12   C 126.07 223.12 119.09 219.44 112.87 214.09   C 112.74 213.97 112.54 213.96 112.40 214.07   L 107.88 217.31   C 107.82 217.36 107.83 217.45 107.90 217.48   C 115.95 221.43 124.52 224.27 133.59 226.00   C 133.82 226.04 134.05 225.91 134.12 225.69   L 134.12 225.67   Z" />
<path fill="#ffffff" d="   M 162.78 103.55   C 157.58 102.71 153.50 102.32 150.53 102.37   C 142.88 102.50 135.29 102.47 127.77 102.28   L 124.19 100.42   C 123.84 100.24 123.73 99.80 123.94 99.47   C 128.95 91.65 135.68 84.98 144.75 82.48   C 145.20 82.36 147.43 82.29 151.43 82.28   C 161.82 82.24 170.18 91.06 175.40 98.92   C 175.53 99.11 175.44 99.36 175.23 99.43   L 162.78 103.55   Z" />
<path fill="#ffffff" d="   M 134.51 84.66   C 133.96 85.27 132.77 86.27 130.95 87.67   C 127.46 90.36 124.10 94.97 121.73 98.64   C 121.56 98.91 121.20 99.00 120.92 98.84   L 114.76 95.28   C 114.55 95.16 114.53 94.86 114.73 94.71   C 120.51 90.32 127.03 86.86 134.30 84.35   C 134.49 84.29 134.64 84.51 134.51 84.66   Z" />
<path fill="#ffffff" d="   M 165.09 84.55   C 164.97 84.41 165.12 84.19 165.30 84.25   C 172.33 86.68 178.65 90.02 184.25 94.27   C 184.44 94.41 184.42 94.70 184.22 94.82   L 178.26 98.27   C 177.98 98.42 177.64 98.34 177.47 98.08   C 175.18 94.53 171.92 90.07 168.54 87.46   C 166.78 86.11 165.63 85.14 165.09 84.55   Z" />
<path fill="#ffffff" d="   M 126.60 85.28   C 121.19 87.83 116.73 90.54 113.21 93.41   C 112.79 93.75 112.20 93.76 111.77 93.45   L 109.43 91.78   C 109.04 91.50 109.11 90.89 109.56 90.72   L 126.56 84.27   C 126.58 84.26 126.60 84.28 126.61 84.30   L 126.80 84.79   C 126.87 84.98 126.79 85.19 126.60 85.28   Z" />
<path fill="#ffffff" d="   M 175.12 85.50   C 175.13 85.49 175.15 85.47 175.17 85.48   L 188.97 91.04   C 189.33 91.19 189.39 91.68 189.06 91.91   L 187.12 93.23   C 186.76 93.48 186.28 93.46 185.94 93.18   C 183.11 90.77 179.50 88.48 175.12 86.31   C 174.97 86.23 174.90 86.05 174.96 85.90   L 175.12 85.50   Z" />
<path fill="#ffffff" d="   M 110.58 95.72   C 106.25 99.54 102.35 104.10 98.87 109.39   C 98.70 109.65 98.33 109.71 98.08 109.52   L 90.93 104.02   C 90.66 103.81 90.64 103.40 90.90 103.17   C 95.57 99.10 100.71 95.56 106.34 92.54   C 106.71 92.35 107.15 92.38 107.47 92.63   L 110.55 94.99   C 110.78 95.17 110.80 95.52 110.58 95.72   Z" />
<path fill="#ffffff" d="   M 200.91 109.69   C 197.53 104.28 193.34 99.44 188.35 95.17   C 188.20 95.05 188.21 94.82 188.37 94.71   L 191.22 92.66   C 191.39 92.54 191.62 92.53 191.81 92.63   C 197.48 95.70 203.06 99.65 208.53 104.46   C 208.62 104.54 208.61 104.67 208.52 104.74   L 201.47 109.80   C 201.29 109.93 201.03 109.88 200.91 109.69   Z" />
<path fill="#ffffff" d="   M 198.84 111.53   L 187.27 118.21   C 187.04 118.35 186.73 118.23 186.65 117.96   C 184.74 111.56 182.23 105.74 179.11 100.51   C 179.01 100.34 179.07 100.12 179.24 100.02   L 185.82 96.22   C 186.05 96.09 186.33 96.12 186.53 96.29   C 191.24 100.47 195.41 105.27 199.04 110.68   C 199.23 110.97 199.14 111.36 198.84 111.53   Z" />
<path fill="#010001" d="   M 16.26 97.00   C 16.25 96.40 17.04 96.17 17.35 96.67   C 20.54 101.77 24.66 106.77 29.71 111.67   C 38.02 119.72 47.72 124.20 58.73 127.02   C 59.21 127.14 59.50 127.62 59.39 128.11   L 56.97 138.21   C 56.82 138.81 56.27 139.23 55.65 139.20   C 35.09 138.16 21.71 122.17 17.16 103.25   C 16.59 100.87 16.29 98.79 16.26 97.00   Z   M 18.15 100.84   C 18.03 100.82 17.93 100.93 17.96 101.04   C 21.02 112.65 25.67 122.91 35.62 130.63   C 40.55 134.45 46.89 136.83 54.66 137.77   C 55.12 137.83 55.56 137.53 55.67 137.07   L 57.74 128.99   C 57.85 128.56 57.59 128.12 57.17 128.02   C 40.81 123.96 28.29 114.73 18.91 101.39   C 18.68 101.07 18.43 100.89 18.15 100.84   Z" />
<path fill="#ffffff" d="   M 120.35 102.18   L 118.30 102.58   C 118.00 102.64 117.79 102.90 117.81 103.20   C 117.88 104.49 117.77 105.64 117.46 106.67   C 115.47 110.10 113.97 113.78 112.94 117.69   C 112.85 118.02 112.47 118.18 112.17 118.01   L 100.80 111.44   C 100.51 111.28 100.43 110.91 100.61 110.64   C 104.09 105.47 108.07 100.83 112.54 96.74   C 112.78 96.52 113.12 96.47 113.41 96.60   C 116.44 98.03 118.76 99.89 120.35 102.18   Z" />
<path fill="#010001" d="   M 283.61 97.02   C 283.58 98.81 283.28 100.89 282.71 103.27   C 278.14 122.19 264.75 138.18 244.18 139.20   C 243.56 139.23 243.01 138.81 242.86 138.21   L 240.45 128.10   C 240.33 127.62 240.63 127.13 241.11 127.01   C 252.12 124.20 261.83 119.73 270.15 111.68   C 275.20 106.79 279.33 101.79 282.52 96.69   C 282.84 96.18 283.62 96.42 283.61 97.02   Z   M 281.58 101.13   C 281.30 101.18 281.05 101.36 280.82 101.68   C 271.48 114.90 259.02 124.03 242.77 128.02   C 242.35 128.13 242.10 128.56 242.20 128.98   L 244.24 137.01   C 244.35 137.46 244.78 137.76 245.24 137.71   C 252.95 136.79 259.26 134.45 264.16 130.67   C 274.06 123.03 278.70 112.85 281.76 101.33   C 281.80 101.22 281.69 101.11 281.58 101.13   Z" />
<path fill="#ffffff" d="   M 18.15 100.84   C 18.43 100.89 18.68 101.07 18.91 101.39   C 28.29 114.73 40.81 123.96 57.17 128.02   C 57.59 128.12 57.85 128.56 57.74 128.99   L 55.67 137.07   C 55.56 137.53 55.12 137.83 54.66 137.77   C 46.89 136.83 40.55 134.45 35.62 130.63   C 25.67 122.91 21.02 112.65 17.96 101.04   C 17.93 100.93 18.03 100.82 18.15 100.84   Z" />
<path fill="#ffffff" d="   M 178.14 122.28   C 175.28 115.47 170.73 109.74 164.49 105.08   L 175.79 101.18   C 176.29 101.01 176.84 101.23 177.09 101.69   C 180.01 107.07 182.44 112.79 184.38 118.86   C 184.50 119.26 184.30 119.70 183.91 119.86   L 178.14 122.28   Z" />
<path fill="#ffffff" d="   M 281.58 101.13   C 281.69 101.11 281.80 101.22 281.76 101.33   C 278.70 112.85 274.06 123.03 264.16 130.67   C 259.26 134.45 252.95 136.79 245.24 137.71   C 244.78 137.76 244.35 137.46 244.24 137.01   L 242.20 128.98   C 242.10 128.56 242.35 128.13 242.77 128.02   C 259.02 124.03 271.48 114.90 280.82 101.68   C 281.05 101.36 281.30 101.18 281.58 101.13   Z" />
<path fill="#010001" d="   M 127.77 102.28   C 135.29 102.47 142.88 102.50 150.53 102.37   C 153.50 102.32 157.58 102.71 162.78 103.55   L 164.49 105.08   C 170.73 109.74 175.28 115.47 178.14 122.28   C 178.38 123.00 178.65 123.53 178.96 123.86   C 181.81 131.56 183.40 139.57 183.72 147.90   C 183.52 148.46 183.56 149.20 183.85 150.11   L 183.93 152.75   C 183.51 153.39 183.57 154.11 184.11 154.92   L 184.08 158.03   C 183.70 158.79 183.60 159.41 183.77 159.88   C 183.46 168.37 181.79 176.48 178.75 184.21   C 178.27 184.66 178.06 185.15 178.11 185.69   C 175.00 192.54 170.42 198.28 164.36 202.90   C 163.87 203.03 163.22 203.46 162.41 204.19   L 156.64 206.16   C 156.21 206.31 155.76 206.39 155.31 206.39   L 125.04 206.48   C 122.23 205.92 120.40 206.04 119.56 206.83   C 118.40 206.01 117.69 204.89 117.44 203.46   C 118.21 201.37 118.35 199.58 117.86 198.11   L 117.81 186.97   C 117.52 186.36 117.10 185.96 116.57 185.75   C 118.27 184.60 120.13 184.04 122.16 184.07   C 122.57 184.08 122.90 183.75 122.91 183.34   L 123.20 156.53   L 123.25 151.25   L 123.38 124.60   C 123.38 124.23 123.07 123.93 122.70 123.96   C 120.63 124.12 118.74 123.62 117.03 122.46   L 117.77 120.81   L 117.87 112.16   C 118.32 110.59 118.18 108.76 117.46 106.67   C 117.77 105.64 117.88 104.49 117.81 103.20   C 117.79 102.90 118.00 102.64 118.30 102.58   L 120.35 102.18   C 121.71 103.01 124.18 103.05 127.77 102.28   Z   M 120.51 105.92   L 120.51 119.79   C 120.51 120.40 121.00 120.89 121.61 120.89   L 123.85 120.89   C 124.92 120.89 125.79 121.76 125.79 122.83   L 125.79 185.53   C 125.79 186.42 125.07 187.14 124.18 187.14   L 120.98 187.14   C 120.70 187.14 120.48 187.37 120.48 187.65   L 120.48 202.49   C 120.48 203.14 121.02 203.67 121.67 203.66   C 129.27 203.56 137.44 203.55 146.19 203.62   C 154.35 203.69 159.14 203.87 164.45 199.41   C 181.12 185.40 183.04 160.63 180.43 140.65   C 179.30 132.00 176.71 124.20 172.67 117.26   C 170.18 112.98 166.16 109.42 162.20 106.86   C 161.17 106.20 160.01 105.78 158.79 105.66   C 152.15 104.99 145.90 105.06 135.12 104.96   C 133.11 104.95 130.78 105.04 128.13 105.25   C 126.92 105.35 124.60 105.36 121.17 105.27   C 120.81 105.26 120.51 105.56 120.51 105.92   Z" />
<path fill="#e22f41" d="   M 121.17 105.27   C 124.60 105.36 126.92 105.35 128.13 105.25   C 130.78 105.04 133.11 104.95 135.12 104.96   C 145.90 105.06 152.15 104.99 158.79 105.66   C 160.01 105.78 161.17 106.20 162.20 106.86   C 166.16 109.42 170.18 112.98 172.67 117.26   C 176.71 124.20 179.30 132.00 180.43 140.65   C 183.04 160.63 181.12 185.40 164.45 199.41   C 159.14 203.87 154.35 203.69 146.19 203.62   C 137.44 203.55 129.27 203.56 121.67 203.66   C 121.02 203.67 120.48 203.14 120.48 202.49   L 120.48 187.65   C 120.48 187.37 120.70 187.14 120.98 187.14   L 124.18 187.14   C 125.07 187.14 125.79 186.42 125.79 185.53   L 125.79 122.83   C 125.79 121.76 124.92 120.89 123.85 120.89   L 121.61 120.89   C 121.00 120.89 120.51 120.40 120.51 119.79   L 120.51 105.92   C 120.51 105.56 120.81 105.26 121.17 105.27   Z   M 150.36 182.12   C 155.90 182.14 160.81 182.19 165.08 182.26   C 165.55 182.26 165.94 181.88 165.94 181.41   L 165.94 171.34   C 165.94 170.75 165.52 170.24 164.94 170.11   C 163.88 169.88 163.28 169.65 163.14 169.42   C 162.99 169.16 162.91 168.88 162.88 168.59   C 162.01 158.96 161.27 149.81 160.66 141.15   C 160.62 140.58 160.84 140.21 161.33 140.04   C 162.28 139.71 162.69 138.90 162.64 137.80   C 162.42 133.79 162.40 129.59 162.58 125.20   C 162.61 124.40 162.00 123.73 161.21 123.69   C 160.94 123.67 157.40 123.65 150.56 123.63   C 143.73 123.60 140.18 123.60 139.92 123.61   C 139.13 123.65 138.52 124.32 138.54 125.12   C 138.69 129.51 138.64 133.71 138.39 137.72   C 138.33 138.82 138.74 139.63 139.69 139.97   C 140.17 140.14 140.39 140.51 140.35 141.08   C 139.68 149.74 138.88 158.88 137.94 168.50   C 137.91 168.79 137.82 169.08 137.67 169.33   C 137.53 169.56 136.93 169.78 135.87 170.01   C 135.28 170.13 134.87 170.64 134.86 171.23   L 134.79 181.30   C 134.79 181.78 135.17 182.16 135.65 182.16   C 139.92 182.12 144.83 182.10 150.36 182.12   Z" />
<path fill="#ffffff" d="   M 88.14 133.75   C 88.09 133.96 87.84 134.04 87.67 133.91   L 74.95 124.13   C 74.70 123.93 74.62 123.58 74.77 123.30   C 78.46 116.57 83.11 110.53 88.72 105.16   C 88.85 105.04 89.05 105.03 89.19 105.14   L 97.20 111.30   C 97.40 111.45 97.45 111.72 97.32 111.93   C 93.21 118.46 90.15 125.74 88.14 133.75   Z" />
<path fill="#ffffff" d="   M 211.05 133.16   C 209.32 125.71 206.46 118.71 202.46 112.16   C 202.30 111.89 202.37 111.55 202.62 111.38   L 209.60 106.37   C 209.85 106.18 210.20 106.21 210.43 106.42   C 215.30 111.05 219.66 116.80 223.49 123.69   C 223.79 124.22 223.64 124.89 223.14 125.24   L 211.75 133.43   C 211.49 133.62 211.12 133.47 211.05 133.16   Z" />
<path fill="#ffffff" d="   M 117.87 112.16   L 117.77 120.81   C 116.86 120.67 116.05 120.27 115.34 119.61   C 115.11 119.39 115.01 119.07 115.08 118.77   C 115.60 116.43 116.53 114.23 117.87 112.16   Z" />
<path fill="#ffffff" d="   M 107.09 145.33   C 101.22 142.66 95.68 139.52 90.47 135.89   C 90.31 135.77 90.23 135.57 90.27 135.38   C 92.17 127.43 95.09 120.09 99.03 113.36   C 99.18 113.09 99.53 113.00 99.80 113.15   L 111.52 119.91   C 111.77 120.06 111.88 120.35 111.80 120.62   C 109.51 128.40 108.13 136.52 107.68 144.97   C 107.66 145.26 107.36 145.45 107.09 145.33   Z" />
<path fill="#ffffff" d="   M 191.46 143.69   C 190.93 135.79 189.62 128.18 187.53 120.87   C 187.47 120.65 187.56 120.41 187.75 120.30   L 200.16 113.14   C 200.31 113.05 200.50 113.10 200.59 113.25   C 204.36 119.70 207.24 126.78 209.25 134.50   C 209.33 134.83 209.21 135.18 208.93 135.37   C 204.24 138.63 198.59 141.52 191.99 144.03   C 191.74 144.12 191.48 143.95 191.46 143.69   Z" />
<path fill="#ffffff" d="   M 117.03 122.46   C 118.74 123.62 120.63 124.12 122.70 123.96   C 123.07 123.93 123.38 124.23 123.38 124.60   L 123.25 151.25   C 118.82 150.32 114.56 148.87 110.47 146.90   C 110.17 146.75 110.00 146.44 110.02 146.11   C 110.62 137.99 111.98 129.99 114.09 122.10   C 114.17 121.81 114.44 121.62 114.74 121.64   C 115.40 121.69 116.16 121.96 117.03 122.46   Z" />
<path fill="#ffffff" d="   M 183.72 147.90   C 183.40 139.57 181.81 131.56 178.96 123.86   L 184.72 121.70   C 184.97 121.60 185.25 121.75 185.31 122.01   C 187.22 129.47 188.47 137.04 189.05 144.73   C 189.07 145.03 188.91 145.32 188.64 145.45   L 183.72 147.90   Z" />
<path fill="#010001" d="   M 150.56 123.63   C 157.40 123.65 160.94 123.67 161.21 123.69   C 162.00 123.73 162.61 124.40 162.58 125.20   C 162.40 129.59 162.42 133.79 162.64 137.80   C 162.69 138.90 162.28 139.71 161.33 140.04   C 160.84 140.21 160.62 140.58 160.66 141.15   C 161.27 149.81 162.01 158.96 162.88 168.59   C 162.91 168.88 162.99 169.16 163.14 169.42   C 163.28 169.65 163.88 169.88 164.94 170.11   C 165.52 170.24 165.94 170.75 165.94 171.34   L 165.94 181.41   C 165.94 181.88 165.55 182.26 165.08 182.26   C 160.81 182.19 155.90 182.14 150.36 182.12   C 144.83 182.10 139.92 182.12 135.65 182.16   C 135.17 182.16 134.79 181.78 134.79 181.30   L 134.86 171.23   C 134.87 170.64 135.28 170.13 135.87 170.01   C 136.93 169.78 137.53 169.56 137.67 169.33   C 137.82 169.08 137.91 168.79 137.94 168.50   C 138.88 158.88 139.68 149.74 140.35 141.08   C 140.39 140.51 140.17 140.14 139.69 139.97   C 138.74 139.63 138.33 138.82 138.39 137.72   C 138.64 133.71 138.69 129.51 138.54 125.12   C 138.52 124.32 139.13 123.65 139.92 123.61   C 140.18 123.60 143.73 123.60 150.56 123.63   Z   M 160.35 124.88   L 155.96 124.88   C 155.49 124.88 155.11 125.26 155.11 125.73   L 155.11 131.05   C 155.11 131.39 154.84 131.66 154.51 131.66   L 154.07 131.66   C 153.72 131.66 153.44 131.38 153.44 131.03   L 153.44 125.85   C 153.44 125.37 153.05 124.98 152.57 124.98   L 148.90 124.98   C 148.37 124.98 147.94 125.41 147.94 125.94   L 147.94 131.35   C 147.94 131.63 147.72 131.85 147.44 131.85   L 147.07 131.85   C 146.51 131.85 146.06 131.40 146.06 130.84   L 146.06 126.26   C 146.06 125.62 145.54 125.10 144.90 125.10   L 141.33 125.10   C 140.63 125.10 140.07 125.66 140.06 126.35   C 140.03 131.19 140.00 135.01 139.96 137.81   C 139.95 138.40 140.23 138.73 140.80 138.82   C 141.57 138.94 141.93 139.45 141.87 140.36   C 141.40 147.19 140.50 156.82 139.17 169.25   C 139.04 170.53 138.57 171.21 137.78 171.28   C 137.02 171.34 136.42 171.96 136.38 172.73   L 136.02 179.66   C 135.99 180.28 136.48 180.79 137.09 180.79   L 163.72 180.79   C 164.24 180.79 164.66 180.36 164.66 179.84   L 164.66 172.29   C 164.66 171.50 163.94 170.90 163.17 171.05   C 162.16 171.24 161.61 170.78 161.52 169.69   C 160.57 157.31 159.79 147.38 159.19 139.91   C 159.15 139.47 159.43 139.06 159.85 138.92   C 160.43 138.73 160.89 138.40 161.24 137.95   C 161.39 137.74 161.47 137.49 161.46 137.24   L 161.03 125.54   C 161.02 125.17 160.72 124.88 160.35 124.88   Z" />
<path fill="#349623" d="   M 160.35 124.88   C 160.72 124.88 161.02 125.17 161.03 125.54   L 161.46 137.24   C 161.47 137.49 161.39 137.74 161.24 137.95   C 160.89 138.40 160.43 138.73 159.85 138.92   C 159.43 139.06 159.15 139.47 159.19 139.91   C 159.79 147.38 160.57 157.31 161.52 169.69   C 161.61 170.78 162.16 171.24 163.17 171.05   C 163.94 170.90 164.66 171.50 164.66 172.29   L 164.66 179.84   C 164.66 180.36 164.24 180.79 163.72 180.79   L 137.09 180.79   C 136.48 180.79 135.99 180.28 136.02 179.66   L 136.38 172.73   C 136.42 171.96 137.02 171.34 137.78 171.28   C 138.57 171.21 139.04 170.53 139.17 169.25   C 140.50 156.82 141.40 147.19 141.87 140.36   C 141.93 139.45 141.57 138.94 140.80 138.82   C 140.23 138.73 139.95 138.40 139.96 137.81   C 140.00 135.01 140.03 131.19 140.06 126.35   C 140.07 125.66 140.63 125.10 141.33 125.10   L 144.90 125.10   C 145.54 125.10 146.06 125.62 146.06 126.26   L 146.06 130.84   C 146.06 131.40 146.51 131.85 147.07 131.85   L 147.44 131.85   C 147.72 131.85 147.94 131.63 147.94 131.35   L 147.94 125.94   C 147.94 125.41 148.37 124.98 148.90 124.98   L 152.57 124.98   C 153.05 124.98 153.44 125.37 153.44 125.85   L 153.44 131.03   C 153.44 131.38 153.72 131.66 154.07 131.66   L 154.51 131.66   C 154.84 131.66 155.11 131.39 155.11 131.05   L 155.11 125.73   C 155.11 125.26 155.49 124.88 155.96 124.88   L 160.35 124.88   Z   M 148.11 158.51   C 147.78 161.96 147.35 168.25 145.56 173.98   C 145.43 174.41 145.75 174.84 146.19 174.84   L 154.94 174.84   C 155.38 174.84 155.68 174.40 155.51 173.99   C 153.47 169.06 152.52 163.90 152.65 158.50   C 152.66 158.09 153.18 157.91 153.44 158.24   L 154.64 159.80   C 154.98 160.23 155.67 160.00 155.67 159.45   L 155.67 150.91   C 155.67 150.73 155.61 150.56 155.50 150.42   L 155.03 149.81   C 154.79 149.50 154.69 149.10 154.75 148.71   C 155.33 145.30 155.32 138.60 151.63 136.75   C 150.61 136.24 149.36 136.54 148.65 137.47   C 145.98 140.94 146.02 145.27 146.61 149.48   C 146.66 149.80 146.43 150.09 146.11 150.11   C 145.29 150.17 144.88 150.53 144.87 151.18   C 144.85 155.46 144.81 158.06 144.75 158.98   C 144.71 159.59 145.41 159.95 145.89 159.58   L 147.62 158.24   C 147.83 158.07 148.14 158.24 148.11 158.51   Z" />
<path fill="#ffffff" d="   M 74.02 125.79   L 87.18 136.28   C 87.45 136.49 87.58 136.83 87.53 137.16   L 85.58 152.49   C 85.53 152.87 85.21 153.15 84.83 153.14   L 67.31 152.89   C 66.94 152.89 66.65 152.58 66.67 152.21   C 67.09 143.02 69.29 134.27 73.26 125.97   C 73.40 125.68 73.77 125.60 74.02 125.79   Z" />
<path fill="#ffffff" d="   M 214.22 152.86   C 213.98 152.87 213.79 152.68 213.78 152.44   C 213.69 146.91 213.03 141.60 211.80 136.48   C 211.73 136.20 211.84 135.89 212.08 135.71   L 224.53 126.55   C 224.66 126.45 224.84 126.50 224.91 126.64   C 228.74 134.80 230.78 143.37 231.04 152.35   C 231.04 152.50 230.93 152.62 230.78 152.63   L 214.22 152.86   Z" />
<path fill="#010001" d="   M 55.99 158.44   C 56.08 159.05 55.62 159.59 55.01 159.60   C 36.67 159.84 22.62 146.34 16.09 130.19   C 15.97 129.89 16.18 129.56 16.51 129.55   C 16.88 129.54 17.18 129.63 17.41 129.81   C 28.80 139.16 40.52 144.42 54.94 144.61   C 55.46 144.62 55.87 145.07 55.82 145.59   C 55.34 150.28 55.40 154.56 55.99 158.44   Z   M 19.36 133.36   C 19.21 133.26 19.03 133.42 19.11 133.57   C 26.27 147.53 37.59 157.18 53.70 158.16   C 53.95 158.18 54.16 157.98 54.16 157.73   L 54.16 146.53   C 54.16 146.28 53.96 146.08 53.71 146.08   C 44.12 146.01 34.05 142.80 25.99 137.73   C 24.37 136.71 22.16 135.25 19.36 133.36   Z" />
<path fill="#010001" d="   M 243.84 158.47   C 244.43 154.58 244.49 150.29 244.01 145.59   C 243.96 145.07 244.36 144.62 244.89 144.61   C 259.34 144.41 271.08 139.14 282.50 129.77   C 282.73 129.58 283.03 129.50 283.40 129.51   C 283.72 129.52 283.94 129.85 283.82 130.15   C 277.28 146.33 263.20 159.87 244.82 159.63   C 244.21 159.62 243.75 159.07 243.84 158.47   Z   M 280.53 133.33   C 277.74 135.23 275.53 136.69 273.91 137.71   C 265.86 142.78 255.79 146.00 246.20 146.08   C 245.96 146.08 245.75 146.28 245.75 146.53   L 245.76 157.73   C 245.76 157.98 245.97 158.17 246.22 158.16   C 262.33 157.16 273.64 147.51 280.78 133.54   C 280.86 133.39 280.68 133.24 280.53 133.33   Z" />
<path fill="#ffffff" d="   M 19.36 133.36   C 22.16 135.25 24.37 136.71 25.99 137.73   C 34.05 142.80 44.12 146.01 53.71 146.08   C 53.96 146.08 54.16 146.28 54.16 146.53   L 54.16 157.73   C 54.16 157.98 53.95 158.18 53.70 158.16   C 37.59 157.18 26.27 147.53 19.11 133.57   C 19.03 133.42 19.21 133.26 19.36 133.36   Z" />
<path fill="#ffffff" d="   M 280.53 133.33   C 280.68 133.24 280.86 133.39 280.78 133.54   C 273.64 147.51 262.33 157.16 246.22 158.16   C 245.97 158.17 245.76 157.98 245.76 157.73   L 245.75 146.53   C 245.75 146.28 245.96 146.08 246.20 146.08   C 255.79 146.00 265.86 142.78 273.91 137.71   C 275.53 136.69 277.74 135.23 280.53 133.33   Z" />
<path fill="#fff133" d="   M 147.62 158.24   L 145.89 159.58   C 145.41 159.95 144.71 159.59 144.75 158.98   C 144.81 158.06 144.85 155.46 144.87 151.18   C 144.88 150.53 145.29 150.17 146.11 150.11   C 146.43 150.09 146.66 149.80 146.61 149.48   C 146.02 145.27 145.98 140.94 148.65 137.47   C 149.36 136.54 150.61 136.24 151.63 136.75   C 155.32 138.60 155.33 145.30 154.75 148.71   C 154.69 149.10 154.79 149.50 155.03 149.81   L 155.50 150.42   C 155.61 150.56 155.67 150.73 155.67 150.91   L 155.67 159.45   C 155.67 160.00 154.98 160.23 154.64 159.80   L 153.44 158.24   C 153.18 157.91 152.66 158.09 152.65 158.50   C 152.52 163.90 153.47 169.06 155.51 173.99   C 155.68 174.40 155.38 174.84 154.94 174.84   L 146.19 174.84   C 145.75 174.84 145.43 174.41 145.56 173.98   C 147.35 168.25 147.78 161.96 148.11 158.51   C 148.14 158.24 147.83 158.07 147.62 158.24   Z   M 150.3547 140.2701   C 149.91 140.27 149.56 142.54 149.5800 145.3357   C 149.60 148.13 149.98 150.39 150.4253 150.3899   C 150.87 150.39 151.22 148.12 151.2000 145.3243   C 151.18 142.53 150.80 140.27 150.3547 140.2701   Z" />
<path fill="#ffffff" d="   M 191.81 152.19   L 191.82 146.74   C 191.82 146.41 192.02 146.12 192.32 146.00   C 192.76 145.82 196.01 144.38 202.09 141.67   C 204.94 140.40 206.60 139.20 209.32 137.28   C 209.62 137.07 210.04 137.25 210.08 137.62   L 211.73 152.00   C 211.78 152.45 211.43 152.84 210.98 152.84   L 192.44 152.82   C 192.09 152.82 191.81 152.54 191.81 152.19   Z" />
<path fill="#ffffff" d="   M 90.33 138.21   C 94.54 141.32 100.08 144.39 106.94 147.42   C 107.26 147.56 107.46 147.88 107.46 148.23   L 107.46 152.44   C 107.46 152.74 107.21 152.99 106.91 152.99   L 88.50 152.99   C 88.13 152.99 87.85 152.67 87.89 152.30   L 89.49 138.58   C 89.53 138.17 90.00 137.97 90.33 138.21   Z" />
<path fill="#349623" d="   M 150.3547 140.2701   C 150.80 140.27 151.18 142.53 151.2000 145.3243   C 151.22 148.12 150.87 150.39 150.4253 150.3899   C 149.98 150.39 149.60 148.13 149.5800 145.3357   C 149.56 142.54 149.91 140.27 150.3547 140.2701   Z" />
<path fill="#ffffff" d="   M 183.93 152.75   L 183.85 150.11   L 188.82 147.65   C 189.10 147.51 189.44 147.71 189.44 148.03   L 189.44 152.13   C 189.44 152.50 189.13 152.81 188.76 152.80   L 183.93 152.75   Z" />
<path fill="#ffffff" d="   M 110.26 148.87   C 110.37 148.93 111.72 149.56 114.30 150.75   C 116.15 151.60 118.35 151.72 120.22 152.51   C 120.52 152.64 120.43 153.09 120.10 153.09   L 110.29 153.09   C 109.96 153.09 109.69 152.82 109.69 152.49   L 109.70 149.22   C 109.70 148.93 110.00 148.74 110.26 148.87   Z" />
<path fill="#ffffff" d="   M 214.11 154.71   L 231.10 154.71   C 231.25 154.71 231.37 154.84 231.37 154.99   C 231.24 164.20 229.27 173.02 225.46 181.44   C 225.39 181.59 225.20 181.64 225.07 181.54   L 212.17 172.33   C 211.92 172.15 211.80 171.84 211.87 171.54   C 213.06 166.28 213.66 160.82 213.67 155.15   C 213.67 154.91 213.87 154.71 214.11 154.71   Z" />
<path fill="#ffffff" d="   M 109.66 158.75   L 109.62 155.62   C 109.62 155.31 109.87 155.05 110.19 155.04   L 119.58 154.95   C 119.90 154.95 119.99 155.38 119.70 155.51   C 117.92 156.28 115.81 156.42 114.05 157.25   C 111.59 158.41 110.31 159.03 110.20 159.08   C 109.96 159.21 109.66 159.03 109.66 158.75   Z" />
<path fill="#ffffff" d="   M 184.08 158.03   L 184.11 154.92   L 189.12 154.78   C 189.26 154.77 189.38 154.89 189.38 155.03   L 189.38 160.11   C 189.38 160.28 189.20 160.40 189.05 160.33   L 184.08 158.03   Z" />
<path fill="#ffffff" d="   M 192.30 154.76   L 211.07 154.76   C 211.53 154.76 211.88 155.16 211.83 155.62   L 210.14 170.18   C 210.10 170.55 209.68 170.74 209.37 170.52   C 206.62 168.57 204.94 167.35 202.05 166.06   C 195.90 163.31 192.61 161.85 192.17 161.67   C 191.86 161.55 191.66 161.25 191.66 160.92   L 191.66 155.40   C 191.66 155.05 191.95 154.76 192.30 154.76   Z" />
<path fill="#ffffff" d="   M 73.61 182.37   C 73.36 182.56 72.99 182.47 72.86 182.18   C 68.99 173.81 66.92 165.01 66.63 155.80   C 66.62 155.43 66.91 155.13 67.28 155.13   L 84.84 155.13   C 85.22 155.13 85.53 155.41 85.58 155.79   L 87.31 171.18   C 87.35 171.51 87.22 171.85 86.95 172.05   L 73.61 182.37   Z" />
<path fill="#ffffff" d="   M 89.48 169.38   L 87.87 155.74   C 87.83 155.38 88.11 155.06 88.47 155.06   L 106.77 155.03   C 107.07 155.03 107.32 155.27 107.32 155.57   L 107.33 159.76   C 107.33 160.11 107.12 160.42 106.81 160.56   C 100.00 163.59 94.50 166.65 90.32 169.74   C 89.99 169.98 89.53 169.78 89.48 169.38   Z" />
<path fill="#010001" d="   M 20.50 155.40   C 27.91 158.94 34.97 161.60 42.86 162.58   C 46.80 163.07 51.44 162.78 55.42 163.24   C 55.88 163.29 56.25 163.63 56.35 164.07   L 59.47 177.17   C 59.59 177.67 59.22 178.16 58.70 178.19   C 42.80 178.89 28.33 169.55 19.68 156.33   C 19.32 155.79 19.91 155.12 20.50 155.40   Z   M 22.90 158.08   C 22.66 157.96 22.43 158.25 22.59 158.46   C 24.78 161.31 27.64 164.18 31.15 167.06   C 38.71 173.27 47.42 176.51 57.28 176.76   C 57.56 176.77 57.77 176.51 57.70 176.24   L 55.05 165.07   C 55.00 164.84 54.80 164.67 54.56 164.65   C 50.43 164.30 45.96 164.50 41.49 163.86   C 35.10 162.95 28.91 161.02 22.90 158.08   Z" />
<path fill="#010001" d="   M 279.39 155.38   C 279.98 155.10 280.57 155.77 280.21 156.31   C 271.57 169.54 257.10 178.89 241.19 178.20   C 240.67 178.17 240.30 177.68 240.42 177.18   L 243.54 164.07   C 243.64 163.63 244.01 163.30 244.46 163.24   C 248.45 162.78 253.09 163.07 257.03 162.58   C 264.92 161.59 271.98 158.93 279.39 155.38   Z   M 276.86 158.17   C 270.88 161.09 264.71 163.00 258.36 163.90   C 253.91 164.53 249.46 164.33 245.35 164.67   C 245.11 164.70 244.92 164.86 244.86 165.09   L 242.21 176.20   C 242.15 176.47 242.36 176.73 242.63 176.72   C 252.44 176.48 261.11 173.27 268.64 167.10   C 272.14 164.23 274.98 161.38 277.17 158.55   C 277.33 158.34 277.10 158.05 276.86 158.17   Z" />
<path fill="#ffffff" d="   M 123.20 156.53   L 122.91 183.34   C 122.90 183.75 122.57 184.08 122.16 184.07   C 120.13 184.04 118.27 184.60 116.57 185.75   L 114.18 186.56   C 113.89 186.65 113.59 186.49 113.52 186.20   C 111.50 178.20 110.26 170.02 109.81 161.67   C 109.80 161.47 109.91 161.29 110.09 161.20   C 111.97 160.25 114.44 159.05 116.92 158.37   C 119.01 157.80 121.10 157.18 123.20 156.53   Z" />
<path fill="#ffffff" d="   M 22.90 158.08   C 28.91 161.02 35.10 162.95 41.49 163.86   C 45.96 164.50 50.43 164.30 54.56 164.65   C 54.80 164.67 55.00 164.84 55.05 165.07   L 57.70 176.24   C 57.77 176.51 57.56 176.77 57.28 176.76   C 47.42 176.51 38.71 173.27 31.15 167.06   C 27.64 164.18 24.78 161.31 22.59 158.46   C 22.43 158.25 22.66 157.96 22.90 158.08   Z" />
<path fill="#ffffff" d="   M 276.86 158.17   C 277.10 158.05 277.33 158.34 277.17 158.55   C 274.98 161.38 272.14 164.23 268.64 167.10   C 261.11 173.27 252.44 176.48 242.63 176.72   C 242.36 176.73 242.15 176.47 242.21 176.20   L 244.86 165.09   C 244.92 164.86 245.11 164.70 245.35 164.67   C 249.46 164.33 253.91 164.53 258.36 163.90   C 264.71 163.00 270.88 161.09 276.86 158.17   Z" />
<path fill="#ffffff" d="   M 178.75 184.21   C 181.79 176.48 183.46 168.37 183.77 159.88   L 188.66 162.41   C 188.93 162.55 189.09 162.84 189.07 163.15   C 188.44 170.98 187.16 178.64 185.23 186.12   C 185.19 186.31 184.98 186.40 184.81 186.30   C 182.92 185.18 180.90 184.48 178.75 184.21   Z" />
<path fill="#ffffff" d="   M 107.56 163.01   C 107.98 171.43 109.31 179.52 111.57 187.28   C 111.65 187.55 111.53 187.84 111.28 187.99   L 99.58 194.68   C 99.31 194.83 98.97 194.73 98.82 194.46   C 94.92 187.75 92.04 180.43 90.18 172.50   C 90.14 172.30 90.22 172.10 90.38 171.99   C 95.59 168.40 101.12 165.29 106.97 162.65   C 107.24 162.53 107.54 162.72 107.56 163.01   Z" />
<path fill="#ffffff" d="   M 191.93 163.89   C 198.54 166.38 204.19 169.25 208.90 172.50   C 209.17 172.69 209.30 173.04 209.22 173.37   C 207.24 181.09 204.37 188.18 200.62 194.64   C 200.53 194.79 200.34 194.84 200.19 194.75   L 187.76 187.63   C 187.57 187.52 187.48 187.28 187.54 187.06   C 189.61 179.74 190.90 172.13 191.40 164.23   C 191.42 163.97 191.69 163.80 191.93 163.89   Z" />
<path fill="#ffffff" d="   M 88.30 174.33   C 90.51 181.94 92.87 188.68 97.14 195.79   C 97.32 196.09 97.24 196.47 96.97 196.68   L 88.45 203.27   C 88.30 203.38 88.09 203.37 87.96 203.24   C 82.39 197.87 77.81 191.82 74.24 185.10   C 74.07 184.79 74.15 184.40 74.43 184.18   L 87.50 174.07   C 87.79 173.85 88.20 173.99 88.30 174.33   Z" />
<path fill="#ffffff" d="   M 211.10 174.39   C 211.14 174.19 211.38 174.10 211.55 174.23   L 224.06 183.53   C 224.31 183.71 224.38 184.05 224.24 184.33   C 220.77 190.92 216.35 196.86 210.98 202.16   C 210.86 202.28 210.67 202.29 210.52 202.19   L 202.65 196.33   C 202.46 196.19 202.40 195.93 202.52 195.72   C 206.41 189.31 209.27 182.20 211.10 174.39   Z" />
<path fill="#ffffff" d="   M 178.11 185.69   L 183.95 188.04   C 184.33 188.19 184.53 188.61 184.41 189.00   C 182.50 195.06 180.06 200.88 177.09 206.47   C 176.95 206.74 176.64 206.86 176.36 206.77   L 164.36 202.90   C 170.42 198.28 175.00 192.54 178.11 185.69   Z" />
<path fill="#ffffff" d="   M 117.81 186.97   L 117.86 198.11   L 114.27 189.36   C 114.15 189.07 114.28 188.73 114.56 188.60   L 117.81 186.97   Z" />
<path fill="#ffffff" d="   M 199.07 197.20   C 195.46 202.62 191.30 207.42 186.61 211.60   C 186.41 211.77 186.12 211.80 185.90 211.67   L 179.32 207.89   C 179.15 207.79 179.09 207.57 179.19 207.40   C 182.29 202.16 184.79 196.35 186.68 189.95   C 186.77 189.69 187.07 189.56 187.30 189.70   L 198.87 196.35   C 199.17 196.53 199.26 196.91 199.07 197.20   Z" />
<path fill="#ffffff" d="   M 117.44 203.46   C 117.69 204.89 118.40 206.01 119.56 206.83   L 113.32 211.18   C 113.06 211.37 112.70 211.35 112.46 211.13   C 107.88 206.90 103.93 202.29 100.60 197.31   C 100.40 197.00 100.49 196.59 100.81 196.41   L 111.81 190.05   C 111.96 189.97 112.14 190.05 112.19 190.21   C 113.46 194.81 115.21 199.23 117.44 203.46   Z" />
<path fill="#ffffff" d="   M 201.55 198.13   L 209.17 203.57   C 209.32 203.68 209.33 203.91 209.19 204.03   C 197.50 214.76 183.77 221.83 168.00 225.24   C 167.89 225.26 167.78 225.20 167.75 225.10   C 167.71 224.99 167.76 224.88 167.86 224.83   C 168.69 224.42 170.03 223.84 171.90 223.09   C 177.37 220.87 182.07 218.07 186.01 214.70   C 186.52 214.27 187.29 214.37 187.68 214.92   C 188.07 215.49 188.71 215.94 189.60 216.27   C 190.80 216.71 191.25 216.32 190.94 215.09   C 190.79 214.49 190.08 214.02 188.83 213.69   C 188.33 213.55 188.19 212.91 188.58 212.58   C 192.80 208.99 196.59 204.70 199.96 199.71   C 200.30 199.21 200.55 198.76 200.71 198.37   C 200.85 198.04 201.26 197.92 201.55 198.13   Z" />
<path fill="#ffffff" d="   M 110.68 213.00   C 108.99 213.75 107.61 214.82 106.56 216.19   C 106.36 216.45 105.99 216.53 105.70 216.36   C 100.07 213.12 94.97 209.53 90.39 205.59   C 89.98 205.23 90.00 204.59 90.43 204.25   L 98.17 198.26   C 98.36 198.12 98.63 198.17 98.75 198.37   C 102.08 203.64 106.09 208.32 110.77 212.39   C 110.97 212.57 110.92 212.89 110.68 213.00   Z" />
<path fill="#ffffff" d="   M 162.41 204.19   L 174.76 208.14   C 175.38 208.34 175.63 209.08 175.26 209.61   C 171.01 215.66 166.91 220.46 160.42 224.27   C 159.76 224.65 159.03 224.91 158.28 225.02   C 151.53 226.03 145.06 225.90 138.88 224.62   C 137.63 224.37 135.44 222.88 132.32 220.16   C 128.87 217.15 125.79 213.46 123.09 209.09   C 122.92 208.83 122.92 208.49 123.08 208.21   C 123.41 207.64 124.07 207.07 125.04 206.48   L 155.31 206.39   C 155.76 206.39 156.21 206.31 156.64 206.16   L 162.41 204.19   Z" />
<path fill="#ffffff" d="   M 131.02 222.07   C 131.13 222.20 130.99 222.39 130.84 222.33   C 124.81 219.97 119.45 216.85 114.73 212.97   C 114.58 212.84 114.60 212.59 114.78 212.49   L 120.07 209.70   C 120.32 209.58 120.61 209.67 120.75 209.90   C 122.62 213.06 125.29 217.05 128.13 219.42   C 129.62 220.66 130.58 221.54 131.02 222.07   Z" />
<path fill="#ffffff" d="   M 166.80 222.72   C 167.28 222.17 168.31 221.26 169.90 219.98   C 172.96 217.52 175.86 213.36 177.90 210.05   C 178.05 209.81 178.36 209.72 178.61 209.86   L 184.16 212.91   C 184.35 213.01 184.36 213.28 184.19 213.41   C 179.14 217.43 173.40 220.62 166.99 222.99   C 166.82 223.05 166.68 222.86 166.80 222.72   Z" />
<path fill="#ffffff" d="   M 134.12 225.67   L 134.12 225.69   C 134.05 225.91 133.82 226.04 133.59 226.00   C 124.52 224.27 115.95 221.43 107.90 217.48   C 107.83 217.45 107.82 217.36 107.88 217.31   L 112.40 214.07   C 112.54 213.96 112.74 213.97 112.87 214.09   C 119.09 219.44 126.07 223.12 133.82 225.12   C 134.06 225.18 134.20 225.44 134.12 225.67   Z" />
</svg>