<?xml version='1.0' encoding='utf-8'?>
<svg xmlns="http://www.w3.org/2000/svg" version="1.1" viewBox="0.00 0.00 302.00 302.00" width="300" height="300">
<path fill="#035a30" d="   M 145.24 0.00   C 149.07 0.13 152.90 0.27 156.73 0.44   C 182.38 1.57 205.95 8.69 227.46 21.80   C 270.52 48.04 297.57 93.44 299.79 143.96   C 299.91 146.81 299.71 150.74 300.00 154.14   L 300.00 155.14   C 299.49 157.30 299.63 159.96 299.50 161.54   C 294.54 219.05 258.45 268.03 204.92 289.41   C 191.11 294.92 176.63 298.23 161.46 299.33   C 159.01 299.51 156.56 299.73 154.11 300.00   L 153.32 300.00   L 146.81 300.00   L 145.81 300.00   C 143.40 299.73 140.97 299.50 138.53 299.32   C 118.26 297.81 99.20 292.42 81.35 283.16   C 59.61 271.88 41.72 256.28 27.69 236.35   C 8.40 208.96 -0.75 178.51 0.24 145.01   C 2.54 67.24 65.27 4.10 143.01 0.26   C 143.58 0.23 144.12 0.14 144.63 0.00   L 145.24 0.00   Z   M 287.97 150.02   C 287.97 73.82 226.19 12.04 149.99 12.04   C 73.79 12.04 12.01 73.82 12.01 150.02   C 12.01 226.22 73.79 288.00 149.99 288.00   C 226.19 288.00 287.97 226.22 287.97 150.02   Z" />
<path fill="#fafafa" d="   M 287.97 150.02   C 287.97 226.22 226.19 288.00 149.99 288.00   C 73.79 288.00 12.01 226.22 12.01 150.02   C 12.01 73.82 73.79 12.04 149.99 12.04   C 226.19 12.04 287.97 73.82 287.97 150.02   Z   M 134.07 106.66   C 133.59 106.32 132.91 106.48 132.64 107.00   C 131.32 109.51 130.82 112.89 129.50 115.78   C 124.53 126.64 121.39 133.17 120.09 135.36   C 113.61 146.30 103.65 157.03 92.58 165.56   C 90.57 167.11 88.09 168.48 85.16 169.66   C 78.34 172.41 71.64 174.46 64.81 172.46   C 61.33 171.45 58.34 169.60 55.83 166.93   C 52.96 163.87 48.85 158.50 48.57 154.22   C 48.29 149.83 48.43 145.20 48.99 140.33   C 50.28 129.03 57.00 118.27 65.01 110.44   C 67.18 108.33 70.37 105.95 74.59 103.30   C 80.38 99.66 83.82 97.57 84.91 97.03   C 97.60 90.67 112.74 86.77 127.25 87.56   C 135.31 88.00 143.63 88.85 152.77 90.40   C 162.58 92.06 168.29 92.82 176.72 94.35   C 188.80 96.55 201.95 97.79 216.17 98.08   C 216.91 98.10 219.46 98.23 223.83 98.47   C 228.55 98.73 232.66 98.45 236.16 97.62   C 239.24 96.89 241.76 96.33 243.72 95.93   C 244.34 95.80 244.93 95.56 245.47 95.22   C 246.89 94.32 248.38 93.64 249.93 93.19   C 250.46 93.03 250.97 92.80 251.44 92.50   C 254.60 90.46 257.41 89.50 259.75 87.00   C 260.94 85.72 262.40 84.54 264.12 83.46   C 264.44 83.26 264.56 82.86 264.41 82.52   C 262.34 77.93 253.23 81.03 250.09 81.12   C 244.11 81.31 238.81 82.88 232.63 82.55   C 231.24 82.48 227.95 82.40 222.76 82.29   C 211.82 82.08 197.93 80.22 191.25 79.94   C 176.96 79.35 158.96 79.19 137.25 79.47   C 135.56 79.49 133.97 79.72 132.48 80.16   C 129.45 81.06 126.69 80.66 123.51 81.25   C 118.84 82.12 113.87 82.91 108.58 83.62   C 106.95 83.84 104.68 84.57 101.78 85.81   C 100.30 86.44 98.06 87.25 95.05 88.22   C 78.64 93.55 65.27 102.95 54.96 116.40   C 49.80 123.13 46.80 129.91 45.96 136.74   C 45.01 144.53 45.36 151.80 47.02 158.53   C 47.75 161.50 49.71 164.99 52.88 168.99   C 55.38 172.14 58.55 174.49 62.40 176.03   C 69.00 178.67 75.87 179.50 83.02 178.53   C 89.46 177.64 94.75 174.28 101.27 170.28   C 106.71 166.96 112.84 160.01 117.37 154.10   C 125.60 143.40 130.89 130.67 133.92 117.32   C 134.61 114.28 134.81 111.56 134.97 108.77   C 135.03 107.84 134.73 107.13 134.07 106.66   Z   M 133.53 178.86   C 133.89 178.80 134.17 179.18 134.00 179.50   C 133.13 181.18 132.25 183.43 131.38 186.25   C 130.84 187.98 129.84 190.16 128.38 192.80   C 123.41 201.75 117.84 210.20 111.66 218.16   C 108.09 222.77 104.73 226.34 101.59 228.85   C 97.59 232.05 94.13 234.10 91.20 235.00   C 86.47 236.45 81.13 236.74 75.16 235.89   C 74.66 235.82 74.17 235.69 73.70 235.50   C 70.43 234.20 67.13 232.35 63.80 229.94   C 63.47 229.70 63.19 229.39 62.97 229.05   C 61.28 226.34 61.08 224.96 61.60 221.71   C 62.37 216.93 61.53 212.54 58.92 208.55   C 57.27 206.05 52.89 203.09 49.83 204.85   C 45.83 207.14 45.29 213.24 46.67 216.90   C 48.06 220.57 50.16 224.01 52.96 227.23   C 58.76 233.91 69.50 237.99 78.16 238.58   C 82.29 238.87 84.57 239.00 85.01 238.99   C 92.45 238.80 99.46 236.81 106.03 233.00   C 115.20 227.69 123.19 220.85 129.98 212.48   C 138.11 202.47 142.96 195.99 144.53 193.03   C 145.48 191.25 148.12 186.28 152.47 178.11   C 152.64 177.79 152.95 177.56 153.30 177.49   C 154.42 177.28 155.49 177.90 157.11 177.68   C 171.03 175.79 184.81 172.80 198.44 168.72   C 199.47 168.41 200.47 167.83 201.44 166.98   C 203.75 164.96 201.77 162.08 199.43 161.56   C 193.63 160.26 187.02 163.67 182.27 166.41   C 178.26 168.72 173.74 169.86 169.35 171.10   C 168.66 171.30 163.75 172.34 154.60 174.22   C 154.43 174.25 154.30 174.08 154.36 173.92   C 160.36 159.08 167.61 144.66 176.10 130.65   C 178.40 126.85 180.50 123.73 182.41 121.28   C 186.22 116.39 188.60 113.48 189.56 112.55   C 192.61 109.59 195.19 106.58 197.30 103.52   C 197.61 103.07 197.30 102.46 196.75 102.45   C 192.03 102.39 185.11 107.92 181.82 111.16   C 176.83 116.07 174.14 118.77 173.73 119.24   C 173.10 119.97 169.52 124.17 162.97 131.84   C 159.43 135.99 156.12 140.39 153.05 145.05   C 145.68 156.22 142.25 161.69 136.08 173.28   C 135.83 173.73 135.43 174.08 134.95 174.27   C 121.22 179.44 106.08 185.82 96.65 197.96   C 96.12 198.64 96.06 199.57 96.49 200.31   L 96.74 200.74   C 97.25 201.62 98.47 201.76 99.16 201.00   C 107.35 191.93 116.86 185.16 127.69 180.71   C 130.00 179.76 131.95 179.14 133.53 178.86   Z" />
<path fill="#035a30" d="   M 134.07 106.66   C 134.73 107.13 135.03 107.84 134.97 108.77   C 134.81 111.56 134.61 114.28 133.92 117.32   C 130.89 130.67 125.60 143.40 117.37 154.10   C 112.84 160.01 106.71 166.96 101.27 170.28   C 94.75 174.28 89.46 177.64 83.02 178.53   C 75.87 179.50 69.00 178.67 62.40 176.03   C 58.55 174.49 55.38 172.14 52.88 168.99   C 49.71 164.99 47.75 161.50 47.02 158.53   C 45.36 151.80 45.01 144.53 45.96 136.74   C 46.80 129.91 49.80 123.13 54.96 116.40   C 65.27 102.95 78.64 93.55 95.05 88.22   C 98.06 87.25 100.30 86.44 101.78 85.81   C 104.68 84.57 106.95 83.84 108.58 83.62   C 113.87 82.91 118.84 82.12 123.51 81.25   C 126.69 80.66 129.45 81.06 132.48 80.16   C 133.97 79.72 135.56 79.49 137.25 79.47   C 158.96 79.19 176.96 79.35 191.25 79.94   C 197.93 80.22 211.82 82.08 222.76 82.29   C 227.95 82.40 231.24 82.48 232.63 82.55   C 238.81 82.88 244.11 81.31 250.09 81.12   C 253.23 81.03 262.34 77.93 264.41 82.52   C 264.56 82.86 264.44 83.26 264.12 83.46   C 262.40 84.54 260.94 85.72 259.75 87.00   C 257.41 89.50 254.60 90.46 251.44 92.50   C 250.97 92.80 250.46 93.03 249.93 93.19   C 248.38 93.64 246.89 94.32 245.47 95.22   C 244.93 95.56 244.34 95.80 243.72 95.93   C 241.76 96.33 239.24 96.89 236.16 97.62   C 232.66 98.45 228.55 98.73 223.83 98.47   C 219.46 98.23 216.91 98.10 216.17 98.08   C 201.95 97.79 188.80 96.55 176.72 94.35   C 168.29 92.82 162.58 92.06 152.77 90.40   C 143.63 88.85 135.31 88.00 127.25 87.56   C 112.74 86.77 97.60 90.67 84.91 97.03   C 83.82 97.57 80.38 99.66 74.59 103.30   C 70.37 105.95 67.18 108.33 65.01 110.44   C 57.00 118.27 50.28 129.03 48.99 140.33   C 48.43 145.20 48.29 149.83 48.57 154.22   C 48.85 158.50 52.96 163.87 55.83 166.93   C 58.34 169.60 61.33 171.45 64.81 172.46   C 71.64 174.46 78.34 172.41 85.16 169.66   C 88.09 168.48 90.57 167.11 92.58 165.56   C 103.65 157.03 113.61 146.30 120.09 135.36   C 121.39 133.17 124.53 126.64 129.50 115.78   C 130.82 112.89 131.32 109.51 132.64 107.00   C 132.91 106.48 133.59 106.32 134.07 106.66   Z" />
<path fill="#035a30" d="   M 133.53 178.86   C 131.95 179.14 130.00 179.76 127.69 180.71   C 116.86 185.16 107.35 191.93 99.16 201.00   C 98.47 201.76 97.25 201.62 96.74 200.74   L 96.49 200.31   C 96.06 199.57 96.12 198.64 96.65 197.96   C 106.08 185.82 121.22 179.44 134.95 174.27   C 135.43 174.08 135.83 173.73 136.08 173.28   C 142.25 161.69 145.68 156.22 153.05 145.05   C 156.12 140.39 159.43 135.99 162.97 131.84   C 169.52 124.17 173.10 119.97 173.73 119.24   C 174.14 118.77 176.83 116.07 181.82 111.16   C 185.11 107.92 192.03 102.39 196.75 102.45   C 197.30 102.46 197.61 103.07 197.30 103.52   C 195.19 106.58 192.61 109.59 189.56 112.55   C 188.60 113.48 186.22 116.39 182.41 121.28   C 180.50 123.73 178.40 126.85 176.10 130.65   C 167.61 144.66 160.36 159.08 154.36 173.92   C 154.30 174.08 154.43 174.25 154.60 174.22   C 163.75 172.34 168.66 171.30 169.35 171.10   C 173.74 169.86 178.26 168.72 182.27 166.41   C 187.02 163.67 193.63 160.26 199.43 161.56   C 201.77 162.08 203.75 164.96 201.44 166.98   C 200.47 167.83 199.47 168.41 198.44 168.72   C 184.81 172.80 171.03 175.79 157.11 177.68   C 155.49 177.90 154.42 177.28 153.30 177.49   C 152.95 177.56 152.64 177.79 152.47 178.11   C 148.12 186.28 145.48 191.25 144.53 193.03   C 142.96 195.99 138.11 202.47 129.98 212.48   C 123.19 220.85 115.20 227.69 106.03 233.00   C 99.46 236.81 92.45 238.80 85.01 238.99   C 84.57 239.00 82.29 238.87 78.16 238.58   C 69.50 237.99 58.76 233.91 52.96 227.23   C 50.16 224.01 48.06 220.57 46.67 216.90   C 45.29 213.24 45.83 207.14 49.83 204.85   C 52.89 203.09 57.27 206.05 58.92 208.55   C 61.53 212.54 62.37 216.93 61.60 221.71   C 61.08 224.96 61.28 226.34 62.97 229.05   C 63.19 229.39 63.47 229.70 63.80 229.94   C 67.13 232.35 70.43 234.20 73.70 235.50   C 74.17 235.69 74.66 235.82 75.16 235.89   C 81.13 236.74 86.47 236.45 91.20 235.00   C 94.13 234.10 97.59 232.05 101.59 228.85   C 104.73 226.34 108.09 222.77 111.66 218.16   C 117.84 210.20 123.41 201.75 128.38 192.80   C 129.84 190.16 130.84 187.98 131.38 186.25   C 132.25 183.43 133.13 181.18 134.00 179.50   C 134.17 179.18 133.89 178.80 133.53 178.86   Z" />
</svg>