<?xml version='1.0' encoding='utf-8'?>
<svg xmlns="http://www.w3.org/2000/svg" version="1.1" viewBox="0.00 0.00 301.73 301.85" width="50" height="50">
<path fill="#499aea" d="   M 299.73 150.06   C 299.73 232.79 232.67 299.85 149.94 299.85   C 67.21 299.85 0.15 232.79 0.15 150.06   C 0.15 67.33 67.21 0.27 149.94 0.27   C 232.67 0.27 299.73 67.33 299.73 150.06   Z   M 290.27 150.06   C 290.27 72.57 227.45 9.75 149.96 9.75   C 72.47 9.75 9.65 72.57 9.65 150.06   C 9.65 227.55 72.47 290.37 149.96 290.37   C 227.45 290.37 290.27 227.55 290.27 150.06   Z" />
<path fill="#ffffff" d="   M 290.27 150.06   C 290.27 227.55 227.45 290.37 149.96 290.37   C 72.47 290.37 9.65 227.55 9.65 150.06   C 9.65 72.57 72.47 9.75 149.96 9.75   C 227.45 9.75 290.27 72.57 290.27 150.06   Z   M 49.88 217.40   L 68.05 217.40   C 68.33 217.40 68.58 217.25 68.70 217.00   L 138.17 74.16   C 138.38 73.74 138.80 73.47 139.27 73.47   L 209.89 73.47   C 210.47 73.47 211.02 73.20 211.37 72.74   L 223.60 56.60   C 223.84 56.29 223.57 55.84 223.18 55.90   C 222.39 56.02 221.79 56.08 221.38 56.08   C 215.07 56.09 187.49 56.10 138.63 56.11   C 134.05 56.11 130.22 57.47 127.14 60.19   C 125.29 61.82 123.08 65.29 120.49 70.62   C 93.91 125.31 70.24 174.02 49.47 216.75   C 49.33 217.05 49.55 217.40 49.88 217.40   Z   M 155.82 97.69   C 155.82 97.61 155.89 97.54 155.98 97.54   L 198.35 97.54   C 199.16 97.54 199.96 97.25 200.59 96.73   L 216.61 83.53   C 216.80 83.38 216.69 83.08 216.45 83.08   L 144.36 83.08   C 143.91 83.08 143.49 83.32 143.27 83.70   L 125.54 114.41   C 125.42 114.61 125.58 114.85 125.81 114.84   C 136.30 114.28 146.61 114.93 156.74 116.78   C 175.34 120.18 191.62 127.80 201.49 144.02   C 212.73 162.50 212.22 185.55 200.98 203.77   C 190.37 220.96 175.13 230.05 155.24 231.02   C 124.61 232.52 102.13 211.25 100.38 180.97   C 100.35 180.56 99.88 180.35 99.56 180.61   C 95.74 183.74 93.52 187.72 92.89 192.57   C 91.12 206.29 95.52 221.06 106.19 230.59   C 122.45 245.12 141.04 250.46 161.95 246.60   C 173.86 244.40 186.37 238.66 196.15 231.87   C 217.34 217.15 227.41 196.36 226.34 169.49   C 225.67 152.37 221.17 136.17 209.19 123.39   C 201.79 115.50 192.76 109.51 182.11 105.42   C 172.20 101.63 163.48 99.19 155.94 98.10   C 155.87 98.09 155.82 98.04 155.82 97.97   L 155.82 97.69   Z   M 156.69 193.41   C 156.95 193.41 157.39 193.60 158.02 193.97   C 170.67 201.54 178.91 206.47 182.72 208.76   C 182.93 208.89 183.18 208.69 183.11 208.46   L 174.54 180.22   C 174.40 179.78 174.55 179.30 174.91 179.00   L 199.08 159.09   C 199.21 158.99 199.13 158.78 198.97 158.78   L 167.69 158.78   C 167.28 158.78 166.92 158.51 166.79 158.12   C 163.30 147.58 160.04 137.60 157.01 128.18   C 156.95 127.99 156.84 127.89 156.69 127.89   C 156.54 127.89 156.43 127.99 156.37 128.18   C 153.33 137.60 150.07 147.58 146.59 158.12   C 146.46 158.51 146.10 158.78 145.69 158.78   L 114.41 158.78   C 114.24 158.78 114.17 158.99 114.30 159.09   L 138.47 179.00   C 138.83 179.30 138.98 179.78 138.84 180.22   L 130.27 208.46   C 130.20 208.69 130.45 208.89 130.66 208.76   C 134.47 206.47 142.70 201.54 155.36 193.97   C 155.98 193.60 156.43 193.41 156.69 193.41   Z" />
<path fill="#f71f29" d="   M 49.47 216.75   C 70.24 174.02 93.91 125.31 120.49 70.62   C 123.08 65.29 125.29 61.82 127.14 60.19   C 130.22 57.47 134.05 56.11 138.63 56.11   C 187.49 56.10 215.07 56.09 221.38 56.08   C 221.79 56.08 222.39 56.02 223.18 55.90   C 223.57 55.84 223.84 56.29 223.60 56.60   L 211.37 72.74   C 211.02 73.20 210.47 73.47 209.89 73.47   L 139.27 73.47   C 138.80 73.47 138.38 73.74 138.17 74.16   L 68.70 217.00   C 68.58 217.25 68.33 217.40 68.05 217.40   L 49.88 217.40   C 49.55 217.40 49.33 217.05 49.47 216.75   Z" />
<path fill="#f71f29" d="   M 155.82 97.69   L 155.82 97.97   C 155.82 98.04 155.87 98.09 155.94 98.10   C 163.48 99.19 172.20 101.63 182.11 105.42   C 192.76 109.51 201.79 115.50 209.19 123.39   C 221.17 136.17 225.67 152.37 226.34 169.49   C 227.41 196.36 217.34 217.15 196.15 231.87   C 186.37 238.66 173.86 244.40 161.95 246.60   C 141.04 250.46 122.45 245.12 106.19 230.59   C 95.52 221.06 91.12 206.29 92.89 192.57   C 93.52 187.72 95.74 183.74 99.56 180.61   C 99.88 180.35 100.35 180.56 100.38 180.97   C 102.13 211.25 124.61 232.52 155.24 231.02   C 175.13 230.05 190.37 220.96 200.98 203.77   C 212.22 185.55 212.73 162.50 201.49 144.02   C 191.62 127.80 175.34 120.18 156.74 116.78   C 146.61 114.93 136.30 114.28 125.81 114.84   C 125.58 114.85 125.42 114.61 125.54 114.41   L 143.27 83.70   C 143.49 83.32 143.91 83.08 144.36 83.08   L 216.45 83.08   C 216.69 83.08 216.80 83.38 216.61 83.53   L 200.59 96.73   C 199.96 97.25 199.16 97.54 198.35 97.54   L 155.98 97.54   C 155.89 97.54 155.82 97.61 155.82 97.69   Z" />
<path fill="#fffa06" d="   M 156.69 193.41   C 156.43 193.41 155.98 193.60 155.36 193.97   C 142.70 201.54 134.47 206.47 130.66 208.76   C 130.45 208.89 130.20 208.69 130.27 208.46   L 138.84 180.22   C 138.98 179.78 138.83 179.30 138.47 179.00   L 114.30 159.09   C 114.17 158.99 114.24 158.78 114.41 158.78   L 145.69 158.78   C 146.10 158.78 146.46 158.51 146.59 158.12   C 150.07 147.58 153.33 137.60 156.37 128.18   C 156.43 127.99 156.54 127.89 156.69 127.89   C 156.84 127.89 156.95 127.99 157.01 128.18   C 160.04 137.60 163.30 147.58 166.79 158.12   C 166.92 158.51 167.28 158.78 167.69 158.78   L 198.97 158.78   C 199.13 158.78 199.21 158.99 199.08 159.09   L 174.91 179.00   C 174.55 179.30 174.40 179.78 174.54 180.22   L 183.11 208.46   C 183.18 208.69 182.93 208.89 182.72 208.76   C 178.91 206.47 170.67 201.54 158.02 193.97   C 157.39 193.60 156.95 193.41 156.69 193.41   Z" />
</svg>