<?xml version='1.0' encoding='utf-8'?>
<svg xmlns="http://www.w3.org/2000/svg" version="1.1" viewBox="0.00 38.88 302.00 222.84" width="300" height="221">
<path fill="#092178" d="   M 153.29 40.88   L 153.30 87.55   C 150.34 86.19 148.44 84.21 147.59 81.62   C 147.45 81.19 147.09 80.87 146.65 80.78   C 144.97 80.41 143.42 80.54 142.00 81.15   C 136.23 83.64 141.06 95.23 142.74 99.20   C 143.13 100.12 142.51 101.15 141.52 101.24   L 134.74 101.86   C 134.15 101.91 133.58 101.64 133.24 101.16   L 131.07 98.09   C 130.23 96.89 128.36 97.29 128.07 98.73   L 126.71 105.64   C 126.66 105.89 126.85 106.12 127.10 106.12   L 153.23 106.33   C 153.54 107.36 153.56 108.44 153.29 109.58   L 126.56 109.35   C 126.15 109.34 125.81 109.65 125.77 110.06   C 124.30 125.44 123.82 140.89 124.33 156.42   C 124.34 156.72 124.57 156.96 124.87 156.98   C 134.18 157.60 143.62 157.34 153.19 156.19   L 153.24 160.78   C 143.62 161.73 134.13 161.77 124.76 160.92   C 124.53 160.90 124.34 161.09 124.35 161.32   C 125.25 180.71 130.11 200.03 136.93 217.94   C 137.15 218.51 137.69 218.89 138.29 218.90   L 153.25 219.25   C 153.48 220.69 153.48 222.02 153.23 223.24   L 139.50 223.29   C 139.29 223.29 139.14 223.50 139.22 223.70   C 143.02 233.33 147.67 242.88 153.18 252.35   L 153.28 259.72   C 134.57 259.58 116.07 257.36 97.80 253.07   C 51.21 242.13 11.03 212.80 0.96 163.82   C 0.08 159.54 -0.08 154.00 0.47 147.21   C 2.87 117.53 15.73 93.79 39.06 75.98   C 49.30 68.17 60.86 61.78 73.74 56.81   C 99.29 46.95 125.81 41.64 153.29 40.88   Z   M 95.50 79.63   C 94.50 79.60 93.59 79.14 92.78 78.25   C 92.40 77.84 91.83 77.66 91.28 77.77   L 85.56 78.95   C 84.77 79.11 83.97 78.72 83.61 78.00   C 82.71 76.17 83.09 70.82 83.53 69.42   C 83.56 69.33 83.48 69.24 83.39 69.26   L 70.79 71.86   C 70.23 71.98 69.71 72.23 69.27 72.59   C 63.32 77.47 57.80 82.76 52.72 88.45   C 52.44 88.76 52.53 89.25 52.90 89.44   C 62.48 94.45 72.69 98.14 83.52 100.51   C 83.82 100.58 84.13 100.43 84.28 100.15   C 84.74 99.24 85.63 97.35 86.96 94.47   C 88.97 90.12 91.92 85.39 95.81 80.29   C 96.01 80.03 95.83 79.64 95.50 79.63   Z   M 62.56 72.75   C 60.45 73.57 58.50 73.84 56.69 73.57   C 56.33 73.52 55.97 73.63 55.70 73.88   C 53.78 75.63 51.52 76.41 48.91 76.24   C 45.02 75.99 42.79 77.19 40.71 79.93   C 40.44 80.29 40.51 80.80 40.88 81.07   L 49.21 87.22   C 49.41 87.36 49.69 87.32 49.83 87.13   C 53.66 82.08 58.01 77.47 62.88 73.28   C 63.00 73.18 63.02 73.01 62.94 72.88   C 62.86 72.75 62.70 72.69 62.56 72.75   Z   M 88.24 101.60   L 92.97 102.53   C 93.37 102.61 93.78 102.44 94.01 102.10   C 96.06 99.05 97.23 95.50 97.53 91.45   C 97.63 90.04 99.03 89.11 100.37 89.55   L 103.93 90.73   C 104.61 90.96 105.31 90.44 105.30 89.73   L 105.17 80.21   C 105.17 80.01 105.11 79.82 105.01 79.65   C 103.94 77.97 101.05 77.27 99.76 79.21   C 95.08 86.17 91.10 93.37 87.82 100.80   C 87.67 101.14 87.88 101.53 88.24 101.60   Z   M 31.01 126.40   C 34.30 113.03 39.89 100.80 47.80 89.71   C 48.02 89.41 47.95 88.99 47.65 88.77   L 38.93 82.35   C 38.78 82.24 38.58 82.25 38.44 82.37   L 37.52 83.23   C 37.34 83.40 37.10 83.48 36.86 83.45   C 35.90 83.36 35.42 82.71 35.41 81.49   C 35.41 81.11 35.01 80.86 34.66 81.03   C 33.83 81.44 33.22 82.02 32.84 82.77   C 32.69 83.06 32.71 83.41 32.90 83.69   C 33.75 84.98 34.32 86.21 34.61 87.40   C 34.88 88.49 34.53 89.63 33.71 90.39   L 22.15 101.09   C 21.07 102.09 20.46 103.50 20.49 104.98   L 20.52 107.28   C 20.52 107.37 20.50 107.45 20.46 107.52   L 15.79 115.89   C 15.61 116.20 15.71 116.59 16.00 116.79   L 30.45 126.61   C 30.66 126.75 30.95 126.65 31.01 126.40   Z   M 69.12 141.17   C 69.11 141.01 69.00 140.87 68.85 140.82   C 67.42 140.33 66.08 139.51 64.85 138.35   C 64.59 138.10 64.54 137.71 64.75 137.42   C 65.28 136.67 65.92 136.16 66.65 135.88   C 66.95 135.77 67.28 135.81 67.54 135.99   C 67.88 136.22 68.78 136.54 70.24 136.95   C 72.51 137.58 73.31 134.98 72.96 133.48   C 72.23 130.34 70.04 123.77 71.19 120.87   C 71.29 120.63 71.44 120.40 71.63 120.22   L 79.77 112.41   C 79.94 112.25 80.07 112.04 80.15 111.82   L 82.84 104.03   C 82.97 103.66 82.75 103.26 82.37 103.16   C 74.18 101.09 66.51 98.59 59.36 95.67   C 58.22 95.20 55.49 93.74 51.17 91.29   C 50.90 91.14 50.57 91.20 50.38 91.43   C 41.69 102.08 35.87 114.05 32.94 127.35   C 32.86 127.68 33.01 128.03 33.31 128.21   C 44.69 135.00 56.70 140.76 69.35 145.48   C 69.43 145.51 69.51 145.44 69.50 145.36   L 69.12 141.17   Z   M 125.57 96.72   C 122.74 96.55 120.19 97.21 117.92 98.69   C 117.17 99.18 116.28 99.41 115.39 99.34   L 106.30 98.64   C 105.53 98.58 104.83 99.05 104.58 99.77   L 103.44 103.08   C 103.22 103.71 103.66 104.37 104.32 104.42   L 123.26 105.88   C 123.67 105.91 124.04 105.63 124.12 105.23   L 125.75 96.96   C 125.78 96.84 125.69 96.73 125.57 96.72   Z   M 120.64 156.50   C 119.98 141.01 120.84 125.44 123.21 109.79   C 123.25 109.51 123.05 109.25 122.77 109.23   L 102.53 107.67   C 102.10 107.63 101.66 107.74 101.29 107.98   C 98.35 109.87 94.94 111.09 93.59 106.79   C 93.44 106.30 93.02 105.93 92.51 105.83   L 86.73 104.69   C 86.44 104.63 86.16 104.79 86.06 105.07   L 82.99 113.99   C 82.89 114.26 82.89 114.54 82.97 114.81   C 83.31 115.99 83.81 116.88 84.46 117.49   C 84.84 117.84 85.41 117.88 85.83 117.58   C 87.88 116.12 89.81 114.99 91.60 114.18   C 92.44 113.81 93.38 114.17 93.60 114.94   C 94.18 117.00 91.83 118.82 90.11 120.44   C 89.35 121.15 89.39 122.36 90.19 123.02   L 94.09 126.25   C 94.29 126.41 94.45 126.63 94.55 126.87   C 94.97 127.84 95.18 128.79 95.18 129.72   C 95.18 130.07 95.05 130.42 94.81 130.68   C 93.00 132.65 87.03 135.69 85.53 138.83   C 84.72 140.55 83.96 142.14 83.26 143.61   C 82.70 144.80 83.17 146.22 84.33 146.85   C 86.30 147.91 87.76 149.30 88.69 151.02   C 88.86 151.33 89.15 151.55 89.50 151.64   C 99.73 154.21 110.03 155.90 120.42 156.71   C 120.54 156.72 120.65 156.62 120.64 156.50   Z   M 46.14 194.51   C 46.38 194.65 46.64 194.37 46.48 194.14   C 33.82 175.86 28.33 155.67 30.01 133.58   C 30.05 133.18 29.85 132.79 29.51 132.58   C 23.48 128.83 18.05 124.72 13.20 120.26   C 12.94 120.02 12.54 120.02 12.29 120.26   L 6.34 125.76   C 6.01 126.07 5.78 126.48 5.70 126.92   L 4.70 131.98   C 4.62 132.39 4.73 132.81 5.00 133.13   C 7.53 136.11 10.13 138.62 8.99 142.95   C 8.66 144.22 8.42 145.34 8.26 146.31   C 8.08 147.39 8.49 148.47 9.34 149.16   L 12.92 152.08   C 13.03 152.17 13.11 152.27 13.18 152.38   C 13.89 153.57 13.41 155.13 11.73 157.06   C 11.33 157.52 11.20 158.15 11.37 158.73   C 12.08 161.12 13.20 163.16 14.71 164.85   C 15.23 165.42 15.16 166.31 14.57 166.80   C 13.05 168.05 11.28 169.03 9.25 169.76   C 8.79 169.93 8.69 170.54 9.09 170.83   L 21.07 179.66   C 21.43 179.92 21.95 179.73 22.03 179.29   L 23.07 174.04   C 23.17 173.55 23.44 173.12 23.85 172.82   C 25.92 171.33 27.21 170.60 27.84 168.73   C 27.99 168.30 28.52 168.15 28.87 168.44   C 31.42 170.54 29.76 173.04 29.61 175.24   C 29.56 175.59 29.61 175.95 29.73 176.28   L 30.18 177.48   C 30.34 177.92 30.13 178.41 29.70 178.59   L 24.84 180.60   C 24.18 180.87 24.12 181.79 24.74 182.15   L 46.14 194.51   Z   M 93.91 211.89   C 88.22 202.81 83.84 193.52 80.75 184.01   C 79.94 181.50 78.75 175.95 77.18 167.34   C 77.12 166.99 76.84 166.71 76.49 166.64   L 73.99 166.14   C 72.84 165.91 72.52 164.41 73.49 163.75   C 74.24 163.23 75.04 162.94 75.87 162.87   C 76.22 162.85 76.48 162.54 76.45 162.19   L 75.58 152.70   C 75.54 152.33 75.28 152.02 74.92 151.92   C 59.87 147.91 45.71 142.06 32.46 134.36   C 32.25 134.24 31.98 134.38 31.96 134.62   C 30.03 156.24 37.20 177.57 49.55 195.22   C 50.51 196.60 51.89 197.59 53.69 198.18   C 54.48 198.45 55.36 198.15 55.83 197.46   L 58.62 193.35   C 58.78 193.12 58.99 192.93 59.23 192.81   L 61.47 191.67   C 62.01 191.40 62.29 190.79 62.14 190.21   C 61.34 186.95 64.11 185.34 64.79 182.37   C 64.86 182.05 65.20 181.87 65.50 181.98   C 66.58 182.37 67.30 182.82 67.65 183.32   C 67.90 183.68 67.73 184.17 67.32 184.30   C 66.29 184.63 65.60 185.07 65.25 185.63   C 64.86 186.27 65.03 187.16 65.67 187.78   C 66.44 188.53 67.37 189.24 68.44 189.93   C 68.73 190.12 68.83 190.50 68.67 190.81   C 67.03 193.95 64.72 195.87 61.74 196.58   C 59.51 197.11 58.53 197.94 58.25 200.00   C 58.22 200.25 58.35 200.49 58.58 200.59   C 70.01 205.72 81.66 209.65 93.55 212.39   C 93.84 212.45 94.06 212.14 93.91 211.89   Z   M 103.88 158.89   L 109.60 167.56   C 110.17 168.43 109.45 169.56 108.42 169.41   C 106.78 169.16 105.10 168.42 103.38 167.19   C 103.13 167.02 102.94 166.78 102.83 166.50   L 101.17 162.51   C 100.76 161.51 99.87 160.79 98.81 160.58   L 93.86 159.60   C 93.46 159.52 93.18 160.00 93.46 160.31   L 97.88 165.18   C 98.25 165.59 98.00 166.24 97.46 166.31   C 96.36 166.46 94.45 165.28 92.83 164.36   C 92.44 164.14 91.99 164.07 91.56 164.17   C 90.28 164.48 89.25 165.12 88.07 164.36   C 87.31 163.86 86.88 163.32 86.78 162.73   C 86.73 162.40 86.84 162.08 87.08 161.85   L 90.72 158.48   C 91.75 157.53 91.26 155.82 89.89 155.55   L 87.45 155.06   C 87.29 155.03 87.13 155.08 87.02 155.18   L 80.25 161.46   C 79.43 162.21 79.38 163.48 80.14 164.29   L 85.15 169.71   C 85.72 170.33 85.49 171.32 84.70 171.62   C 83.32 172.13 82.55 173.37 82.39 175.33   C 82.38 175.55 82.40 175.77 82.46 175.99   L 86.17 189.39   C 86.41 190.26 87.40 190.67 88.18 190.22   C 89.34 189.55 90.26 188.75 90.94 187.82   C 91.51 187.03 91.53 185.98 90.99 185.17   L 88.66 181.64   C 88.34 181.16 88.66 180.51 89.23 180.46   L 92.88 180.13   C 93.43 180.08 93.95 180.43 94.09 180.97   C 94.36 181.98 94.63 182.86 94.91 183.59   C 95.34 184.71 96.30 184.46 97.79 182.84   C 98.34 182.24 99.31 182.31 99.76 182.99   L 101.01 184.89   C 101.57 185.73 101.10 186.87 100.11 187.08   L 95.79 187.97   C 95.22 188.09 94.72 188.41 94.37 188.88   L 93.02 190.71   C 92.86 190.93 92.61 191.07 92.34 191.08   C 90.53 191.19 89.26 192.19 88.51 194.06   C 88.38 194.37 88.39 194.72 88.52 195.03   C 91.27 201.53 94.14 207.24 97.13 212.15   C 97.78 213.22 98.90 213.84 100.49 214.01   C 100.75 214.04 100.95 213.81 100.90 213.56   C 100.49 211.69 100.65 210.37 101.39 209.58   C 101.88 209.06 102.90 209.28 103.60 210.06   C 105.01 211.64 106.08 213.15 106.83 214.58   C 106.99 214.88 107.28 215.10 107.61 215.16   L 111.40 215.89   C 111.67 215.94 111.96 215.91 112.22 215.80   C 114.19 214.95 115.81 213.55 117.10 211.58   C 117.48 211.01 118.18 210.73 118.84 210.90   C 119.54 211.08 120.18 210.83 120.76 210.14   C 121.04 209.82 121.44 209.62 121.86 209.58   L 124.41 209.34   C 124.77 209.31 125.05 209.04 125.10 208.69   C 125.39 206.52 124.78 204.70 123.26 203.25   C 122.91 202.92 123.04 202.33 123.50 202.19   C 124.97 201.72 126.06 200.91 126.76 199.76   C 126.91 199.51 126.95 199.21 126.89 198.93   L 124.70 189.48   C 124.69 189.42 124.67 189.36 124.64 189.31   C 123.99 187.94 122.90 186.43 121.36 184.76   C 121.13 184.51 120.72 184.60 120.61 184.92   C 119.93 186.87 120.50 189.14 120.90 191.77   C 120.96 192.20 120.86 192.64 120.62 193.00   C 120.09 193.77 119.18 194.50 117.90 195.20   C 117.35 195.51 116.70 194.98 116.89 194.37   C 117.01 193.98 117.29 193.48 117.74 192.87   C 118.18 192.26 118.13 191.42 117.62 190.87   L 113.45 186.37   C 113.21 186.10 113.22 185.69 113.48 185.44   C 114.68 184.26 116.79 183.79 117.59 182.57   C 118.20 181.64 118.65 180.72 118.92 179.83   C 119.01 179.53 118.90 179.20 118.64 179.03   L 114.46 176.18   C 113.50 175.53 113.25 174.22 113.90 173.27   L 114.79 171.96   C 115.26 171.27 116.21 171.10 116.89 171.60   L 120.39 174.19   C 121.11 174.71 122.11 174.15 122.03 173.26   L 120.92 161.14   C 120.90 160.91 120.72 160.72 120.48 160.68   L 104.10 158.54   C 103.91 158.51 103.77 158.73 103.88 158.89   Z   M 7.82 175.45   L 7.06 179.30   C 7.04 179.41 7.05 179.51 7.08 179.62   C 7.87 181.83 8.65 183.98 9.42 186.07   C 10.01 187.66 11.08 188.57 12.61 188.80   C 15.71 189.25 18.18 187.88 20.01 184.68   C 20.18 184.38 20.10 184.01 19.83 183.81   L 8.26 175.28   C 8.09 175.16 7.86 175.25 7.82 175.45   Z   M 49.86 201.25   C 41.13 197.12 32.50 192.25 23.98 186.62   C 23.74 186.46 23.42 186.59 23.35 186.87   C 23.04 188.15 23.35 189.90 24.34 190.96   C 25.79 192.49 27.01 194.02 28.01 195.57   C 28.41 196.19 28.98 196.68 29.65 196.98   L 37.45 200.47   C 38.16 200.78 38.48 201.62 38.17 202.33   C 36.17 206.88 33.11 203.37 31.55 201.17   C 31.18 200.65 30.38 200.73 30.12 201.31   L 27.95 206.18   C 27.81 206.49 27.59 206.76 27.30 206.94   L 25.21 208.32   C 24.35 208.89 24.19 210.08 24.86 210.86   C 38.97 227.03 58.16 238.31 78.52 245.47   C 98.08 252.35 118.64 256.53 140.20 258.02   C 140.51 258.04 140.78 257.81 140.81 257.50   L 140.89 256.43   C 140.92 256.07 140.67 255.75 140.32 255.69   C 124.07 252.77 108.63 246.78 94.00 237.71   C 79.45 228.70 66.25 217.52 54.41 204.18   C 54.07 203.80 53.48 203.77 53.10 204.12   L 44.17 212.38   C 43.65 212.87 42.79 212.60 42.65 211.90   L 42.18 209.62   C 41.95 208.50 42.50 207.37 43.52 206.86   C 45.96 205.64 48.12 204.00 49.99 201.93   C 50.18 201.72 50.12 201.37 49.86 201.25   Z   M 92.72 216.76   C 80.88 213.83 69.55 209.98 58.72 205.23   C 58.54 205.15 58.39 205.38 58.53 205.51   C 69.32 216.30 80.76 225.84 92.85 234.13   C 106.92 243.77 123.41 251.98 140.19 254.58   C 140.30 254.60 140.41 254.53 140.44 254.41   C 140.47 254.30 140.42 254.18 140.31 254.14   C 122.75 246.82 108.53 233.76 97.85 218.05   C 97.52 217.57 96.85 217.50 96.42 217.89   L 95.02 219.19   C 94.74 219.45 94.62 219.85 94.72 220.22   C 95.14 221.75 94.44 223.28 92.62 224.83   C 91.86 225.47 90.82 225.47 90.36 224.83   C 90.22 224.64 90.15 224.22 90.14 223.55   C 90.11 221.06 91.03 219.06 92.90 217.56   C 93.19 217.32 93.09 216.85 92.72 216.76   Z   M 101.98 218.83   C 101.51 218.74 101.19 219.30 101.52 219.66   L 109.96 228.77   C 110.26 229.09 110.77 229.06 111.02 228.71   L 114.10 224.53   C 114.31 224.25 114.32 223.86 114.13 223.57   L 112.69 221.34   C 112.50 221.05 112.19 220.84 111.85 220.78   L 101.98 218.83   Z   M 150.58 251.23   C 145.62 243.78 141.71 237.06 138.84 231.05   C 137.04 227.27 132.91 225.32 129.39 223.10   C 128.64 222.63 126.77 222.37 123.78 222.30   C 123.45 222.29 123.20 222.61 123.29 222.93   C 124.67 227.98 126.62 229.10 129.63 231.73   C 130.23 232.25 130.25 233.18 129.68 233.73   C 128.39 234.97 126.75 235.64 124.75 235.73   C 124.33 235.75 123.91 235.66 123.53 235.47   L 119.02 233.19   C 118.39 232.87 117.63 233.18 117.40 233.85   C 116.89 235.33 117.32 236.67 118.69 237.87   C 126.44 244.65 134.98 250.03 144.31 254.02   C 145.44 254.50 146.50 254.75 147.48 254.77   C 147.72 254.78 147.96 254.69 148.14 254.52   L 150.44 252.39   C 150.76 252.09 150.82 251.60 150.58 251.23   Z" />
<path fill="#bf9b3a" d="   M 298.05 133.29   L 251.06 133.33   C 250.78 133.33 250.56 133.11 250.56 132.83   C 250.63 121.58 250.66 109.98 250.66 98.03   C 250.65 91.85 249.32 86.13 246.65 80.86   C 239.96 67.65 226.68 62.95 212.74 62.82   C 199.57 62.70 190.02 68.94 184.08 81.54   C 182.44 85.01 181.61 88.44 181.60 91.81   C 181.47 128.86 181.43 162.26 181.47 192.00   C 181.48 197.86 181.22 204.30 182.52 209.83   C 188.87 236.69 224.63 247.74 242.68 224.63   C 243.05 225.28 243.41 224.82 243.78 223.26   C 247.15 219.01 249.76 214.29 251.59 209.11   C 251.81 208.49 251.92 207.83 251.91 207.17   L 251.26 158.55   C 251.25 158.28 251.03 158.06 250.76 158.07   L 217.70 158.51   C 217.43 158.52 217.21 158.30 217.21 158.03   L 216.99 141.72   C 216.98 141.36 217.27 141.06 217.63 141.07   L 300.00 141.73   L 300.00 144.59   C 299.39 152.23 298.58 158.87 297.57 164.50   C 294.30 182.69 286.77 198.70 275.00 212.51   C 269.12 219.40 261.12 226.48 253.48 231.51   C 242.59 238.68 231.08 244.33 218.95 248.46   C 206.43 252.72 194.23 255.67 182.36 257.31   C 179.13 257.75 177.09 258.02 176.24 258.11   C 171.51 258.59 167.94 258.96 165.51 259.23   C 162.89 259.52 158.81 259.69 153.28 259.72   L 153.18 252.35   L 153.23 223.24   C 153.48 222.02 153.48 220.69 153.25 219.25   L 153.24 160.78   L 153.19 156.19   L 153.29 109.58   C 153.56 108.44 153.54 107.36 153.23 106.33   L 153.30 87.55   L 153.29 40.88   C 170.68 41.93 187.46 44.43 203.63 48.39   C 213.06 50.70 222.96 53.98 233.31 58.25   C 235.34 59.08 236.63 60.31 238.44 60.69   C 238.66 60.74 238.87 60.81 239.06 60.92   C 246.53 64.95 251.82 68.01 254.92 70.08   C 264.98 76.79 273.42 84.43 280.23 93.00   C 286.53 100.92 291.45 110.07 295.00 120.44   C 295.46 121.79 295.39 123.19 296.08 124.04   C 296.36 124.39 296.54 124.90 296.63 125.57   C 296.96 128.18 297.43 130.75 298.05 133.29   Z" />
<path fill="#ffffff" d="   M 298.05 133.29   C 298.90 133.82 299.32 134.56 299.33 135.50   C 299.34 137.20 299.57 138.44 300.00 139.23   L 300.00 141.73   L 217.63 141.07   C 217.27 141.06 216.98 141.36 216.99 141.72   L 217.21 158.03   C 217.21 158.30 217.43 158.52 217.70 158.51   L 250.76 158.07   C 251.03 158.06 251.25 158.28 251.26 158.55   L 251.91 207.17   C 251.92 207.83 251.81 208.49 251.59 209.11   C 249.76 214.29 247.15 219.01 243.78 223.26   C 243.36 223.24 243.04 223.34 242.81 223.56   C 242.54 223.82 242.50 224.18 242.68 224.63   C 224.63 247.74 188.87 236.69 182.52 209.83   C 181.22 204.30 181.48 197.86 181.47 192.00   C 181.43 162.26 181.47 128.86 181.60 91.81   C 181.61 88.44 182.44 85.01 184.08 81.54   C 190.02 68.94 199.57 62.70 212.74 62.82   C 226.68 62.95 239.96 67.65 246.65 80.86   C 249.32 86.13 250.65 91.85 250.66 98.03   C 250.66 109.98 250.63 121.58 250.56 132.83   C 250.56 133.11 250.78 133.33 251.06 133.33   L 298.05 133.29   Z" />
<path fill="#ffffff" d="   M 95.81 80.29   C 91.92 85.39 88.97 90.12 86.96 94.47   C 85.63 97.35 84.74 99.24 84.28 100.15   C 84.13 100.43 83.82 100.58 83.52 100.51   C 72.69 98.14 62.48 94.45 52.90 89.44   C 52.53 89.25 52.44 88.76 52.72 88.45   C 57.80 82.76 63.32 77.47 69.27 72.59   C 69.71 72.23 70.23 71.98 70.79 71.86   L 83.39 69.26   C 83.48 69.24 83.56 69.33 83.53 69.42   C 83.09 70.82 82.71 76.17 83.61 78.00   C 83.97 78.72 84.77 79.11 85.56 78.95   L 91.28 77.77   C 91.83 77.66 92.40 77.84 92.78 78.25   C 93.59 79.14 94.50 79.60 95.50 79.63   C 95.83 79.64 96.01 80.03 95.81 80.29   Z" />
<path fill="#ffffff" d="   M 62.56 72.75   C 62.70 72.69 62.86 72.75 62.94 72.88   C 63.02 73.01 63.00 73.18 62.88 73.28   C 58.01 77.47 53.66 82.08 49.83 87.13   C 49.69 87.32 49.41 87.36 49.21 87.22   L 40.88 81.07   C 40.51 80.80 40.44 80.29 40.71 79.93   C 42.79 77.19 45.02 75.99 48.91 76.24   C 51.52 76.41 53.78 75.63 55.70 73.88   C 55.97 73.63 56.33 73.52 56.69 73.57   C 58.50 73.84 60.45 73.57 62.56 72.75   Z" />
<path fill="#ffffff" d="   M 87.82 100.80   C 91.10 93.37 95.08 86.17 99.76 79.21   C 101.05 77.27 103.94 77.97 105.01 79.65   C 105.11 79.82 105.17 80.01 105.17 80.21   L 105.30 89.73   C 105.31 90.44 104.61 90.96 103.93 90.73   L 100.37 89.55   C 99.03 89.11 97.63 90.04 97.53 91.45   C 97.23 95.50 96.06 99.05 94.01 102.10   C 93.78 102.44 93.37 102.61 92.97 102.53   L 88.24 101.60   C 87.88 101.53 87.67 101.14 87.82 100.80   Z" />
<path fill="#ffffff" d="   M 153.30 87.55   L 153.23 106.33   L 127.10 106.12   C 126.85 106.12 126.66 105.89 126.71 105.64   L 128.07 98.73   C 128.36 97.29 130.23 96.89 131.07 98.09   L 133.24 101.16   C 133.58 101.64 134.15 101.91 134.74 101.86   L 141.52 101.24   C 142.51 101.15 143.13 100.12 142.74 99.20   C 141.06 95.23 136.23 83.64 142.00 81.15   C 143.42 80.54 144.97 80.41 146.65 80.78   C 147.09 80.87 147.45 81.19 147.59 81.62   C 148.44 84.21 150.34 86.19 153.30 87.55   Z" />
<path fill="#ffffff" d="   M 31.01 126.40   C 30.95 126.65 30.66 126.75 30.45 126.61   L 16.00 116.79   C 15.71 116.59 15.61 116.20 15.79 115.89   L 20.46 107.52   C 20.50 107.45 20.52 107.37 20.52 107.28   L 20.49 104.98   C 20.46 103.50 21.07 102.09 22.15 101.09   L 33.71 90.39   C 34.53 89.63 34.88 88.49 34.61 87.40   C 34.32 86.21 33.75 84.98 32.90 83.69   C 32.71 83.41 32.69 83.06 32.84 82.77   C 33.22 82.02 33.83 81.44 34.66 81.03   C 35.01 80.86 35.41 81.11 35.41 81.49   C 35.42 82.71 35.90 83.36 36.86 83.45   C 37.10 83.48 37.34 83.40 37.52 83.23   L 38.44 82.37   C 38.58 82.25 38.78 82.24 38.93 82.35   L 47.65 88.77   C 47.95 88.99 48.02 89.41 47.80 89.71   C 39.89 100.80 34.30 113.03 31.01 126.40   Z" />
<path fill="#ffffff" d="   M 69.12 141.17   L 69.50 145.36   C 69.51 145.44 69.43 145.51 69.35 145.48   C 56.70 140.76 44.69 135.00 33.31 128.21   C 33.01 128.03 32.86 127.68 32.94 127.35   C 35.87 114.05 41.69 102.08 50.38 91.43   C 50.57 91.20 50.90 91.14 51.17 91.29   C 55.49 93.74 58.22 95.20 59.36 95.67   C 66.51 98.59 74.18 101.09 82.37 103.16   C 82.75 103.26 82.97 103.66 82.84 104.03   L 80.15 111.82   C 80.07 112.04 79.94 112.25 79.77 112.41   L 71.63 120.22   C 71.44 120.40 71.29 120.63 71.19 120.87   C 70.04 123.77 72.23 130.34 72.96 133.48   C 73.31 134.98 72.51 137.58 70.24 136.95   C 68.78 136.54 67.88 136.22 67.54 135.99   C 67.28 135.81 66.95 135.77 66.65 135.88   C 65.92 136.16 65.28 136.67 64.75 137.42   C 64.54 137.71 64.59 138.10 64.85 138.35   C 66.08 139.51 67.42 140.33 68.85 140.82   C 69.00 140.87 69.11 141.01 69.12 141.17   Z" />
<path fill="#ffffff" d="   M 125.75 96.96   L 124.12 105.23   C 124.04 105.63 123.67 105.91 123.26 105.88   L 104.32 104.42   C 103.66 104.37 103.22 103.71 103.44 103.08   L 104.58 99.77   C 104.83 99.05 105.53 98.58 106.30 98.64   L 115.39 99.34   C 116.28 99.41 117.17 99.18 117.92 98.69   C 120.19 97.21 122.74 96.55 125.57 96.72   C 125.69 96.73 125.78 96.84 125.75 96.96   Z" />
<path fill="#ffffff" d="   M 120.64 156.50   C 120.65 156.62 120.54 156.72 120.42 156.71   C 110.03 155.90 99.73 154.21 89.50 151.64   C 89.15 151.55 88.86 151.33 88.69 151.02   C 87.76 149.30 86.30 147.91 84.33 146.85   C 83.17 146.22 82.70 144.80 83.26 143.61   C 83.96 142.14 84.72 140.55 85.53 138.83   C 87.03 135.69 93.00 132.65 94.81 130.68   C 95.05 130.42 95.18 130.07 95.18 129.72   C 95.18 128.79 94.97 127.84 94.55 126.87   C 94.45 126.63 94.29 126.41 94.09 126.25   L 90.19 123.02   C 89.39 122.36 89.35 121.15 90.11 120.44   C 91.83 118.82 94.18 117.00 93.60 114.94   C 93.38 114.17 92.44 113.81 91.60 114.18   C 89.81 114.99 87.88 116.12 85.83 117.58   C 85.41 117.88 84.84 117.84 84.46 117.49   C 83.81 116.88 83.31 115.99 82.97 114.81   C 82.89 114.54 82.89 114.26 82.99 113.99   L 86.06 105.07   C 86.16 104.79 86.44 104.63 86.73 104.69   L 92.51 105.83   C 93.02 105.93 93.44 106.30 93.59 106.79   C 94.94 111.09 98.35 109.87 101.29 107.98   C 101.66 107.74 102.10 107.63 102.53 107.67   L 122.77 109.23   C 123.05 109.25 123.25 109.51 123.21 109.79   C 120.84 125.44 119.98 141.01 120.64 156.50   Z" />
<path fill="#ffffff" d="   M 153.29 109.58   L 153.19 156.19   C 143.62 157.34 134.18 157.60 124.87 156.98   C 124.57 156.96 124.34 156.72 124.33 156.42   C 123.82 140.89 124.30 125.44 125.77 110.06   C 125.81 109.65 126.15 109.34 126.56 109.35   L 153.29 109.58   Z" />
<path fill="#ffffff" d="   M 46.14 194.51   L 24.74 182.15   C 24.12 181.79 24.18 180.87 24.84 180.60   L 29.70 178.59   C 30.13 178.41 30.34 177.92 30.18 177.48   L 29.73 176.28   C 29.61 175.95 29.56 175.59 29.61 175.24   C 29.76 173.04 31.42 170.54 28.87 168.44   C 28.52 168.15 27.99 168.30 27.84 168.73   C 27.21 170.60 25.92 171.33 23.85 172.82   C 23.44 173.12 23.17 173.55 23.07 174.04   L 22.03 179.29   C 21.95 179.73 21.43 179.92 21.07 179.66   L 9.09 170.83   C 8.69 170.54 8.79 169.93 9.25 169.76   C 11.28 169.03 13.05 168.05 14.57 166.80   C 15.16 166.31 15.23 165.42 14.71 164.85   C 13.20 163.16 12.08 161.12 11.37 158.73   C 11.20 158.15 11.33 157.52 11.73 157.06   C 13.41 155.13 13.89 153.57 13.18 152.38   C 13.11 152.27 13.03 152.17 12.92 152.08   L 9.34 149.16   C 8.49 148.47 8.08 147.39 8.26 146.31   C 8.42 145.34 8.66 144.22 8.99 142.95   C 10.13 138.62 7.53 136.11 5.00 133.13   C 4.73 132.81 4.62 132.39 4.70 131.98   L 5.70 126.92   C 5.78 126.48 6.01 126.07 6.34 125.76   L 12.29 120.26   C 12.54 120.02 12.94 120.02 13.20 120.26   C 18.05 124.72 23.48 128.83 29.51 132.58   C 29.85 132.79 30.05 133.18 30.01 133.58   C 28.33 155.67 33.82 175.86 46.48 194.14   C 46.64 194.37 46.38 194.65 46.14 194.51   Z   M 14.20 135.40   C 13.87 135.93 14.26 136.61 14.88 136.60   L 22.83 136.50   C 24.09 136.48 24.83 135.08 24.14 134.03   L 21.88 130.61   C 21.83 130.53 21.76 130.46 21.68 130.41   C 20.18 129.42 18.45 129.14 16.50 129.57   C 16.12 129.65 15.85 129.98 15.84 130.36   C 15.79 132.09 15.24 133.77 14.20 135.40   Z" />
<path fill="#092178" d="   M 14.20 135.40   C 15.24 133.77 15.79 132.09 15.84 130.36   C 15.85 129.98 16.12 129.65 16.50 129.57   C 18.45 129.14 20.18 129.42 21.68 130.41   C 21.76 130.46 21.83 130.53 21.88 130.61   L 24.14 134.03   C 24.83 135.08 24.09 136.48 22.83 136.50   L 14.88 136.60   C 14.26 136.61 13.87 135.93 14.20 135.40   Z" />
<path fill="#ffffff" d="   M 93.55 212.39   C 81.66 209.65 70.01 205.72 58.58 200.59   C 58.35 200.49 58.22 200.25 58.25 200.00   C 58.53 197.94 59.51 197.11 61.74 196.58   C 64.72 195.87 67.03 193.95 68.67 190.81   C 68.83 190.50 68.73 190.12 68.44 189.93   C 67.37 189.24 66.44 188.53 65.67 187.78   C 65.03 187.16 64.86 186.27 65.25 185.63   C 65.60 185.07 66.29 184.63 67.32 184.30   C 67.73 184.17 67.90 183.68 67.65 183.32   C 67.30 182.82 66.58 182.37 65.50 181.98   C 65.20 181.87 64.86 182.05 64.79 182.37   C 64.11 185.34 61.34 186.95 62.14 190.21   C 62.29 190.79 62.01 191.40 61.47 191.67   L 59.23 192.81   C 58.99 192.93 58.78 193.12 58.62 193.35   L 55.83 197.46   C 55.36 198.15 54.48 198.45 53.69 198.18   C 51.89 197.59 50.51 196.60 49.55 195.22   C 37.20 177.57 30.03 156.24 31.96 134.62   C 31.98 134.38 32.25 134.24 32.46 134.36   C 45.71 142.06 59.87 147.91 74.92 151.92   C 75.28 152.02 75.54 152.33 75.58 152.70   L 76.45 162.19   C 76.48 162.54 76.22 162.85 75.87 162.87   C 75.04 162.94 74.24 163.23 73.49 163.75   C 72.52 164.41 72.84 165.91 73.99 166.14   L 76.49 166.64   C 76.84 166.71 77.12 166.99 77.18 167.34   C 78.75 175.95 79.94 181.50 80.75 184.01   C 83.84 193.52 88.22 202.81 93.91 211.89   C 94.06 212.14 93.84 212.45 93.55 212.39   Z   M 71.65 174.46   C 71.64 173.79 70.94 173.36 70.34 173.65   C 66.75 175.39 66.02 177.56 68.13 180.15   C 68.36 180.43 68.70 180.58 69.05 180.57   C 69.62 180.55 70.30 180.37 71.10 180.03   C 71.48 179.87 71.72 179.50 71.71 179.09   L 71.65 174.46   Z" />
<path fill="#ffffff" d="   M 103.88 158.89   C 103.77 158.73 103.91 158.51 104.10 158.54   L 120.48 160.68   C 120.72 160.72 120.90 160.91 120.92 161.14   L 122.03 173.26   C 122.11 174.15 121.11 174.71 120.39 174.19   L 116.89 171.60   C 116.21 171.10 115.26 171.27 114.79 171.96   L 113.90 173.27   C 113.25 174.22 113.50 175.53 114.46 176.18   L 118.64 179.03   C 118.90 179.20 119.01 179.53 118.92 179.83   C 118.65 180.72 118.20 181.64 117.59 182.57   C 116.79 183.79 114.68 184.26 113.48 185.44   C 113.22 185.69 113.21 186.10 113.45 186.37   L 117.62 190.87   C 118.13 191.42 118.18 192.26 117.74 192.87   C 117.29 193.48 117.01 193.98 116.89 194.37   C 116.70 194.98 117.35 195.51 117.90 195.20   C 119.18 194.50 120.09 193.77 120.62 193.00   C 120.86 192.64 120.96 192.20 120.90 191.77   C 120.50 189.14 119.93 186.87 120.61 184.92   C 120.72 184.60 121.13 184.51 121.36 184.76   C 122.90 186.43 123.99 187.94 124.64 189.31   C 124.67 189.36 124.69 189.42 124.70 189.48   L 126.89 198.93   C 126.95 199.21 126.91 199.51 126.76 199.76   C 126.06 200.91 124.97 201.72 123.50 202.19   C 123.04 202.33 122.91 202.92 123.26 203.25   C 124.78 204.70 125.39 206.52 125.10 208.69   C 125.05 209.04 124.77 209.31 124.41 209.34   L 121.86 209.58   C 121.44 209.62 121.04 209.82 120.76 210.14   C 120.18 210.83 119.54 211.08 118.84 210.90   C 118.18 210.73 117.48 211.01 117.10 211.58   C 115.81 213.55 114.19 214.95 112.22 215.80   C 111.96 215.91 111.67 215.94 111.40 215.89   L 107.61 215.16   C 107.28 215.10 106.99 214.88 106.83 214.58   C 106.08 213.15 105.01 211.64 103.60 210.06   C 102.90 209.28 101.88 209.06 101.39 209.58   C 100.65 210.37 100.49 211.69 100.90 213.56   C 100.95 213.81 100.75 214.04 100.49 214.01   C 98.90 213.84 97.78 213.22 97.13 212.15   C 94.14 207.24 91.27 201.53 88.52 195.03   C 88.39 194.72 88.38 194.37 88.51 194.06   C 89.26 192.19 90.53 191.19 92.34 191.08   C 92.61 191.07 92.86 190.93 93.02 190.71   L 94.37 188.88   C 94.72 188.41 95.22 188.09 95.79 187.97   L 100.11 187.08   C 101.10 186.87 101.57 185.73 101.01 184.89   L 99.76 182.99   C 99.31 182.31 98.34 182.24 97.79 182.84   C 96.30 184.46 95.34 184.71 94.91 183.59   C 94.63 182.86 94.36 181.98 94.09 180.97   C 93.95 180.43 93.43 180.08 92.88 180.13   L 89.23 180.46   C 88.66 180.51 88.34 181.16 88.66 181.64   L 90.99 185.17   C 91.53 185.98 91.51 187.03 90.94 187.82   C 90.26 188.75 89.34 189.55 88.18 190.22   C 87.40 190.67 86.41 190.26 86.17 189.39   L 82.46 175.99   C 82.40 175.77 82.38 175.55 82.39 175.33   C 82.55 173.37 83.32 172.13 84.70 171.62   C 85.49 171.32 85.72 170.33 85.15 169.71   L 80.14 164.29   C 79.38 163.48 79.43 162.21 80.25 161.46   L 87.02 155.18   C 87.13 155.08 87.29 155.03 87.45 155.06   L 89.89 155.55   C 91.26 155.82 91.75 157.53 90.72 158.48   L 87.08 161.85   C 86.84 162.08 86.73 162.40 86.78 162.73   C 86.88 163.32 87.31 163.86 88.07 164.36   C 89.25 165.12 90.28 164.48 91.56 164.17   C 91.99 164.07 92.44 164.14 92.83 164.36   C 94.45 165.28 96.36 166.46 97.46 166.31   C 98.00 166.24 98.25 165.59 97.88 165.18   L 93.46 160.31   C 93.18 160.00 93.46 159.52 93.86 159.60   L 98.81 160.58   C 99.87 160.79 100.76 161.51 101.17 162.51   L 102.83 166.50   C 102.94 166.78 103.13 167.02 103.38 167.19   C 105.10 168.42 106.78 169.16 108.42 169.41   C 109.45 169.56 110.17 168.43 109.60 167.56   L 103.88 158.89   Z   M 103.61 171.93   C 102.48 171.71 101.89 173.21 102.86 173.82   C 105.58 175.53 107.17 177.22 107.64 178.88   C 107.86 179.65 108.95 179.66 109.17 178.89   C 109.52 177.64 109.39 176.03 108.76 174.07   C 108.52 173.33 107.90 172.77 107.14 172.62   L 103.61 171.93   Z   M 93.05 175.31   L 95.62 175.98   C 95.86 176.04 96.10 175.90 96.16 175.67   L 96.20 175.51   C 96.50 174.39 95.99 173.29 95.08 173.05   L 94.96 173.02   C 94.05 172.78 93.07 173.49 92.78 174.62   L 92.74 174.77   C 92.68 175.01 92.82 175.25 93.05 175.31   Z   M 104.71 199.61   C 107.66 200.11 108.68 198.82 108.47 196.05   C 108.44 195.72 108.26 195.42 107.97 195.25   C 107.02 194.68 105.95 193.52 104.78 191.76   C 103.41 189.70 102.17 190.27 100.19 190.89   C 99.40 191.14 98.87 191.37 98.60 191.56   C 98.31 191.78 98.15 192.13 98.16 192.49   C 98.19 193.04 98.24 194.22 98.33 196.04   C 98.39 197.25 97.51 198.26 96.39 198.28   C 94.24 198.31 93.32 199.10 93.65 200.65   C 93.77 201.23 94.22 201.67 94.80 201.79   L 97.14 202.25   C 97.64 202.35 98.10 202.60 98.44 202.97   L 101.16 205.92   C 101.60 206.39 102.36 206.35 102.74 205.83   L 104.91 202.89   C 105.29 202.37 105.25 201.66 104.82 201.18   C 104.45 200.78 104.23 200.47 104.16 200.26   C 104.04 199.90 104.34 199.55 104.71 199.61   Z   M 111.98 203.00   L 115.71 195.92   C 115.78 195.79 115.73 195.63 115.60 195.56   L 114.96 195.22   C 113.64 194.53 111.86 195.30 110.98 196.96   L 110.16 198.52   C 109.29 200.17 109.66 202.08 110.98 202.78   L 111.62 203.11   C 111.75 203.18 111.91 203.13 111.98 203.00   Z" />
<path fill="#ffffff" d="   M 153.24 160.78   L 153.25 219.25   L 138.29 218.90   C 137.69 218.89 137.15 218.51 136.93 217.94   C 130.11 200.03 125.25 180.71 124.35 161.32   C 124.34 161.09 124.53 160.90 124.76 160.92   C 134.13 161.77 143.62 161.73 153.24 160.78   Z" />
<path fill="#092178" d="   M 103.61 171.93   L 107.14 172.62   C 107.90 172.77 108.52 173.33 108.76 174.07   C 109.39 176.03 109.52 177.64 109.17 178.89   C 108.95 179.66 107.86 179.65 107.64 178.88   C 107.17 177.22 105.58 175.53 102.86 173.82   C 101.89 173.21 102.48 171.71 103.61 171.93   Z" />
<path fill="#092178" d="   M 93.05 175.31   C 92.82 175.25 92.68 175.01 92.74 174.77   L 92.78 174.62   C 93.07 173.49 94.05 172.78 94.96 173.02   L 95.08 173.05   C 95.99 173.29 96.50 174.39 96.20 175.51   L 96.16 175.67   C 96.10 175.90 95.86 176.04 95.62 175.98   L 93.05 175.31   Z" />
<path fill="#092178" d="   M 71.65 174.46   L 71.71 179.09   C 71.72 179.50 71.48 179.87 71.10 180.03   C 70.30 180.37 69.62 180.55 69.05 180.57   C 68.70 180.58 68.36 180.43 68.13 180.15   C 66.02 177.56 66.75 175.39 70.34 173.65   C 70.94 173.36 71.64 173.79 71.65 174.46   Z" />
<path fill="#ffffff" d="   M 8.26 175.28   L 19.83 183.81   C 20.10 184.01 20.18 184.38 20.01 184.68   C 18.18 187.88 15.71 189.25 12.61 188.80   C 11.08 188.57 10.01 187.66 9.42 186.07   C 8.65 183.98 7.87 181.83 7.08 179.62   C 7.05 179.51 7.04 179.41 7.06 179.30   L 7.82 175.45   C 7.86 175.25 8.09 175.16 8.26 175.28   Z" />
<path fill="#ffffff" d="   M 49.86 201.25   C 50.12 201.37 50.18 201.72 49.99 201.93   C 48.12 204.00 45.96 205.64 43.52 206.86   C 42.50 207.37 41.95 208.50 42.18 209.62   L 42.65 211.90   C 42.79 212.60 43.65 212.87 44.17 212.38   L 53.10 204.12   C 53.48 203.77 54.07 203.80 54.41 204.18   C 66.25 217.52 79.45 228.70 94.00 237.71   C 108.63 246.78 124.07 252.77 140.32 255.69   C 140.67 255.75 140.92 256.07 140.89 256.43   L 140.81 257.50   C 140.78 257.81 140.51 258.04 140.20 258.02   C 118.64 256.53 98.08 252.35 78.52 245.47   C 58.16 238.31 38.97 227.03 24.86 210.86   C 24.19 210.08 24.35 208.89 25.21 208.32   L 27.30 206.94   C 27.59 206.76 27.81 206.49 27.95 206.18   L 30.12 201.31   C 30.38 200.73 31.18 200.65 31.55 201.17   C 33.11 203.37 36.17 206.88 38.17 202.33   C 38.48 201.62 38.16 200.78 37.45 200.47   L 29.65 196.98   C 28.98 196.68 28.41 196.19 28.01 195.57   C 27.01 194.02 25.79 192.49 24.34 190.96   C 23.35 189.90 23.04 188.15 23.35 186.87   C 23.42 186.59 23.74 186.46 23.98 186.62   C 32.50 192.25 41.13 197.12 49.86 201.25   Z   M 83.24 236.59   C 82.51 235.28 81.32 234.57 79.68 234.46   C 78.13 234.36 77.37 234.90 77.38 236.09   C 77.39 236.94 78.04 237.88 79.31 238.91   C 79.73 239.24 80.31 239.30 80.78 239.06   C 82.05 238.43 82.84 237.91 83.16 237.52   C 83.38 237.26 83.41 236.89 83.24 236.59   Z" />
<path fill="#092178" d="   M 104.16 200.26   C 104.23 200.47 104.45 200.78 104.82 201.18   C 105.25 201.66 105.29 202.37 104.91 202.89   L 102.74 205.83   C 102.36 206.35 101.60 206.39 101.16 205.92   L 98.44 202.97   C 98.10 202.60 97.64 202.35 97.14 202.25   L 94.80 201.79   C 94.22 201.67 93.77 201.23 93.65 200.65   C 93.32 199.10 94.24 198.31 96.39 198.28   C 97.51 198.26 98.39 197.25 98.33 196.04   C 98.24 194.22 98.19 193.04 98.16 192.49   C 98.15 192.13 98.31 191.78 98.60 191.56   C 98.87 191.37 99.40 191.14 100.19 190.89   C 102.17 190.27 103.41 189.70 104.78 191.76   C 105.95 193.52 107.02 194.68 107.97 195.25   C 108.26 195.42 108.44 195.72 108.47 196.05   C 108.68 198.82 107.66 200.11 104.71 199.61   C 104.34 199.55 104.04 199.90 104.16 200.26   Z" />
<path fill="#092178" d="   M 111.98 203.00   C 111.91 203.13 111.75 203.18 111.62 203.11   L 110.98 202.78   C 109.66 202.08 109.29 200.17 110.16 198.52   L 110.98 196.96   C 111.86 195.30 113.64 194.53 114.96 195.22   L 115.60 195.56   C 115.73 195.63 115.78 195.79 115.71 195.92   L 111.98 203.00   Z" />
<path fill="#ffffff" d="   M 92.72 216.76   C 93.09 216.85 93.19 217.32 92.90 217.56   C 91.03 219.06 90.11 221.06 90.14 223.55   C 90.15 224.22 90.22 224.64 90.36 224.83   C 90.82 225.47 91.86 225.47 92.62 224.83   C 94.44 223.28 95.14 221.75 94.72 220.22   C 94.62 219.85 94.74 219.45 95.02 219.19   L 96.42 217.89   C 96.85 217.50 97.52 217.57 97.85 218.05   C 108.53 233.76 122.75 246.82 140.31 254.14   C 140.42 254.18 140.47 254.30 140.44 254.41   C 140.41 254.53 140.30 254.60 140.19 254.58   C 123.41 251.98 106.92 243.77 92.85 234.13   C 80.76 225.84 69.32 216.30 58.53 205.51   C 58.39 205.38 58.54 205.15 58.72 205.23   C 69.55 209.98 80.88 213.83 92.72 216.76   Z" />
<path fill="#ffffff" d="   M 101.98 218.83   L 111.85 220.78   C 112.19 220.84 112.50 221.05 112.69 221.34   L 114.13 223.57   C 114.32 223.86 114.31 224.25 114.10 224.53   L 111.02 228.71   C 110.77 229.06 110.26 229.09 109.96 228.77   L 101.52 219.66   C 101.19 219.30 101.51 218.74 101.98 218.83   Z" />
<path fill="#ffffff" d="   M 150.44 252.39   L 148.14 254.52   C 147.96 254.69 147.72 254.78 147.48 254.77   C 146.50 254.75 145.44 254.50 144.31 254.02   C 134.98 250.03 126.44 244.65 118.69 237.87   C 117.32 236.67 116.89 235.33 117.40 233.85   C 117.63 233.18 118.39 232.87 119.02 233.19   L 123.53 235.47   C 123.91 235.66 124.33 235.75 124.75 235.73   C 126.75 235.64 128.39 234.97 129.68 233.73   C 130.25 233.18 130.23 232.25 129.63 231.73   C 126.62 229.10 124.67 227.98 123.29 222.93   C 123.20 222.61 123.45 222.29 123.78 222.30   C 126.77 222.37 128.64 222.63 129.39 223.10   C 132.91 225.32 137.04 227.27 138.84 231.05   C 141.71 237.06 145.62 243.78 150.58 251.23   C 150.82 251.60 150.76 252.09 150.44 252.39   Z" />
<path fill="#ffffff" d="   M 153.23 223.24   L 153.18 252.35   C 147.67 242.88 143.02 233.33 139.22 223.70   C 139.14 223.50 139.29 223.29 139.50 223.29   L 153.23 223.24   Z" />
<path fill="#092178" d="   M 83.16 237.52   C 82.84 237.91 82.05 238.43 80.78 239.06   C 80.31 239.30 79.73 239.24 79.31 238.91   C 78.04 237.88 77.39 236.94 77.38 236.09   C 77.37 234.90 78.13 234.36 79.68 234.46   C 81.32 234.57 82.51 235.28 83.24 236.59   C 83.41 236.89 83.38 237.26 83.16 237.52   Z" />
</svg>