<?xml version='1.0' encoding='utf-8'?>
<svg xmlns="http://www.w3.org/2000/svg" version="1.1" viewBox="0.00 0.00 299.01 298.87" width="300" height="299">
<path fill="#ffffff" d="   M 161.63 2.10   L 142.85 1.95   C 142.99 1.18 143.55 0.80 144.52 0.79   C 149.69 0.76 154.85 0.79 160.00 0.90   C 161.11 0.92 161.66 1.32 161.63 2.10   Z" />
<path fill="#fa0030" d="   M 142.85 1.95   L 161.63 2.10   L 171.98 2.98   C 172.01 2.98 172.05 2.99 172.08 3.00   C 178.68 4.56 184.00 5.13 190.84 7.37   C 202.69 11.25 210.81 14.33 215.20 16.61   C 216.62 17.34 220.70 19.83 227.44 24.08   C 232.77 27.43 237.46 31.33 242.69 34.86   C 243.16 35.17 243.58 35.53 243.97 35.94   C 245.54 37.57 246.72 38.76 248.60 40.11   C 252.86 43.19 255.98 46.05 257.96 48.68   C 261.27 53.08 263.65 55.91 265.12 57.18   C 265.57 57.57 265.97 58.02 266.30 58.52   C 268.69 62.16 270.99 65.41 273.22 68.28   C 275.19 70.82 276.98 73.81 278.59 77.26   C 281.33 83.14 285.23 89.86 287.44 96.61   C 288.45 99.73 288.97 101.31 288.99 101.34   C 289.68 102.71 290.15 104.28 290.40 106.06   C 290.63 107.69 291.24 109.90 292.22 112.67   C 293.49 116.25 293.20 119.85 294.84 123.21   C 295.12 123.79 295.25 124.44 295.21 125.09   C 295.00 128.24 295.26 131.13 295.98 133.76   C 296.61 136.06 296.93 138.24 296.95 140.31   C 297.01 147.12 296.99 153.70 296.89 160.04   C 296.88 161.15 296.74 162.26 296.48 163.34   C 295.77 166.29 295.46 167.21 295.23 170.03   C 295.08 171.87 294.59 174.06 293.74 176.60   C 293.67 176.79 293.63 176.98 293.60 177.17   L 293.01 181.54   C 292.98 181.74 292.92 181.93 292.83 182.12   C 292.30 183.25 291.98 184.55 291.87 186.01   C 291.79 187.07 291.56 188.12 291.19 189.11   C 289.34 194.07 288.23 197.25 287.85 198.66   C 286.90 202.12 285.65 205.14 284.10 207.72   C 283.77 208.28 281.85 212.21 278.34 219.50   C 276.40 223.55 274.35 226.99 272.19 229.83   C 269.25 233.70 266.55 237.13 264.10 240.10   C 262.52 242.02 261.23 243.76 260.22 245.33   C 259.97 245.70 259.69 246.05 259.38 246.37   C 253.11 252.67 249.19 257.03 243.02 261.93   C 237.31 266.48 233.01 269.80 230.14 271.88   C 228.75 272.88 225.70 274.70 220.99 277.35   C 220.79 277.46 217.85 279.00 212.18 281.95   C 204.14 286.14 195.59 289.40 186.52 291.75   C 181.84 292.96 178.97 293.59 177.90 293.63   C 174.10 293.77 170.85 295.20 166.94 295.15   C 166.44 295.14 165.94 295.22 165.46 295.38   L 161.13 296.79   C 160.96 296.84 160.79 296.87 160.62 296.87   L 138.62 296.87   C 138.09 296.87 137.58 296.74 137.11 296.50   C 133.45 294.59 130.72 295.61 127.16 294.53   C 125.01 293.88 122.88 293.51 120.78 293.43   C 120.16 293.41 119.56 293.23 119.03 292.91   C 117.12 291.75 114.40 291.94 112.50 291.20   C 109.68 290.11 106.27 289.93 103.16 288.85   C 97.03 286.72 93.14 285.19 91.48 284.25   C 87.17 281.82 84.50 280.57 83.46 280.51   C 83.03 280.49 82.61 280.34 82.26 280.09   C 79.35 277.96 71.52 274.13 65.98 269.26   C 65.63 268.95 65.26 268.68 64.87 268.44   C 62.74 267.15 61.02 265.86 59.70 264.57   C 57.10 262.02 54.71 261.02 52.25 258.63   C 45.82 252.34 40.67 247.17 36.81 243.11   C 35.58 241.82 32.00 236.92 26.07 228.41   C 23.30 224.42 22.03 220.72 19.68 216.58   C 19.08 215.52 18.33 213.85 17.43 211.58   C 14.72 204.75 12.05 197.31 9.44 189.26   C 8.29 185.74 7.43 182.44 6.85 179.36   C 6.18 175.81 5.34 172.32 4.35 168.87   C 4.34 168.84 4.34 168.80 4.33 168.76   L 3.84 161.67   C 3.82 161.37 3.73 161.09 3.59 160.84   L 2.22 158.44   C 2.04 158.13 1.95 157.78 1.95 157.43   L 1.95 137.37   C 1.95 136.66 2.08 135.94 2.34 135.27   C 3.53 132.14 4.14 129.09 4.19 126.12   C 4.22 124.23 4.50 122.80 5.03 121.83   C 6.06 119.94 5.81 117.55 6.43 115.42   C 9.43 105.19 12.53 96.46 15.74 89.23   C 16.15 88.30 18.26 84.05 22.05 76.47   C 23.55 73.48 24.99 71.09 26.36 69.30   C 30.59 63.77 32.86 59.97 36.88 56.12   C 39.96 53.18 41.25 50.06 44.50 47.74   C 46.78 46.12 50.10 43.11 54.45 38.71   C 54.82 38.34 55.22 38.00 55.65 37.71   C 58.72 35.61 61.80 33.35 64.89 30.93   C 69.42 27.38 74.63 23.56 78.31 21.37   C 82.22 19.04 86.98 16.74 92.57 14.47   C 98.76 11.96 100.93 10.98 107.34 8.34   C 110.87 6.89 114.18 6.01 117.27 5.71   C 119.78 5.47 122.24 4.37 124.98 4.41   C 125.65 4.42 126.32 4.29 126.95 4.03   L 129.59 2.93   C 129.74 2.86 129.90 2.83 130.06 2.83   C 134.29 2.76 138.02 2.71 141.24 2.68   C 142.11 2.67 142.65 2.43 142.85 1.95   Z   M 261.70 219.19   C 266.92 210.94 270.70 203.57 273.05 197.08   C 276.15 188.47 278.07 182.23 278.81 178.34   C 279.27 175.93 279.92 172.20 280.75 167.13   C 282.31 157.65 282.08 148.43 281.88 139.23   C 281.76 133.20 280.41 127.78 279.49 121.58   C 278.94 117.84 277.87 113.52 276.30 108.63   C 271.57 93.87 264.34 80.29 254.61 67.89   C 254.17 67.33 250.66 63.29 244.09 55.77   C 241.19 52.44 237.95 50.34 234.46 47.22   C 226.54 40.12 217.47 34.88 207.10 29.58   C 202.23 27.09 196.89 24.97 191.08 23.20   C 175.64 18.50 161.39 15.98 145.21 16.62   C 141.16 16.78 137.88 17.43 133.47 17.80   C 130.98 18.01 128.07 18.47 124.74 19.17   C 101.51 24.06 81.07 34.09 63.41 49.25   C 45.69 64.46 32.45 83.92 25.04 105.75   C 18.54 124.91 15.85 145.27 19.15 165.69   C 20.82 176.01 22.77 184.64 25.00 191.58   C 28.73 203.18 34.40 214.43 42.00 225.32   C 45.07 229.73 48.33 232.92 51.39 236.95   C 54.03 240.41 57.28 243.80 61.13 247.11   C 67.37 252.47 74.07 257.48 81.23 262.13   C 95.60 271.48 112.94 277.31 129.20 280.26   C 142.15 282.60 152.88 282.19 166.54 280.96   C 173.94 280.30 182.36 278.65 188.49 276.46   C 190.50 275.74 194.70 274.12 201.08 271.60   C 211.54 267.46 220.19 261.79 229.41 255.17   C 232.66 252.83 234.37 250.86 237.12 248.71   C 238.39 247.72 240.25 246.02 242.70 243.61   C 248.92 237.51 255.25 229.37 261.70 219.19   Z" />
<path fill="#ffffff" d="   M 261.70 219.19   C 255.25 229.37 248.92 237.51 242.70 243.61   C 240.25 246.02 238.39 247.72 237.12 248.71   C 234.37 250.86 232.66 252.83 229.41 255.17   C 220.19 261.79 211.54 267.46 201.08 271.60   C 194.70 274.12 190.50 275.74 188.49 276.46   C 182.36 278.65 173.94 280.30 166.54 280.96   C 152.88 282.19 142.15 282.60 129.20 280.26   C 112.94 277.31 95.60 271.48 81.23 262.13   C 74.07 257.48 67.37 252.47 61.13 247.11   C 57.28 243.80 54.03 240.41 51.39 236.95   C 48.33 232.92 45.07 229.73 42.00 225.32   C 34.40 214.43 28.73 203.18 25.00 191.58   C 22.77 184.64 20.82 176.01 19.15 165.69   C 15.85 145.27 18.54 124.91 25.04 105.75   C 32.45 83.92 45.69 64.46 63.41 49.25   C 81.07 34.09 101.51 24.06 124.74 19.17   C 128.07 18.47 130.98 18.01 133.47 17.80   C 137.88 17.43 141.16 16.78 145.21 16.62   C 161.39 15.98 175.64 18.50 191.08 23.20   C 196.89 24.97 202.23 27.09 207.10 29.58   C 217.47 34.88 226.54 40.12 234.46 47.22   C 237.95 50.34 241.19 52.44 244.09 55.77   C 250.66 63.29 254.17 67.33 254.61 67.89   C 264.34 80.29 271.57 93.87 276.30 108.63   C 277.87 113.52 278.94 117.84 279.49 121.58   C 280.41 127.78 281.76 133.20 281.88 139.23   C 282.08 148.43 282.31 157.65 280.75 167.13   C 279.92 172.20 279.27 175.93 278.81 178.34   C 278.07 182.23 276.15 188.47 273.05 197.08   C 270.70 203.57 266.92 210.94 261.70 219.19   Z   M 49.79 88.50   C 40.05 103.56 34.54 119.97 33.26 137.74   C 32.45 148.82 32.93 159.58 34.70 170.01   C 37.59 187.08 43.96 202.55 53.81 216.43   C 56.81 220.66 58.64 223.52 61.82 226.91   C 67.49 232.97 72.01 237.37 75.37 240.12   C 84.58 247.67 94.81 253.82 106.04 258.58   C 117.36 263.37 129.59 266.03 142.72 266.56   C 152.23 266.94 159.90 266.76 165.75 266.01   C 168.70 265.63 173.73 264.48 180.86 262.55   C 181.17 262.47 181.35 262.15 181.28 261.84   C 178.68 251.45 175.75 240.84 172.48 230.01   C 172.44 229.87 170.88 223.59 167.81 211.17   C 165.74 202.81 164.14 196.55 162.99 192.38   C 160.19 182.23 158.48 175.77 157.87 173.01   C 155.65 163.02 152.84 154.40 150.48 146.07   C 150.35 145.63 149.96 145.31 149.50 145.28   C 139.44 144.66 126.23 144.77 104.00 144.81   C 100.72 144.81 97.50 145.06 94.34 145.56   C 94.00 145.61 93.66 145.59 93.34 145.50   L 92.22 145.19   C 91.87 145.10 91.53 145.36 91.54 145.72   C 91.70 150.83 93.03 155.63 94.80 161.45   C 97.43 170.10 98.90 175.04 99.23 176.27   C 99.79 178.39 100.73 180.73 102.06 183.30   C 102.25 183.66 102.63 183.89 103.04 183.89   L 119.83 183.89   C 120.47 183.89 121.05 184.28 121.30 184.88   C 124.61 192.88 126.19 201.83 128.48 211.41   C 129.44 215.40 129.57 219.79 131.48 223.89   C 131.77 224.53 131.44 225.28 130.77 225.49   C 130.68 225.52 130.46 225.50 130.11 225.41   C 117.66 222.44 106.27 216.64 96.84 207.53   C 92.12 202.97 88.42 198.88 85.75 195.27   C 78.43 185.36 74.69 174.17 72.55 161.65   C 71.74 156.89 71.46 150.92 71.71 143.75   C 72.39 124.26 80.71 107.02 93.93 93.16   C 96.59 90.37 98.34 89.15 101.25 86.65   C 112.94 76.64 128.17 71.12 144.04 69.67   C 144.37 69.64 144.70 69.77 144.92 70.02   C 146.07 71.35 146.79 72.58 147.08 73.71   C 151.13 89.55 155.45 104.44 159.29 118.77   C 169.02 155.09 179.82 195.92 191.71 241.25   C 192.46 244.12 194.16 249.28 196.81 256.74   C 196.92 257.07 197.32 257.19 197.59 256.98   C 197.80 256.83 198.02 256.55 198.25 256.14   C 198.48 255.75 198.85 255.46 199.29 255.33   C 203.56 254.08 208.27 251.68 213.42 248.15   C 224.98 240.20 234.87 231.10 242.98 220.21   C 246.15 215.95 248.09 213.25 248.82 212.12   C 256.15 200.66 261.25 188.19 264.13 174.70   C 266.04 165.80 267.11 158.73 267.35 153.48   C 267.62 147.61 266.68 141.21 265.37 131.30   C 264.11 121.82 261.38 111.83 257.18 101.33   C 255.48 97.08 252.69 92.73 250.48 88.55   C 249.97 87.58 249.31 86.87 248.51 86.42   C 248.28 86.29 247.99 86.39 247.89 86.63   C 245.35 92.62 243.12 99.02 241.20 105.85   C 239.68 111.28 238.42 115.63 237.41 118.89   C 233.22 132.53 230.85 141.34 227.02 153.03   C 222.29 167.44 219.57 175.63 218.86 177.62   C 218.63 178.25 218.24 179.11 217.69 180.22   C 217.41 180.77 216.63 180.79 216.33 180.25   C 215.33 178.43 214.97 175.82 214.24 173.90   C 206.56 153.46 199.34 129.23 192.64 110.53   C 188.05 97.68 182.81 82.46 176.94 64.87   C 174.15 56.52 169.60 44.27 166.54 34.96   C 165.31 31.20 160.01 31.91 155.25 31.84   C 146.74 31.71 137.41 31.54 128.68 33.26   C 109.99 36.94 93.17 44.53 78.22 56.04   C 72.27 60.62 65.78 67.23 61.38 72.11   C 59.92 73.73 57.88 76.40 55.27 80.11   C 54.80 80.78 52.97 83.58 49.79 88.50   Z" />
<path fill="#fa0030" d="   M 55.27 80.11   C 57.88 76.40 59.92 73.73 61.38 72.11   C 65.78 67.23 72.27 60.62 78.22 56.04   C 93.17 44.53 109.99 36.94 128.68 33.26   C 137.41 31.54 146.74 31.71 155.25 31.84   C 160.01 31.91 165.31 31.20 166.54 34.96   C 169.60 44.27 174.15 56.52 176.94 64.87   C 182.81 82.46 188.05 97.68 192.64 110.53   C 199.34 129.23 206.56 153.46 214.24 173.90   C 214.97 175.82 215.33 178.43 216.33 180.25   C 216.63 180.79 217.41 180.77 217.69 180.22   C 218.24 179.11 218.63 178.25 218.86 177.62   C 219.57 175.63 222.29 167.44 227.02 153.03   C 230.85 141.34 233.22 132.53 237.41 118.89   C 238.42 115.63 239.68 111.28 241.20 105.85   C 243.12 99.02 245.35 92.62 247.89 86.63   C 247.99 86.39 248.28 86.29 248.51 86.42   C 249.31 86.87 249.97 87.58 250.48 88.55   C 252.69 92.73 255.48 97.08 257.18 101.33   C 261.38 111.83 264.11 121.82 265.37 131.30   C 266.68 141.21 267.62 147.61 267.35 153.48   C 267.11 158.73 266.04 165.80 264.13 174.70   C 261.25 188.19 256.15 200.66 248.82 212.12   C 248.09 213.25 246.15 215.95 242.98 220.21   C 234.87 231.10 224.98 240.20 213.42 248.15   C 208.27 251.68 203.56 254.08 199.29 255.33   C 198.85 255.46 198.48 255.75 198.25 256.14   C 198.02 256.55 197.80 256.83 197.59 256.98   C 197.32 257.19 196.92 257.07 196.81 256.74   C 194.16 249.28 192.46 244.12 191.71 241.25   C 179.82 195.92 169.02 155.09 159.29 118.77   C 155.45 104.44 151.13 89.55 147.08 73.71   C 146.79 72.58 146.07 71.35 144.92 70.02   C 144.70 69.77 144.37 69.64 144.04 69.67   C 128.17 71.12 112.94 76.64 101.25 86.65   C 98.34 89.15 96.59 90.37 93.93 93.16   C 80.71 107.02 72.39 124.26 71.71 143.75   C 71.46 150.92 71.74 156.89 72.55 161.65   C 74.69 174.17 78.43 185.36 85.75 195.27   C 88.42 198.88 92.12 202.97 96.84 207.53   C 106.27 216.64 117.66 222.44 130.11 225.41   C 130.46 225.50 130.68 225.52 130.77 225.49   C 131.44 225.28 131.77 224.53 131.48 223.89   C 129.57 219.79 129.44 215.40 128.48 211.41   C 126.19 201.83 124.61 192.88 121.30 184.88   C 121.05 184.28 120.47 183.89 119.83 183.89   L 103.04 183.89   C 102.63 183.89 102.25 183.66 102.06 183.30   C 100.73 180.73 99.79 178.39 99.23 176.27   C 98.90 175.04 97.43 170.10 94.80 161.45   C 93.03 155.63 91.70 150.83 91.54 145.72   C 91.53 145.36 91.87 145.10 92.22 145.19   L 93.34 145.50   C 93.66 145.59 94.00 145.61 94.34 145.56   C 97.50 145.06 100.72 144.81 104.00 144.81   C 126.23 144.77 139.44 144.66 149.50 145.28   C 149.96 145.31 150.35 145.63 150.48 146.07   C 152.84 154.40 155.65 163.02 157.87 173.01   C 158.48 175.77 160.19 182.23 162.99 192.38   C 164.14 196.55 165.74 202.81 167.81 211.17   C 170.88 223.59 172.44 229.87 172.48 230.01   C 175.75 240.84 178.68 251.45 181.28 261.84   C 181.35 262.15 181.17 262.47 180.86 262.55   C 173.73 264.48 168.70 265.63 165.75 266.01   C 159.90 266.76 152.23 266.94 142.72 266.56   C 129.59 266.03 117.36 263.37 106.04 258.58   C 94.81 253.82 84.58 247.67 75.37 240.12   C 72.01 237.37 67.49 232.97 61.82 226.91   C 58.64 223.52 56.81 220.66 53.81 216.43   C 43.96 202.55 37.59 187.08 34.70 170.01   C 32.93 159.58 32.45 148.82 33.26 137.74   C 34.54 119.97 40.05 103.56 49.79 88.50   C 52.97 83.58 54.80 80.78 55.27 80.11   Z" />
</svg>