<?xml version='1.0' encoding='utf-8'?>
<svg xmlns="http://www.w3.org/2000/svg" version="1.1" viewBox="0.00 99.33 302.00 101.40" width="50" height="16">
<path fill="#010000" d="   M 300.00 105.63   L 300.00 192.71   C 299.43 196.64 297.52 198.59 294.27 198.57   C 287.56 198.54 282.97 198.55 280.52 198.61   C 274.99 198.73 271.68 197.89 271.15 192.07   C 270.78 187.97 270.58 184.91 270.57 182.90   C 270.55 179.26 269.54 177.06 265.75 177.19   C 263.60 177.26 262.37 177.82 261.59 179.92   C 261.57 179.97 259.15 185.77 254.33 197.33   C 254.02 198.07 253.29 198.56 252.48 198.56   L 229.50 198.56   C 228.60 198.56 227.85 197.87 227.79 196.97   L 226.57 180.47   C 226.54 180.11 226.44 179.75 226.28 179.43   C 224.88 176.69 219.42 176.38 218.10 179.33   C 217.54 180.60 215.67 185.05 212.48 192.68   C 210.56 197.27 206.35 198.73 201.06 198.58   C 199.87 198.55 192.35 198.54 178.50 198.57   C 178.11 198.57 177.73 198.47 177.39 198.27   C 177.15 198.13 176.93 197.95 176.74 197.73   C 176.55 197.51 176.25 197.43 175.97 197.52   L 173.36 198.38   C 173.00 198.50 172.62 198.56 172.24 198.55   C 171.09 198.56 163.68 198.57 149.99 198.57   C 145.27 198.57 143.06 196.25 143.36 191.61   C 143.37 191.43 143.41 191.26 143.46 191.09   L 146.66 181.94   C 146.73 181.72 146.75 181.49 146.72 181.26   C 146.51 179.69 145.47 178.46 143.61 177.56   C 143.36 177.44 143.08 177.37 142.80 177.37   L 119.91 177.37   C 118.99 177.37 118.15 177.87 117.71 178.68   C 114.58 184.43 111.53 189.95 108.56 195.26   C 107.41 197.32 105.38 198.39 102.47 198.46   C 96.75 198.60 89.53 198.62 80.80 198.53   C 78.24 198.50 76.55 197.37 75.72 195.12   C 75.54 194.62 74.84 194.59 74.61 195.08   C 73.58 197.33 71.79 198.47 69.24 198.50   C 57.69 198.61 44.37 198.60 29.28 198.49   C 26.30 198.47 24.52 197.01 23.95 194.10   C 23.32 190.95 20.65 177.37 15.94 153.37   C 15.83 152.81 15.55 152.29 15.14 151.89   C 8.79 145.64 4.27 141.09 1.59 138.26   C -1.03 135.50 0.45 131.54 4.02 129.84   C 5.01 129.36 6.52 129.30 8.53 129.65   C 8.70 129.68 20.48 131.08 43.88 133.87   C 46.91 134.23 48.31 136.73 48.82 139.94   C 48.89 140.39 49.65 144.43 51.10 152.08   C 51.21 152.64 51.73 153.46 52.67 154.54   C 54.55 156.69 57.95 156.29 59.31 154.03   C 79.12 121.35 89.32 104.53 89.91 103.58   C 90.75 102.21 92.24 101.38 93.84 101.38   L 119.79 101.38   C 120.03 101.38 120.27 101.42 120.50 101.50   C 121.66 101.88 122.53 102.54 123.11 103.47   C 123.30 103.78 123.74 103.81 123.98 103.53   C 124.89 102.48 125.82 101.78 126.79 101.43   C 126.89 101.40 126.99 101.38 127.10 101.38   C 152.91 101.38 178.71 101.38 204.52 101.39   C 205.37 101.39 206.54 102.12 208.04 103.57   C 208.30 103.82 208.71 103.80 208.94 103.53   C 209.63 102.72 210.50 102.09 211.55 101.62   C 211.91 101.46 212.29 101.37 212.68 101.37   C 223.91 101.40 232.38 101.39 238.07 101.35   C 242.79 101.33 245.34 103.29 245.58 107.92   C 245.74 110.88 246.10 116.03 246.66 123.38   C 246.68 123.65 246.75 123.92 246.86 124.17   C 247.97 126.66 249.86 127.41 252.53 126.40   C 253.57 126.01 254.62 124.78 255.68 122.69   C 256.60 120.90 259.83 114.87 265.37 104.60   C 266.12 103.22 267.42 102.19 269.29 101.50   C 269.56 101.40 269.85 101.36 270.14 101.38   C 270.46 101.39 278.56 101.39 294.43 101.38   C 297.48 101.38 299.33 102.80 300.00 105.63   Z   M 121.65 106.79   C 122.61 105.05 121.87 103.51 119.92 102.89   C 119.87 102.88 119.83 102.87 119.78 102.87   L 93.39 102.91   C 93.08 102.91 92.77 103.00 92.51 103.18   C 91.72 103.71 90.97 104.57 90.25 105.75   C 73.75 132.89 64.14 148.78 61.43 153.42   C 59.20 157.24 55.29 159.12 51.62 155.47   C 50.44 154.30 49.72 153.00 49.45 151.57   C 47.90 143.20 47.09 138.91 47.04 138.69   C 46.55 136.64 45.21 135.50 43.00 135.25   C 33.82 134.24 21.90 132.82 7.25 130.99   C 2.66 130.42 -0.09 134.64 3.44 138.14   C 9.29 143.95 13.46 148.09 15.93 150.55   C 16.74 151.36 17.30 152.40 17.52 153.53   C 20.52 168.74 23.04 181.66 25.08 192.30   C 25.63 195.15 26.50 197.07 29.51 197.00   C 30.86 196.97 43.59 196.97 67.72 196.98   C 70.28 196.99 72.69 196.50 73.73 194.22   C 74.62 192.26 75.66 190.22 76.85 188.09   C 88.78 166.65 103.71 139.55 121.65 106.79   Z   M 148.38 196.99   C 163.17 196.98 171.22 196.97 172.53 196.94   C 175.14 196.89 176.91 195.47 177.85 192.66   C 180.67 184.29 190.38 156.05 206.97 107.95   C 207.81 105.50 207.14 103.87 204.96 103.06   C 204.69 102.95 204.40 102.90 204.11 102.90   L 127.88 102.90   C 126.69 102.90 125.60 103.54 125.03 104.57   C 97.22 154.62 81.33 183.30 77.36 190.61   C 75.81 193.47 77.05 197.09 80.59 197.04   C 87.20 196.93 93.87 196.92 100.61 197.02   C 104.04 197.07 106.26 196.55 107.85 193.61   C 112.24 185.50 115.05 180.39 116.26 178.27   C 116.86 177.22 117.70 176.45 118.78 175.96   C 119.04 175.84 119.33 175.78 119.61 175.78   L 142.97 175.78   C 143.15 175.78 143.33 175.81 143.50 175.87   C 151.81 178.91 146.51 186.09 145.09 191.24   C 144.48 193.46 145.08 195.22 146.89 196.51   C 147.33 196.82 147.85 196.99 148.38 196.99   Z   M 230.34 196.97   L 251.62 196.97   C 252.35 196.97 253.01 196.54 253.30 195.88   C 254.61 192.97 256.56 188.26 259.17 181.76   C 260.23 179.12 261.19 177.46 262.06 176.77   C 265.27 174.22 271.51 175.92 271.84 180.52   C 272.16 184.96 272.40 188.68 272.55 191.67   C 272.77 195.88 275.15 197.26 279.48 197.01   C 281.73 196.88 286.07 196.90 292.50 197.06   C 296.27 197.15 298.49 195.79 298.59 191.99   C 298.62 190.96 298.63 162.91 298.63 107.86   C 298.63 105.58 298.11 103.04 295.45 102.96   C 292.36 102.87 283.95 102.86 270.24 102.95   C 268.79 102.96 267.45 103.76 266.77 105.04   C 261.23 115.39 257.95 121.52 256.93 123.43   C 255.84 125.48 254.86 126.76 253.98 127.29   C 250.27 129.53 245.29 127.44 245.08 123.18   C 244.96 120.74 244.64 115.80 244.12 108.36   C 243.89 105.04 242.69 102.93 239.25 102.92   C 228.77 102.89 219.86 102.89 212.53 102.93   C 212.32 102.94 212.11 102.98 211.91 103.06   C 210.68 103.59 209.81 104.59 209.31 106.04   C 195.48 146.22 185.09 176.28 178.16 196.22   C 178.01 196.65 178.34 197.10 178.80 197.09   C 187.63 196.90 195.32 196.89 201.87 197.05   C 206.46 197.16 209.40 195.77 211.26 191.75   C 212.54 188.98 213.94 185.61 215.45 181.64   C 217.03 177.48 219.07 175.04 223.73 175.87   C 226.77 176.41 228.04 178.78 228.20 181.82   C 228.37 184.95 228.69 189.65 229.18 195.90   C 229.23 196.50 229.73 196.97 230.34 196.97   Z" />
<path fill="#ec3237" d="   M 119.92 102.89   C 121.87 103.51 122.61 105.05 121.65 106.79   C 103.71 139.55 88.78 166.65 76.85 188.09   C 75.66 190.22 74.62 192.26 73.73 194.22   C 72.69 196.50 70.28 196.99 67.72 196.98   C 43.59 196.97 30.86 196.97 29.51 197.00   C 26.50 197.07 25.63 195.15 25.08 192.30   C 23.04 181.66 20.52 168.74 17.52 153.53   C 17.30 152.40 16.74 151.36 15.93 150.55   C 13.46 148.09 9.29 143.95 3.44 138.14   C -0.09 134.64 2.66 130.42 7.25 130.99   C 21.90 132.82 33.82 134.24 43.00 135.25   C 45.21 135.50 46.55 136.64 47.04 138.69   C 47.09 138.91 47.90 143.20 49.45 151.57   C 49.72 153.00 50.44 154.30 51.62 155.47   C 55.29 159.12 59.20 157.24 61.43 153.42   C 64.14 148.78 73.75 132.89 90.25 105.75   C 90.97 104.57 91.72 103.71 92.51 103.18   C 92.77 103.00 93.08 102.91 93.39 102.91   L 119.78 102.87   C 119.83 102.87 119.87 102.88 119.92 102.89   Z" />
<path fill="#ec3237" d="   M 146.89 196.51   C 145.08 195.22 144.48 193.46 145.09 191.24   C 146.51 186.09 151.81 178.91 143.50 175.87   C 143.33 175.81 143.15 175.78 142.97 175.78   L 119.61 175.78   C 119.33 175.78 119.04 175.84 118.78 175.96   C 117.70 176.45 116.86 177.22 116.26 178.27   C 115.05 180.39 112.24 185.50 107.85 193.61   C 106.26 196.55 104.04 197.07 100.61 197.02   C 93.87 196.92 87.20 196.93 80.59 197.04   C 77.05 197.09 75.81 193.47 77.36 190.61   C 81.33 183.30 97.22 154.62 125.03 104.57   C 125.60 103.54 126.69 102.90 127.88 102.90   L 204.11 102.90   C 204.40 102.90 204.69 102.95 204.96 103.06   C 207.14 103.87 207.81 105.50 206.97 107.95   C 190.38 156.05 180.67 184.29 177.85 192.66   C 176.91 195.47 175.14 196.89 172.53 196.94   C 171.22 196.97 163.17 196.98 148.38 196.99   C 147.85 196.99 147.33 196.82 146.89 196.51   Z   M 146.35 123.70   C 146.20 123.70 146.07 123.78 146.00 123.91   L 126.37 159.60   C 126.22 159.86 126.41 160.19 126.72 160.19   L 156.75 160.19   C 156.91 160.19 157.06 160.09 157.12 159.93   L 170.83 124.24   C 170.93 123.98 170.74 123.70 170.46 123.70   L 146.35 123.70   Z" />
<path fill="#ec3237" d="   M 230.34 196.97   C 229.73 196.97 229.23 196.50 229.18 195.90   C 228.69 189.65 228.37 184.95 228.20 181.82   C 228.04 178.78 226.77 176.41 223.73 175.87   C 219.07 175.04 217.03 177.48 215.45 181.64   C 213.94 185.61 212.54 188.98 211.26 191.75   C 209.40 195.77 206.46 197.16 201.87 197.05   C 195.32 196.89 187.63 196.90 178.80 197.09   C 178.34 197.10 178.01 196.65 178.16 196.22   C 185.09 176.28 195.48 146.22 209.31 106.04   C 209.81 104.59 210.68 103.59 211.91 103.06   C 212.11 102.98 212.32 102.94 212.53 102.93   C 219.86 102.89 228.77 102.89 239.25 102.92   C 242.69 102.93 243.89 105.04 244.12 108.36   C 244.64 115.80 244.96 120.74 245.08 123.18   C 245.29 127.44 250.27 129.53 253.98 127.29   C 254.86 126.76 255.84 125.48 256.93 123.43   C 257.95 121.52 261.23 115.39 266.77 105.04   C 267.45 103.76 268.79 102.96 270.24 102.95   C 283.95 102.86 292.36 102.87 295.45 102.96   C 298.11 103.04 298.63 105.58 298.63 107.86   C 298.63 162.91 298.62 190.96 298.59 191.99   C 298.49 195.79 296.27 197.15 292.50 197.06   C 286.07 196.90 281.73 196.88 279.48 197.01   C 275.15 197.26 272.77 195.88 272.55 191.67   C 272.40 188.68 272.16 184.96 271.84 180.52   C 271.51 175.92 265.27 174.22 262.06 176.77   C 261.19 177.46 260.23 179.12 259.17 181.76   C 256.56 188.26 254.61 192.97 253.30 195.88   C 253.01 196.54 252.35 196.97 251.62 196.97   L 230.34 196.97   Z" />
<path fill="#010000" d="   M 146.35 123.70   L 170.46 123.70   C 170.74 123.70 170.93 123.98 170.83 124.24   L 157.12 159.93   C 157.06 160.09 156.91 160.19 156.75 160.19   L 126.72 160.19   C 126.41 160.19 126.22 159.86 126.37 159.60   L 146.00 123.91   C 146.07 123.78 146.20 123.70 146.35 123.70   Z   M 147.22 125.29   C 147.09 125.29 146.97 125.36 146.91 125.47   L 128.98 158.07   C 128.85 158.30 129.02 158.59 129.28 158.59   L 155.70 158.59   C 155.84 158.59 155.97 158.50 156.03 158.37   L 168.55 125.77   C 168.64 125.54 168.47 125.29 168.22 125.29   L 147.22 125.29   Z" />
<path fill="#fcfcfc" d="   M 147.22 125.29   L 168.22 125.29   C 168.47 125.29 168.64 125.54 168.55 125.77   L 156.03 158.37   C 155.97 158.50 155.84 158.59 155.70 158.59   L 129.28 158.59   C 129.02 158.59 128.85 158.30 128.98 158.07   L 146.91 125.47   C 146.97 125.36 147.09 125.29 147.22 125.29   Z" />
</svg>