<?xml version='1.0' encoding='utf-8'?>
<svg xmlns="http://www.w3.org/2000/svg" version="1.1" viewBox="0.00 103.78 274.90 66.18" width="50" height="12">
<path fill="#ff9400" d="   M 173.55 131.41   C 176.83 133.28 187.27 135.68 184.12 141.58   C 182.37 144.85 176.24 146.80 172.52 147.56   C 163.97 149.32 155.21 149.79 146.25 148.96   C 145.56 148.90 144.24 148.61 142.30 148.10   C 141.77 147.96 141.21 148.02 140.72 148.26   C 137.82 149.66 134.50 150.34 131.50 149.38   C 130.83 149.16 130.44 148.47 130.60 147.78   C 131.02 146.03 131.70 143.88 132.48 142.34   C 137.25 132.88 141.74 123.11 145.95 113.04   C 146.15 112.56 145.76 112.05 145.25 112.10   L 133.40 113.32   C 132.59 113.40 132.06 112.49 132.53 111.83   C 134.47 109.11 142.64 107.65 145.57 107.33   C 159.64 105.78 172.15 106.13 183.10 108.36   C 185.87 108.92 188.79 110.41 191.87 112.82   C 195.03 115.29 195.71 119.39 192.89 122.15   C 188.37 126.57 179.90 129.05 173.69 130.45   C 173.23 130.55 173.14 131.17 173.55 131.41   Z   M 150.12 128.74   C 150.01 129.20 150.38 129.62 150.85 129.59   C 159.34 128.99 167.57 127.21 175.52 124.24   C 178.40 123.17 184.33 119.60 183.86 116.23   C 183.19 111.52 168.71 110.95 163.27 110.69   C 161.61 110.61 160.12 110.97 158.79 111.76   C 158.50 111.93 158.27 112.18 158.11 112.48   C 156.49 115.60 154.68 118.91 152.68 122.40   C 151.47 124.51 150.62 126.63 150.12 128.74   Z   M 143.69 142.11   C 143.01 143.28 143.86 144.75 145.21 144.75   C 154.02 144.78 162.52 143.43 170.71 140.71   C 171.86 140.33 172.84 139.86 173.65 139.30   C 174.30 138.85 174.21 137.86 173.48 137.53   C 166.51 134.45 156.56 134.95 149.07 135.89   C 147.85 136.05 146.78 136.76 146.17 137.82   L 143.69 142.11   Z" />
<path fill="#ff9400" d="   M 1.75 159.49   C 3.40 156.47 10.26 155.67 12.56 155.94   C 14.05 156.12 15.59 156.36 17.18 156.65   C 17.76 156.76 18.35 156.72 18.92 156.56   C 26.90 154.25 28.92 148.40 32.21 141.21   C 36.62 131.55 40.36 122.84 43.43 115.08   C 43.64 114.54 43.34 113.93 42.78 113.78   L 37.01 112.16   C 36.28 111.95 36.11 110.99 36.72 110.55   C 37.62 109.90 38.90 109.39 40.56 109.01   C 49.51 106.95 60.57 105.80 69.61 107.64   C 70.58 107.84 70.87 109.08 70.09 109.69   C 68.08 111.26 63.51 111.75 61.67 112.06   C 58.23 112.63 56.82 114.29 55.40 117.39   C 51.69 125.44 48.15 133.32 44.78 141.04   C 40.16 151.62 32.56 159.80 20.77 162.03   C 15.05 163.12 6.61 164.16 2.19 161.27   C 1.60 160.88 1.41 160.11 1.75 159.49   Z" />
<path fill="#ff9400" d="   M 111.27 146.18   C 109.02 147.24 106.53 148.17 103.80 148.97   C 100.32 149.99 92.01 151.36 90.11 147.16   C 87.95 142.39 94.48 132.54 97.53 128.29   C 98.78 126.55 100.93 125.71 103.03 126.15   L 104.28 126.41   C 105.98 126.77 106.80 128.71 105.88 130.18   C 103.61 133.82 100.20 140.16 99.78 144.59   C 99.70 145.40 100.56 145.98 101.28 145.60   C 110.74 140.63 116.18 133.24 122.00 124.48   C 122.84 123.22 124.34 122.55 125.84 122.78   L 130.03 123.40   C 131.22 123.58 131.86 124.90 131.26 125.95   C 128.53 130.66 124.28 139.59 118.49 152.74   C 115.19 160.25 112.33 165.81 103.76 167.00   C 96.82 167.96 89.16 166.23 83.05 161.96   C 82.34 161.47 82.55 160.37 83.39 160.17   C 86.82 159.37 92.71 161.94 96.94 163.48   C 102.24 165.40 105.45 159.96 107.72 155.70   C 109.13 153.05 110.50 150.06 111.84 146.72   C 111.98 146.37 111.62 146.02 111.27 146.18   Z" />
<path fill="#ff9400" d="   M 255.44 145.40   C 256.16 144.95 256.06 143.88 255.28 143.56   C 251.97 142.22 248.83 140.98 245.84 139.85   C 242.84 138.70 242.06 136.54 243.49 133.35   C 245.21 129.53 248.14 126.60 252.27 124.57   C 258.00 121.74 266.60 123.84 271.64 127.21   C 272.71 127.93 272.90 129.39 272.02 130.17   C 270.63 131.40 266.25 129.66 262.39 128.61   C 257.89 127.38 254.74 130.68 253.45 134.45   C 253.20 135.18 253.55 135.98 254.26 136.29   C 256.47 137.25 261.48 138.80 265.57 141.19   C 266.78 141.90 267.44 142.59 267.57 143.27   C 268.81 150.34 250.07 149.81 246.25 149.50   C 241.94 149.15 238.56 148.43 236.12 147.35   C 235.33 147.00 235.13 145.96 235.75 145.34   L 236.66 144.43   C 237.20 143.89 238.00 143.72 238.71 143.99   C 243.74 145.92 251.22 148.06 255.44 145.40   Z" />
<path fill="#ff9400" d="   M 216.12 144.47   C 215.91 144.12 215.44 144.05 215.14 144.32   C 209.14 149.72 202.12 151.23 194.08 148.85   C 191.13 147.98 190.21 145.89 191.31 142.58   C 193.39 136.32 196.07 130.61 199.36 125.44   C 200.07 124.32 201.30 123.64 202.63 123.64   L 207.87 123.64   C 209.14 123.64 209.96 124.98 209.38 126.11   C 206.92 130.87 204.87 135.32 203.23 139.46   C 202.40 141.55 201.93 143.55 201.82 145.45   C 201.80 145.89 202.21 146.22 202.64 146.10   C 203.58 145.83 204.48 145.41 205.35 144.85   C 212.30 140.40 217.66 135.36 221.42 129.75   C 222.81 127.66 225.16 126.41 227.67 126.41   L 231.24 126.41   C 233.05 126.41 233.92 128.63 232.59 129.86   C 229.82 132.44 227.95 136.16 226.98 141.01   C 226.51 143.35 227.07 146.06 229.93 145.52   C 230.57 145.40 231.20 145.77 231.41 146.39   C 231.61 147.02 231.32 147.69 230.73 147.97   C 229.12 148.73 227.04 149.12 224.50 149.13   C 220.79 149.14 218.00 147.59 216.12 144.47   Z" />
<path fill="#ff9400" d="   M 86.88 137.19   C 87.13 140.18 83.89 139.76 82.13 140.36   C 81.76 140.49 81.44 140.71 81.18 141.00   L 77.44 145.32   C 77.31 145.46 77.17 145.59 77.02 145.70   C 71.31 149.85 64.96 151.05 57.99 149.29   C 54.30 148.36 52.45 145.93 52.45 142.02   C 52.44 139.87 52.76 138.16 53.40 136.89   C 56.62 130.44 66.11 122.72 74.21 124.30   C 75.06 124.47 77.69 125.77 82.10 128.22   C 82.50 128.44 82.84 128.76 83.08 129.15   C 83.93 130.52 84.37 132.07 84.41 133.81   C 84.44 135.44 85.12 135.99 86.34 136.46   C 86.64 136.58 86.85 136.86 86.88 137.19   Z   M 72.16 128.45   C 68.28 129.87 65.30 132.37 63.21 135.94   C 61.74 138.46 58.59 144.31 62.28 146.14   C 67.04 148.49 73.31 141.61 75.01 138.03   C 75.21 137.60 75.23 137.11 75.06 136.66   L 73.83 133.41   C 73.79 133.31 73.77 133.20 73.77 133.09   L 73.77 129.57   C 73.77 128.74 72.94 128.16 72.16 128.45   Z" />
</svg>