<?xml version='1.0' encoding='utf-8'?>
<svg xmlns="http://www.w3.org/2000/svg" version="1.1" viewBox="0.00 57.81 298.83 181.82" width="50" height="30">
<path fill="#126ff4" d="   M 198.11 89.10   L 195.16 89.94   C 192.69 90.57 190.16 91.36 187.55 92.30   C 171.98 97.92 156.82 104.51 142.09 112.06   C 134.47 115.97 127.10 120.58 119.98 125.90   C 118.65 125.55 116.78 125.13 114.36 124.65   C 108.39 123.46 102.45 122.15 96.54 120.71   C 94.67 120.25 92.71 119.62 90.67 118.83   C 88.76 118.08 86.84 117.35 84.91 116.64   L 87.96 112.99   C 88.67 112.14 88.04 110.85 86.93 110.89   C 82.43 111.06 77.62 111.77 72.50 113.01   C 67.11 111.03 61.50 108.26 55.69 104.71   C 57.15 103.63 59.07 102.54 61.46 101.45   C 73.33 96.01 83.26 91.96 91.27 89.30   C 96.86 87.44 103.42 85.32 110.93 82.95   C 115.58 81.48 123.96 79.33 136.08 76.48   C 136.24 76.44 136.38 76.36 136.49 76.25   L 137.27 75.47   C 137.52 75.22 137.87 75.09 138.22 75.11   C 140.16 75.20 144.72 74.68 147.57 74.15   C 159.59 71.90 169.71 69.83 181.99 68.24   C 191.88 66.95 196.89 66.30 197.02 66.29   C 218.17 63.70 234.58 62.19 246.25 61.77   C 254.58 61.48 261.17 61.13 266.00 60.73   C 267.99 60.57 278.18 60.27 296.59 59.82   C 296.70 59.81 296.80 59.90 296.81 60.01   L 296.82 60.03   C 296.83 60.13 296.76 60.21 296.66 60.22   C 293.71 60.65 289.75 61.60 284.80 63.07   C 276.55 65.50 267.20 67.09 258.14 69.55   C 239.87 74.52 220.56 80.70 200.21 88.09   C 199.58 88.32 198.88 88.65 198.11 89.10   Z" />
<path fill="#a61713" d="   M 55.69 104.71   C 61.50 108.26 67.11 111.03 72.50 113.01   C 77.10 115.68 81.24 116.89 84.91 116.64   C 86.84 117.35 88.76 118.08 90.67 118.83   C 92.71 119.62 94.67 120.25 96.54 120.71   C 102.45 122.15 108.39 123.46 114.36 124.65   C 116.78 125.13 118.65 125.55 119.98 125.90   C 126.37 127.72 134.32 129.28 143.82 130.59   C 155.20 132.15 165.09 132.98 173.49 133.07   C 189.52 133.25 205.37 133.83 220.18 127.78   C 229.05 124.15 233.68 117.15 225.61 108.59   C 222.63 105.43 218.88 102.62 214.35 100.15   C 208.06 96.73 201.66 93.33 195.16 89.94   L 198.11 89.10   C 198.00 89.62 198.33 90.13 199.10 90.63   C 200.37 91.46 202.38 91.66 203.86 92.02   C 204.71 92.23 205.66 92.55 206.71 92.99   C 215.14 96.52 222.70 100.96 229.37 106.29   C 233.39 109.50 236.13 113.54 237.60 118.40   C 237.97 119.64 237.79 121.11 237.06 122.82   C 234.05 129.78 225.33 134.09 218.50 136.01   C 209.03 138.67 202.11 140.17 197.74 140.50   C 192.75 140.89 188.70 141.25 185.58 141.60   C 173.75 142.91 162.26 142.63 150.05 142.30   C 146.84 142.21 143.95 142.02 141.36 141.72   C 134.13 140.89 129.14 141.18 122.37 140.19   C 119.72 139.80 116.22 139.40 111.85 138.99   C 111.41 138.95 110.98 138.87 110.55 138.75   C 107.37 137.86 104.78 137.69 102.77 138.22   L 69.90 131.49   C 68.50 130.50 66.86 129.74 64.99 129.22   C 57.56 127.15 49.21 124.51 39.94 121.32   C 38.67 120.88 37.70 120.94 37.03 121.49   C 36.17 120.08 34.48 118.90 31.95 117.93   C 23.34 114.27 15.94 109.87 9.77 104.72   C 7.49 102.82 5.56 100.56 3.98 97.94   C -3.98 84.75 14.43 77.29 23.67 74.72   C 32.10 72.37 43.19 70.31 52.88 69.47   C 61.05 68.77 67.90 68.35 73.44 68.20   C 80.81 68.01 88.84 68.36 97.51 69.26   C 97.65 69.28 97.76 69.41 97.74 69.55   L 97.74 69.57   C 97.72 69.71 97.59 69.81 97.45 69.79   C 91.03 68.73 83.63 68.48 75.26 69.03   C 64.90 69.71 56.40 70.72 49.75 72.07   C 46.07 72.82 42.71 74.09 39.66 75.89   C 22.14 86.23 44.53 100.57 53.18 104.84   C 54.15 105.32 54.98 105.28 55.69 104.71   Z" />
<path fill="#a61713" d="   M 98.92 69.89   C 98.71 69.91 98.50 69.88 98.27 69.81   C 98.08 69.74 98.07 69.48 98.26 69.40   C 98.56 69.29 98.81 69.27 99.00 69.35   C 99.27 69.46 99.21 69.86 98.92 69.89   Z" />
<path fill="#126ff4" d="   M 108.28 70.21   L 109.46 70.32   C 112.67 70.63 116.96 71.11 120.97 71.61   C 126.57 72.30 130.46 72.88 130.45 73.02   C 130.43 73.16 126.68 72.84 121.23 72.24   C 112.97 71.33 104.72 70.21 104.76 70.01   C 104.79 69.93 106.04 70.00 108.28 70.21   Z" />
<path fill="#a61713" d="   M 109.46 70.32   L 108.28 70.21   C 108.65 70.24 109.05 70.28 109.46 70.32   Z" />
<path fill="#126ff4" d="   M 31.95 117.93   C 34.48 118.90 36.17 120.08 37.03 121.49   C 35.88 122.78 34.71 123.70 33.51 124.25   C 25.46 127.96 17.68 132.10 10.15 136.65   C 10.12 136.67 10.08 136.66 10.05 136.63   C 10.03 136.61 10.03 136.57 10.06 136.54   C 16.61 130.19 23.90 123.99 31.95 117.93   Z" />
<path fill="#126ff4" d="   M 69.90 131.49   L 102.77 138.22   C 101.04 140.69 99.26 143.09 97.43 145.40   C 94.73 148.81 92.96 151.20 92.12 152.58   C 88.68 158.25 86.26 164.16 84.85 170.30   C 82.64 179.95 84.29 191.73 88.43 201.53   C 94.49 215.85 103.99 226.56 114.63 237.62   L 114.62 237.63   C 108.91 232.84 103.78 228.39 99.21 224.28   C 93.34 219.01 87.36 212.84 81.25 205.78   C 72.33 195.47 65.98 183.89 62.19 171.06   C 59.88 163.24 59.25 152.77 62.54 144.64   C 64.58 139.63 66.27 135.13 69.90 131.49   Z" />
</svg>