<?xml version='1.0' encoding='utf-8'?>
<svg xmlns="http://www.w3.org/2000/svg" version="1.1" viewBox="76.62 0.00 148.02 301.99" width="50" height="102">
<path fill="#0a0605" d="   M 216.99 44.23   C 216.60 44.30 216.40 44.55 216.38 45.00   C 216.36 45.37 216.48 45.56 216.75 45.57   C 218.23 46.08 219.54 46.85 220.69 47.87   C 220.94 48.08 221.11 48.37 221.19 48.70   C 222.35 53.63 218.57 61.67 215.92 66.49   C 215.33 67.02 215.05 67.67 215.08 68.45   L 214.04 70.57   C 213.45 71.20 213.14 71.92 213.11 72.71   C 213.07 72.82 213.03 72.92 212.99 73.03   C 212.58 73.22 212.27 73.55 212.08 74.01   C 211.91 74.42 211.98 74.60 212.29 74.57   C 212.14 74.67 212.09 74.80 212.14 74.97   C 212.20 75.14 212.39 75.24 212.56 75.17   C 214.69 74.38 216.67 72.63 219.07 74.11   C 222.64 76.31 218.29 83.83 216.45 87.70   C 216.28 88.05 216.34 88.46 216.60 88.74   C 217.95 90.19 218.78 91.37 219.08 92.26   C 219.23 92.69 219.23 93.17 219.09 93.60   C 216.85 100.74 211.88 107.93 207.94 114.01   C 207.75 114.30 207.84 114.69 208.14 114.86   C 209.98 115.97 213.09 117.58 212.24 120.17   C 211.51 122.38 210.73 124.24 209.90 125.75   C 209.84 125.86 209.90 126.01 210.03 126.04   L 215.96 127.42   C 216.21 127.48 216.40 127.68 216.46 127.93   C 217.34 131.76 215.29 136.21 213.26 139.47   C 213.10 139.73 213.10 140.05 213.25 140.31   L 215.57 144.33   C 215.87 144.85 215.91 145.49 215.68 146.04   C 212.18 154.60 204.34 160.12 198.72 165.46   C 191.46 172.37 185.56 180.47 181.01 189.76   C 180.84 190.11 180.97 190.53 181.31 190.73   L 186.07 193.48   C 186.39 193.66 186.59 193.99 186.61 194.36   C 186.86 200.62 186.07 205.76 184.25 209.79   C 182.22 214.26 180.86 218.16 180.17 221.48   C 177.62 233.75 174.81 245.33 171.74 256.24   C 170.80 259.55 170.91 264.89 173.93 267.39   C 174.84 268.14 176.60 268.43 179.22 268.28   C 184.99 267.94 192.85 266.12 195.09 273.63   C 196.32 277.75 197.05 280.04 197.26 280.51   C 197.37 280.77 197.43 281.05 197.43 281.33   C 197.42 282.54 197.16 283.74 196.66 284.95   C 196.50 285.34 196.08 285.55 195.68 285.45   C 193.00 284.82 188.67 284.16 183.76 283.90   C 178.90 283.65 175.42 281.84 170.47 279.62   C 167.43 278.25 165.15 277.72 163.62 278.01   C 158.10 279.07 153.90 284.23 149.76 286.34   C 145.55 288.48 138.54 289.47 135.05 291.81   C 128.90 295.95 123.15 299.79 115.35 299.04   C 111.90 298.71 107.98 299.00 103.57 299.89   C 103.06 299.99 102.62 299.54 102.73 299.03   C 103.89 293.87 105.49 290.23 103.28 286.56   C 103.13 286.32 102.81 286.24 102.56 286.38   L 98.75 288.58   C 98.15 288.93 97.39 288.58 97.26 287.90   L 96.17 281.93   C 96.12 281.67 95.83 281.53 95.59 281.66   L 90.97 284.34   C 90.71 284.49 90.38 284.34 90.32 284.04   L 89.04 277.03   C 88.91 276.28 88.27 275.73 87.50 275.69   C 84.63 275.57 82.11 275.83 79.94 276.46   C 79.66 276.54 79.37 276.35 79.34 276.06   C 78.62 269.65 82.93 263.70 88.62 261.41   C 91.67 260.18 94.67 259.32 97.62 258.81   C 98.46 258.66 99.31 258.62 100.15 258.67   L 120.33 259.95   C 123.32 260.82 126.33 260.86 129.36 260.07   C 131.80 259.79 134.61 259.83 136.70 258.77   C 138.89 257.65 140.66 256.06 141.99 254.00   C 150.17 241.31 156.52 226.35 158.59 211.26   C 159.23 206.58 157.43 203.44 153.68 200.98   C 152.77 200.33 151.62 200.01 150.25 200.03   C 140.40 198.10 133.53 192.55 129.63 183.36   C 128.92 181.67 127.29 177.60 124.76 171.17   C 122.93 166.52 120.69 162.03 118.04 157.71   C 116.65 155.44 116.27 152.84 116.89 149.91   C 119.66 136.80 122.01 126.24 123.95 118.24   C 124.04 117.86 123.95 117.46 123.70 117.16   C 120.07 112.86 111.00 114.21 105.02 111.89   C 100.52 110.15 97.83 105.02 99.47 100.50   C 101.00 96.28 103.25 92.63 107.76 91.21   C 108.10 91.11 108.46 91.34 108.50 91.70   C 108.91 95.29 109.86 99.42 112.83 102.25   C 113.05 102.46 113.39 102.46 113.60 102.26   C 118.57 97.71 124.44 93.86 131.20 90.69   C 131.57 90.52 131.82 90.17 131.87 89.77   C 132.20 87.14 132.77 83.12 130.40 81.10   C 130.12 80.85 129.78 80.67 129.42 80.58   C 124.97 79.40 121.64 78.26 119.42 77.16   C 116.08 75.50 111.99 77.02 108.98 74.97   C 108.59 74.71 108.08 74.71 107.70 74.99   C 107.53 75.12 106.09 75.49 103.40 76.12   C 99.43 77.05 95.78 76.99 92.59 73.94   C 91.30 72.71 86.41 70.20 87.00 67.00   C 87.66 63.38 90.84 60.41 93.99 58.45   C 96.91 56.65 97.07 55.88 98.39 53.03   C 100.07 49.42 105.50 48.38 109.51 48.36   C 125.65 48.29 143.03 54.12 144.02 73.04   C 144.29 78.24 144.06 83.33 143.31 88.30   C 143.24 88.79 143.48 89.27 143.91 89.51   C 147.79 91.63 152.61 94.11 152.18 98.69   C 151.50 105.85 144.36 111.62 137.78 115.75   C 136.49 116.56 135.42 117.89 134.55 119.76   C 130.70 128.06 128.55 137.23 128.10 147.27   C 127.88 152.10 128.01 156.50 130.28 160.79   C 133.19 166.30 137.73 170.16 143.91 172.38   C 152.96 175.63 163.18 177.91 172.14 182.57   C 172.51 182.77 172.98 182.69 173.28 182.39   C 175.96 179.68 177.44 176.39 177.72 172.50   C 178.41 162.98 177.68 153.31 175.52 143.48   C 171.55 125.42 168.78 115.85 168.44 101.74   C 168.24 93.24 170.15 85.22 174.16 77.68   C 178.97 68.65 183.52 59.50 187.82 50.24   C 188.14 49.91 188.23 49.64 188.09 49.45   L 193.82 35.39   C 193.98 35.00 194.39 34.79 194.79 34.88   L 198.73 35.81   C 199.35 35.95 199.97 35.60 200.17 34.99   C 200.74 33.25 202.75 26.14 206.19 13.66   C 207.56 8.66 208.92 5.04 210.25 2.80   C 211.99 -0.12 216.98 0.20 218.30 3.77   C 218.32 3.84 218.33 3.91 218.34 3.98   L 218.82 18.33   C 218.83 18.73 218.97 19.11 219.21 19.42   L 221.18 21.95   C 221.76 22.70 222.01 23.65 221.88 24.58   C 220.97 31.08 219.34 37.63 216.99 44.23   Z   M 193.20 62.77   L 192.61 62.64   C 193.62 59.20 194.58 55.74 195.49 52.25   C 196.79 47.26 196.88 43.05 196.54 38.27   C 196.50 37.69 195.70 37.56 195.47 38.10   C 192.65 44.81 191.00 48.74 190.52 49.89   C 186.04 60.63 179.65 71.96 175.72 80.15   C 171.90 88.12 170.22 95.96 170.69 103.69   C 171.07 109.93 171.91 115.87 173.20 121.52   C 175.29 130.61 177.09 138.83 178.60 146.18   C 179.96 152.82 180.48 161.13 180.16 171.10   C 179.95 177.56 177.75 181.50 173.38 185.66   C 173.18 185.86 172.86 185.89 172.61 185.73   C 163.99 180.06 152.02 177.68 144.80 174.95   C 140.98 173.50 138.13 172.12 136.24 170.80   C 129.19 165.86 125.64 159.17 125.57 150.73   C 125.49 139.94 128.03 130.02 131.81 119.59   C 132.21 118.49 131.02 117.50 130.01 118.08   L 127.81 119.36   C 126.52 120.10 125.60 121.36 125.29 122.81   C 122.62 135.10 120.71 143.70 119.56 148.62   C 118.75 152.12 118.81 154.48 120.47 157.30   C 123.37 162.26 125.81 166.79 127.62 171.61   C 131.50 181.98 134.27 191.38 144.42 195.93   C 147.52 197.32 150.12 198.19 152.21 198.54   C 154.83 198.97 157.56 198.90 160.39 198.32   C 160.95 198.20 161.03 197.43 160.50 197.21   L 156.49 195.52   C 156.45 195.50 156.41 195.49 156.36 195.48   C 148.96 193.74 141.24 191.93 139.04 184.09   C 138.05 180.54 139.10 178.43 142.21 177.77   C 144.10 177.36 145.86 177.38 147.47 177.82   C 152.27 179.13 156.33 180.44 159.65 181.77   C 164.99 183.92 171.05 187.55 177.10 189.77   C 177.69 189.99 178.34 189.73 178.62 189.17   C 184.67 177.00 192.56 167.61 202.74 158.88   C 207.35 154.93 210.99 150.43 213.65 145.38   C 213.92 144.87 213.52 144.25 212.94 144.30   C 208.50 144.66 206.38 147.80 202.88 151.52   C 202.59 151.82 202.09 151.53 202.22 151.13   C 204.71 143.31 211.64 137.79 214.81 130.51   C 215.03 130.02 214.76 129.45 214.25 129.30   C 212.38 128.74 210.66 128.99 209.09 130.05   C 207.42 131.18 204.66 133.87 200.81 138.12   C 200.74 138.20 200.61 138.21 200.52 138.15   L 200.51 138.15   C 200.37 138.05 200.33 137.87 200.42 137.72   C 204.81 129.97 207.09 125.97 207.25 125.72   C 208.92 123.06 209.29 120.17 208.38 117.06   C 208.27 116.67 207.83 116.49 207.48 116.69   C 203.11 119.14 200.58 123.03 197.35 126.82   L 196.72 126.90   C 198.39 122.07 200.67 117.95 203.54 114.53   C 208.48 108.66 212.18 103.30 214.63 98.43   C 215.63 96.45 216.36 94.15 216.41 91.86   C 216.42 91.26 215.70 90.95 215.28 91.38   C 211.00 95.71 208.13 98.99 205.52 100.33   C 205.31 100.43 205.08 100.25 205.14 100.02   C 205.17 99.94 206.58 98.07 209.38 94.40   C 213.28 89.30 215.86 84.06 218.02 77.87   C 218.49 76.51 217.27 75.18 215.88 75.52   C 215.77 75.54 215.34 75.89 214.57 76.58   C 214.16 76.95 210.64 80.40 204.00 86.93   C 203.90 87.03 203.75 87.04 203.64 86.96   C 203.53 86.88 203.50 86.73 203.56 86.61   C 208.81 76.26 213.28 66.96 216.96 58.72   C 218.42 55.43 219.05 52.50 218.63 49.01   C 218.57 48.52 218.00 48.29 217.61 48.58   C 212.98 52.11 211.93 57.22 207.08 62.92   C 207.01 63.00 206.89 63.02 206.80 62.97   C 206.71 62.91 206.67 62.80 206.71 62.70   C 208.34 58.83 210.20 54.61 212.27 50.04   C 213.91 46.43 215.58 41.48 217.28 35.21   C 218.23 31.72 218.81 27.71 219.02 23.18   C 219.05 22.59 218.43 22.19 217.91 22.47   C 216.54 23.21 215.38 24.25 214.43 25.59   C 214.41 25.62 214.39 25.66 214.37 25.70   L 209.02 38.62   C 209.01 38.64 208.98 38.65 208.96 38.64   L 208.59 38.49   C 208.36 38.39 208.25 38.14 208.33 37.91   C 211.29 29.48 213.39 23.07 214.64 18.68   C 216.02 13.80 216.37 8.77 215.68 3.59   C 215.57 2.80 214.70 2.37 214.01 2.76   C 212.78 3.45 211.86 4.53 211.23 5.99   C 210.27 8.20 209.39 10.81 208.58 13.81   C 205.33 25.97 203.47 33.33 200.01 40.87   C 199.87 41.16 199.77 41.47 199.71 41.80   C 198.13 50.38 197.46 56.60 193.20 62.77   Z   M 100.67 67.94   C 99.09 69.15 97.49 70.32 95.87 71.46   C 95.34 71.83 95.05 72.07 95.02 72.16   C 94.65 73.21 95.40 74.37 96.62 74.62   C 98.58 75.01 101.15 74.75 103.10 73.99   C 106.91 72.51 109.20 71.78 109.99 71.80   C 110.29 71.81 110.57 71.68 110.76 71.45   C 111.03 71.12 111.97 70.60 113.56 69.91   C 113.83 69.80 114.10 70.05 114.01 70.32   C 113.65 71.35 113.28 71.99 112.89 72.24   C 111.71 72.99 112.45 74.82 113.82 74.54   C 116.37 74.02 118.55 73.80 120.34 73.87   C 120.60 73.88 121.01 73.77 121.58 73.54   C 122.53 73.15 123.01 73.29 123.04 73.97   C 123.04 74.04 123.02 74.11 122.97 74.16   L 122.70 74.40   C 122.04 75.00 122.28 76.09 123.13 76.35   L 131.52 78.96   C 131.63 78.99 131.73 79.05 131.82 79.12   C 135.02 81.85 135.10 84.84 135.83 89.88   C 135.98 90.95 135.44 91.97 134.50 92.40   C 134.39 92.45 134.09 92.79 133.62 93.40   C 133.41 93.66 133.31 93.98 133.34 94.31   L 133.57 97.47   C 133.62 98.09 134.19 98.54 134.81 98.45   C 140.52 97.60 145.10 97.50 148.57 98.13   C 149.72 98.34 150.46 96.95 149.63 96.12   C 147.76 94.25 145.36 92.71 142.45 91.50   C 141.29 91.01 140.59 89.81 140.75 88.56   C 141.42 83.39 141.78 80.54 141.83 80.03   C 143.02 67.00 138.32 58.15 127.74 53.47   C 123.41 51.55 116.99 50.54 111.75 50.12   C 109.37 49.93 106.71 50.31 103.77 51.24   C 101.59 51.93 100.21 53.28 99.62 55.28   C 99.50 55.70 99.85 56.12 100.28 56.06   C 103.74 55.62 107.42 56.01 111.32 57.23   C 111.91 57.42 112.29 57.73 112.45 58.16   C 112.55 58.44 112.31 58.71 112.03 58.66   C 107.95 57.90 104.46 57.72 101.55 58.12   C 96.84 58.77 93.14 61.04 90.46 64.91   C 88.74 67.38 89.02 69.22 91.31 70.43   C 91.97 70.78 92.77 70.74 93.40 70.34   C 95.91 68.75 98.23 67.73 100.36 67.26   C 100.76 67.17 101.00 67.69 100.67 67.94   Z   M 129.90 103.08   C 124.79 104.38 119.86 104.83 115.13 104.44   C 113.46 104.30 112.27 104.03 111.54 103.64   C 108.53 102.03 106.84 98.08 106.31 94.83   C 106.25 94.47 105.79 94.35 105.56 94.63   C 100.10 101.32 99.32 109.34 110.00 111.02   C 115.32 111.86 118.57 112.35 119.75 112.48   C 125.04 113.07 129.00 108.29 130.47 103.69   C 130.59 103.33 130.26 102.99 129.90 103.08   Z   M 118.53 102.83   C 119.40 102.90 120.06 102.77 120.53 102.42   C 123.88 99.95 127.25 98.08 130.62 96.80   C 130.88 96.70 131.10 96.51 131.23 96.27   C 131.27 96.20 131.31 96.10 131.36 95.97   C 131.43 95.77 131.29 95.57 131.08 95.57   C 125.45 95.52 121.17 97.73 118.22 102.20   C 118.05 102.46 118.22 102.80 118.53 102.83   Z   M 124.91 114.65   C 125.37 115.62 125.93 116.31 126.60 116.74   C 126.93 116.95 127.33 117.03 127.71 116.95   C 137.47 114.92 144.71 109.53 149.42 100.76   C 149.59 100.45 149.39 100.06 149.03 100.02   C 143.99 99.53 138.69 99.69 133.12 100.52   C 132.75 100.57 132.46 100.87 132.42 101.25   C 132.19 103.30 132.94 105.58 131.12 108.32   C 129.49 110.78 126.45 112.49 125.08 113.76   C 124.83 113.98 124.76 114.35 124.91 114.65   Z   M 140.57 181.32   C 141.11 186.27 143.88 189.63 148.89 191.42   C 151.72 192.43 154.19 193.09 156.30 193.42   C 160.63 194.10 164.85 193.39 168.96 191.28   C 169.58 190.96 169.71 190.14 169.22 189.65   C 167.30 187.76 165.13 186.25 162.70 185.13   C 156.87 182.44 151.11 180.55 145.42 179.44   C 143.43 179.05 141.95 179.30 141.00 180.18   C 140.69 180.47 140.53 180.89 140.57 181.32   Z   M 169.7574 193.9585   C 169.55 194.52 172.36 196.05 176.0308 197.3756   C 179.70 198.70 182.84 199.31 183.0426 198.7415   C 183.25 198.18 180.44 196.65 176.7692 195.3244   C 173.10 194.00 169.96 193.39 169.7574 193.9585   Z   M 169.6413 200.6812   C 169.36 201.51 169.96 202.47 170.9729 202.8070   C 171.99 203.15 173.04 202.75 173.3187 201.9188   C 173.60 201.09 173.00 200.13 171.9871 199.7930   C 170.97 199.45 169.92 199.85 169.6413 200.6812   Z   M 167.18 202.40   C 167.63 202.32 167.73 201.71 167.32 201.49   C 164.79 200.15 161.86 199.61 158.52 199.88   C 157.82 199.93 157.50 200.78 157.99 201.28   L 159.29 202.57   C 159.97 203.25 160.94 203.55 161.88 203.37   L 167.18 202.40   Z   M 175.34 212.88   C 177.97 212.88 179.62 212.67 180.28 212.25   C 180.60 212.04 180.88 211.77 181.10 211.45   C 183.09 208.50 184.00 205.56 183.82 202.62   C 183.76 201.75 183.06 201.06 182.19 201.04   C 179.06 200.96 176.26 202.20 173.79 204.75   C 173.45 205.10 173.29 205.60 173.38 206.09   L 174.50 212.19   C 174.58 212.59 174.93 212.89 175.34 212.88   Z   M 167.84 204.66   L 160.67 205.06   C 160.28 205.08 159.97 205.42 159.99 205.82   L 160.22 209.81   C 160.37 212.59 162.35 214.74 164.62 214.61   L 164.98 214.59   C 167.26 214.47 168.98 212.11 168.82 209.33   L 168.60 205.34   C 168.58 204.94 168.24 204.64 167.84 204.66   Z   M 170.69 211.21   C 170.54 211.08 170.40 211.10 170.27 211.27   C 170.04 211.55 170.06 211.81 170.33 212.06   L 168.79 215.72   C 168.32 216.22 168.17 216.80 168.34 217.47   C 167.56 223.79 163.24 229.72 161.93 234.19   C 160.23 239.98 158.54 245.75 156.87 251.49   C 156.21 252.51 155.94 253.69 156.07 255.03   L 155.91 255.45   C 155.39 255.66 155.21 255.99 155.37 256.46   C 155.44 256.64 155.58 256.78 155.76 256.84   C 156.26 257.01 156.58 256.89 156.72 256.46   C 158.28 254.72 159.40 253.10 160.09 251.59   C 162.19 246.95 164.34 241.32 166.53 234.71   C 168.82 227.80 170.35 220.75 171.11 213.56   C 171.72 213.29 171.98 212.68 171.91 211.74   C 171.88 211.37 171.68 211.21 171.31 211.28   C 171.08 211.17 170.87 211.14 170.69 211.21   Z   M 178.36 214.86   L 174.18 214.86   C 173.77 214.86 173.43 215.16 173.38 215.56   C 171.75 227.65 167.37 239.44 162.96 251.39   C 162.88 251.62 163.05 251.87 163.30 251.87   L 170.48 251.87   C 170.65 251.87 170.79 251.76 170.83 251.60   L 179.18 215.89   C 179.30 215.36 178.90 214.86 178.36 214.86   Z   M 150.06 246.79   L 153.78 247.66   C 154.64 247.86 155.51 247.39 155.81 246.56   C 156.99 243.29 158.10 239.65 159.15 235.64   C 159.84 233.01 161.61 228.79 164.47 222.98   C 164.77 222.37 165.27 220.46 165.96 217.27   C 166.10 216.62 165.60 216.00 164.93 216.00   L 161.88 216.00   C 161.05 216.00 160.32 216.53 160.06 217.32   C 159.72 218.37 158.93 221.09 157.69 225.47   C 155.94 231.61 153.18 238.24 149.40 245.35   C 149.10 245.93 149.42 246.64 150.06 246.79   Z   M 134.85 265.46   C 131.93 267.49 127.99 268.50 123.38 268.16   C 117.49 267.72 110.73 267.99 103.08 268.97   C 99.03 269.50 96.07 271.03 94.46 274.56   C 93.96 275.66 94.19 276.95 95.02 277.81   C 96.25 279.09 97.60 279.91 99.09 280.28   C 99.71 280.44 100.37 280.21 100.76 279.70   L 103.87 275.64   C 104.01 275.46 104.17 275.31 104.36 275.18   C 106.55 273.63 108.69 272.85 110.77 272.86   C 117.13 272.87 121.04 272.49 128.23 271.15   C 131.81 270.48 134.89 270.26 137.48 270.49   C 138.17 270.55 139.95 269.89 142.82 268.52   C 146.75 266.63 149.59 265.71 153.43 265.89   C 154.00 265.91 154.44 265.42 154.36 264.86   C 153.64 259.94 153.62 255.00 154.31 250.05   C 154.36 249.67 154.12 249.32 153.75 249.23   L 149.26 248.18   C 148.66 248.04 148.04 248.33 147.76 248.87   C 145.40 253.38 140.61 260.42 135.50 261.23   C 129.70 262.16 124.47 262.41 119.81 262.00   C 113.63 261.45 107.18 262.57 100.95 261.53   C 100.09 261.39 99.21 261.40 98.35 261.55   C 94.33 262.29 89.93 262.60 87.95 264.68   C 86.14 266.59 85.51 270.45 87.69 272.39   C 88.69 273.28 89.66 274.04 90.60 274.69   C 91.13 275.05 91.86 274.89 92.18 274.34   C 93.87 271.45 96.09 269.38 98.84 268.13   C 99.15 268.00 99.46 267.89 99.79 267.82   C 108.16 266.11 116.59 265.80 125.06 266.89   C 125.39 266.94 125.73 266.93 126.07 266.87   L 134.77 265.27   C 134.88 265.25 134.94 265.40 134.85 265.46   Z   M 143.64 277.16   C 139.39 280.54 135.51 282.49 131.98 283.00   C 127.15 283.71 121.64 284.27 115.44 284.67   C 113.86 284.78 112.30 285.05 110.76 285.50   C 104.57 287.29 107.99 294.96 112.53 296.33   C 124.02 299.79 128.78 291.26 137.75 288.50   C 140.61 287.62 148.05 285.66 150.74 283.50   C 155.74 279.49 158.89 277.29 160.20 276.92   C 163.75 275.91 166.74 275.92 169.16 276.97   C 173.43 278.82 176.98 280.25 179.80 281.26   C 180.52 281.52 181.26 281.71 182.00 281.82   C 185.78 282.38 188.56 283.03 191.64 280.07   C 193.98 277.82 193.61 273.15 191.18 270.89   C 190.94 270.67 190.66 270.49 190.36 270.35   C 185.33 268.12 181.29 270.44 176.53 269.82   C 174.32 269.53 173.05 269.27 172.72 269.02   C 168.38 265.86 168.45 259.15 169.70 254.48   C 169.83 253.99 169.46 253.50 168.95 253.50   L 162.60 253.50   C 161.99 253.50 161.44 253.90 161.25 254.49   C 159.36 260.45 156.55 267.53 150.61 270.20   C 148.70 271.06 146.29 271.40 143.38 271.21   C 138.67 270.91 131.97 271.62 123.29 273.34   C 121.50 273.69 117.41 273.98 111.02 274.21   C 109.84 274.26 108.30 274.87 106.40 276.04   C 104.97 276.94 104.10 278.50 104.10 280.19   L 104.10 283.57   C 104.10 284.89 105.53 285.73 106.68 285.07   C 111.51 282.31 115.70 281.60 120.42 281.59   C 123.73 281.58 127.95 280.07 129.97 279.31   C 130.22 279.23 130.48 279.17 130.74 279.12   L 143.47 276.79   C 143.69 276.75 143.81 277.02 143.64 277.16   Z   M 150.7745 267.7983   C 150.69 267.51 150.39 267.35 150.1066 267.4280   L 145.5502 268.7346   C 145.26 268.82 145.10 269.12 145.1800 269.4025   L 145.1855 269.4217   C 145.27 269.71 145.57 269.87 145.8534 269.7920   L 150.4098 268.4854   C 150.70 268.40 150.86 268.10 150.7800 267.8175   L 150.7745 267.7983   Z" />
<path fill="#0193de" d="   M 196.72 126.90   C 196.81 126.91 196.86 126.99 196.88 127.12   C 196.90 127.25 197.07 127.29 197.15 127.19   C 197.22 127.10 197.29 126.98 197.35 126.82   C 200.58 123.03 203.11 119.14 207.48 116.69   C 207.83 116.49 208.27 116.67 208.38 117.06   C 209.29 120.17 208.92 123.06 207.25 125.72   C 207.09 125.97 204.81 129.97 200.42 137.72   C 200.33 137.87 200.37 138.05 200.51 138.15   L 200.52 138.15   C 200.61 138.21 200.74 138.20 200.81 138.12   C 204.66 133.87 207.42 131.18 209.09 130.05   C 210.66 128.99 212.38 128.74 214.25 129.30   C 214.76 129.45 215.03 130.02 214.81 130.51   C 211.64 137.79 204.71 143.31 202.22 151.13   C 202.09 151.53 202.59 151.82 202.88 151.52   C 206.38 147.80 208.50 144.66 212.94 144.30   C 213.52 144.25 213.92 144.87 213.65 145.38   C 210.99 150.43 207.35 154.93 202.74 158.88   C 192.56 167.61 184.67 177.00 178.62 189.17   C 178.34 189.73 177.69 189.99 177.10 189.77   C 171.05 187.55 164.99 183.92 159.65 181.77   C 156.33 180.44 152.27 179.13 147.47 177.82   C 145.86 177.38 144.10 177.36 142.21 177.77   C 139.10 178.43 138.05 180.54 139.04 184.09   C 141.24 191.93 148.96 193.74 156.36 195.48   C 156.41 195.49 156.45 195.50 156.49 195.52   L 160.50 197.21   C 161.03 197.43 160.95 198.20 160.39 198.32   C 157.56 198.90 154.83 198.97 152.21 198.54   C 150.12 198.19 147.52 197.32 144.42 195.93   C 134.27 191.38 131.50 181.98 127.62 171.61   C 125.81 166.79 123.37 162.26 120.47 157.30   C 118.81 154.48 118.75 152.12 119.56 148.62   C 120.71 143.70 122.62 135.10 125.29 122.81   C 125.60 121.36 126.52 120.10 127.81 119.36   L 130.01 118.08   C 131.02 117.50 132.21 118.49 131.81 119.59   C 128.03 130.02 125.49 139.94 125.57 150.73   C 125.64 159.17 129.19 165.86 136.24 170.80   C 138.13 172.12 140.98 173.50 144.80 174.95   C 152.02 177.68 163.99 180.06 172.61 185.73   C 172.86 185.89 173.18 185.86 173.38 185.66   C 177.75 181.50 179.95 177.56 180.16 171.10   C 180.48 161.13 179.96 152.82 178.60 146.18   C 177.09 138.83 175.29 130.61 173.20 121.52   C 171.91 115.87 171.07 109.93 170.69 103.69   C 170.22 95.96 171.90 88.12 175.72 80.15   C 179.65 71.96 186.04 60.63 190.52 49.89   C 191.00 48.74 192.65 44.81 195.47 38.10   C 195.70 37.56 196.50 37.69 196.54 38.27   C 196.88 43.05 196.79 47.26 195.49 52.25   C 194.58 55.74 193.62 59.20 192.61 62.64   C 192.71 62.72 192.78 62.82 192.82 62.95   C 192.85 63.04 192.97 63.07 193.03 62.99   L 193.20 62.77   C 197.46 56.60 198.13 50.38 199.71 41.80   C 199.77 41.47 199.87 41.16 200.01 40.87   C 203.47 33.33 205.33 25.97 208.58 13.81   C 209.39 10.81 210.27 8.20 211.23 5.99   C 211.86 4.53 212.78 3.45 214.01 2.76   C 214.70 2.37 215.57 2.80 215.68 3.59   C 216.37 8.77 216.02 13.80 214.64 18.68   C 213.39 23.07 211.29 29.48 208.33 37.91   C 208.25 38.14 208.36 38.39 208.59 38.49   L 208.96 38.64   C 208.98 38.65 209.01 38.64 209.02 38.62   L 214.37 25.70   C 214.39 25.66 214.41 25.62 214.43 25.59   C 215.38 24.25 216.54 23.21 217.91 22.47   C 218.43 22.19 219.05 22.59 219.02 23.18   C 218.81 27.71 218.23 31.72 217.28 35.21   C 215.58 41.48 213.91 46.43 212.27 50.04   C 210.20 54.61 208.34 58.83 206.71 62.70   C 206.67 62.80 206.71 62.91 206.80 62.97   C 206.89 63.02 207.01 63.00 207.08 62.92   C 211.93 57.22 212.98 52.11 217.61 48.58   C 218.00 48.29 218.57 48.52 218.63 49.01   C 219.05 52.50 218.42 55.43 216.96 58.72   C 213.28 66.96 208.81 76.26 203.56 86.61   C 203.50 86.73 203.53 86.88 203.64 86.96   C 203.75 87.04 203.90 87.03 204.00 86.93   C 210.64 80.40 214.16 76.95 214.57 76.58   C 215.34 75.89 215.77 75.54 215.88 75.52   C 217.27 75.18 218.49 76.51 218.02 77.87   C 215.86 84.06 213.28 89.30 209.38 94.40   C 206.58 98.07 205.17 99.94 205.14 100.02   C 205.08 100.25 205.31 100.43 205.52 100.33   C 208.13 98.99 211.00 95.71 215.28 91.38   C 215.70 90.95 216.42 91.26 216.41 91.86   C 216.36 94.15 215.63 96.45 214.63 98.43   C 212.18 103.30 208.48 108.66 203.54 114.53   C 200.67 117.95 198.39 122.07 196.72 126.90   Z" />
<path fill="#29166f" d="   M 216.99 44.23   L 216.75 45.57   C 216.48 45.56 216.36 45.37 216.38 45.00   C 216.40 44.55 216.60 44.30 216.99 44.23   Z" />
<path fill="#29166f" d="   M 187.82 50.24   C 187.85 49.99 187.94 49.72 188.09 49.45   C 188.23 49.64 188.14 49.91 187.82 50.24   Z" />
<path fill="#29166f" d="   M 100.36 67.26   C 98.23 67.73 95.91 68.75 93.40 70.34   C 92.77 70.74 91.97 70.78 91.31 70.43   C 89.02 69.22 88.74 67.38 90.46 64.91   C 93.14 61.04 96.84 58.77 101.55 58.12   C 104.46 57.72 107.95 57.90 112.03 58.66   C 112.31 58.71 112.55 58.44 112.45 58.16   C 112.29 57.73 111.91 57.42 111.32 57.23   C 107.42 56.01 103.74 55.62 100.28 56.06   C 99.85 56.12 99.50 55.70 99.62 55.28   C 100.21 53.28 101.59 51.93 103.77 51.24   C 106.71 50.31 109.37 49.93 111.75 50.12   C 116.99 50.54 123.41 51.55 127.74 53.47   C 138.32 58.15 143.02 67.00 141.83 80.03   C 141.78 80.54 141.42 83.39 140.75 88.56   C 140.59 89.81 141.29 91.01 142.45 91.50   C 145.36 92.71 147.76 94.25 149.63 96.12   C 150.46 96.95 149.72 98.34 148.57 98.13   C 145.10 97.50 140.52 97.60 134.81 98.45   C 134.19 98.54 133.62 98.09 133.57 97.47   L 133.34 94.31   C 133.31 93.98 133.41 93.66 133.62 93.40   C 134.09 92.79 134.39 92.45 134.50 92.40   C 135.44 91.97 135.98 90.95 135.83 89.88   C 135.10 84.84 135.02 81.85 131.82 79.12   C 131.73 79.05 131.63 78.99 131.52 78.96   L 123.13 76.35   C 122.28 76.09 122.04 75.00 122.70 74.40   L 122.97 74.16   C 123.02 74.11 123.04 74.04 123.04 73.97   C 123.01 73.29 122.53 73.15 121.58 73.54   C 121.01 73.77 120.60 73.88 120.34 73.87   C 118.55 73.80 116.37 74.02 113.82 74.54   C 112.45 74.82 111.71 72.99 112.89 72.24   C 113.28 71.99 113.65 71.35 114.01 70.32   C 114.10 70.05 113.83 69.80 113.56 69.91   C 111.97 70.60 111.03 71.12 110.76 71.45   C 110.57 71.68 110.29 71.81 109.99 71.80   C 109.20 71.78 106.91 72.51 103.10 73.99   C 101.15 74.75 98.58 75.01 96.62 74.62   C 95.40 74.37 94.65 73.21 95.02 72.16   C 95.05 72.07 95.34 71.83 95.87 71.46   C 97.49 70.32 99.09 69.15 100.67 67.94   C 101.00 67.69 100.76 67.17 100.36 67.26   Z" />
<path fill="#29166f" d="   M 215.92 66.49   L 215.08 68.45   C 215.05 67.67 215.33 67.02 215.92 66.49   Z" />
<path fill="#29166f" d="   M 214.04 70.57   L 213.11 72.71   C 213.14 71.92 213.45 71.20 214.04 70.57   Z" />
<path fill="#73635c" d="   M 212.99 73.03   L 212.29 74.57   C 211.98 74.60 211.91 74.42 212.08 74.01   C 212.27 73.55 212.58 73.22 212.99 73.03   Z" />
<path fill="#fff800" d="   M 129.90 103.08   C 130.26 102.99 130.59 103.33 130.47 103.69   C 129.00 108.29 125.04 113.07 119.75 112.48   C 118.57 112.35 115.32 111.86 110.00 111.02   C 99.32 109.34 100.10 101.32 105.56 94.63   C 105.79 94.35 106.25 94.47 106.31 94.83   C 106.84 98.08 108.53 102.03 111.54 103.64   C 112.27 104.03 113.46 104.30 115.13 104.44   C 119.86 104.83 124.79 104.38 129.90 103.08   Z" />
<path fill="#ffffff" fill-opacity="0.988" d="   M 118.22 102.20   C 121.17 97.73 125.45 95.52 131.08 95.57   C 131.29 95.57 131.43 95.77 131.36 95.97   C 131.31 96.10 131.27 96.20 131.23 96.27   C 131.10 96.51 130.88 96.70 130.62 96.80   C 127.25 98.08 123.88 99.95 120.53 102.42   C 120.06 102.77 119.40 102.90 118.53 102.83   C 118.22 102.80 118.05 102.46 118.22 102.20   Z" />
<path fill="#fff800" d="   M 125.08 113.76   C 126.45 112.49 129.49 110.78 131.12 108.32   C 132.94 105.58 132.19 103.30 132.42 101.25   C 132.46 100.87 132.75 100.57 133.12 100.52   C 138.69 99.69 143.99 99.53 149.03 100.02   C 149.39 100.06 149.59 100.45 149.42 100.76   C 144.71 109.53 137.47 114.92 127.71 116.95   C 127.33 117.03 126.93 116.95 126.60 116.74   C 125.93 116.31 125.37 115.62 124.91 114.65   C 124.76 114.35 124.83 113.98 125.08 113.76   Z" />
<path fill="#29166f" d="   M 141.00 180.18   C 141.95 179.30 143.43 179.05 145.42 179.44   C 151.11 180.55 156.87 182.44 162.70 185.13   C 165.13 186.25 167.30 187.76 169.22 189.65   C 169.71 190.14 169.58 190.96 168.96 191.28   C 164.85 193.39 160.63 194.10 156.30 193.42   C 154.19 193.09 151.72 192.43 148.89 191.42   C 143.88 189.63 141.11 186.27 140.57 181.32   C 140.53 180.89 140.69 180.47 141.00 180.18   Z" />
<path fill="#29166f" d="   M 169.7574 193.9585   C 169.96 193.39 173.10 194.00 176.7692 195.3244   C 180.44 196.65 183.25 198.18 183.0426 198.7415   C 182.84 199.31 179.70 198.70 176.0308 197.3756   C 172.36 196.05 169.55 194.52 169.7574 193.9585   Z" />
<path fill="#29166f" d="   M 169.6413 200.6812   C 169.92 199.85 170.97 199.45 171.9871 199.7930   C 173.00 200.13 173.60 201.09 173.3187 201.9188   C 173.04 202.75 171.99 203.15 170.9729 202.8070   C 169.96 202.47 169.36 201.51 169.6413 200.6812   Z" />
<path fill="#0193de" d="   M 167.18 202.40   L 161.88 203.37   C 160.94 203.55 159.97 203.25 159.29 202.57   L 157.99 201.28   C 157.50 200.78 157.82 199.93 158.52 199.88   C 161.86 199.61 164.79 200.15 167.32 201.49   C 167.73 201.71 167.63 202.32 167.18 202.40   Z" />
<path fill="#73635c" d="   M 153.68 200.98   L 150.25 200.03   C 151.62 200.01 152.77 200.33 153.68 200.98   Z" />
<path fill="#73635c" d="   M 174.50 212.19   L 173.38 206.09   C 173.29 205.60 173.45 205.10 173.79 204.75   C 176.26 202.20 179.06 200.96 182.19 201.04   C 183.06 201.06 183.76 201.75 183.82 202.62   C 184.00 205.56 183.09 208.50 181.10 211.45   C 180.88 211.77 180.60 212.04 180.28 212.25   C 179.62 212.67 177.97 212.88 175.34 212.88   C 174.93 212.89 174.58 212.59 174.50 212.19   Z" />
<path fill="#73635c" d="   M 167.84 204.66   C 168.24 204.64 168.58 204.94 168.60 205.34   L 168.82 209.33   C 168.98 212.11 167.26 214.47 164.98 214.59   L 164.62 214.61   C 162.35 214.74 160.37 212.59 160.22 209.81   L 159.99 205.82   C 159.97 205.42 160.28 205.08 160.67 205.06   L 167.84 204.66   Z" />
<path fill="#29166f" d="   M 170.69 211.21   L 170.33 212.06   C 170.06 211.81 170.04 211.55 170.27 211.27   C 170.40 211.10 170.54 211.08 170.69 211.21   Z" />
<path fill="#29166f" d="   M 171.11 213.56   L 171.31 211.28   C 171.68 211.21 171.88 211.37 171.91 211.74   C 171.98 212.68 171.72 213.29 171.11 213.56   Z" />
<path fill="#73635c" d="   M 179.18 215.89   L 170.83 251.60   C 170.79 251.76 170.65 251.87 170.48 251.87   L 163.30 251.87   C 163.05 251.87 162.88 251.62 162.96 251.39   C 167.37 239.44 171.75 227.65 173.38 215.56   C 173.43 215.16 173.77 214.86 174.18 214.86   L 178.36 214.86   C 178.90 214.86 179.30 215.36 179.18 215.89   Z" />
<path fill="#73635c" d="   M 168.79 215.72   L 168.34 217.47   C 168.17 216.80 168.32 216.22 168.79 215.72   Z" />
<path fill="#73635c" d="   M 150.06 246.79   C 149.42 246.64 149.10 245.93 149.40 245.35   C 153.18 238.24 155.94 231.61 157.69 225.47   C 158.93 221.09 159.72 218.37 160.06 217.32   C 160.32 216.53 161.05 216.00 161.88 216.00   L 164.93 216.00   C 165.60 216.00 166.10 216.62 165.96 217.27   C 165.27 220.46 164.77 222.37 164.47 222.98   C 161.61 228.79 159.84 233.01 159.15 235.64   C 158.10 239.65 156.99 243.29 155.81 246.56   C 155.51 247.39 154.64 247.86 153.78 247.66   L 150.06 246.79   Z" />
<path fill="#73635c" d="   M 134.77 265.27   L 126.07 266.87   C 125.73 266.93 125.39 266.94 125.06 266.89   C 116.59 265.80 108.16 266.11 99.79 267.82   C 99.46 267.89 99.15 268.00 98.84 268.13   C 96.09 269.38 93.87 271.45 92.18 274.34   C 91.86 274.89 91.13 275.05 90.60 274.69   C 89.66 274.04 88.69 273.28 87.69 272.39   C 85.51 270.45 86.14 266.59 87.95 264.68   C 89.93 262.60 94.33 262.29 98.35 261.55   C 99.21 261.40 100.09 261.39 100.95 261.53   C 107.18 262.57 113.63 261.45 119.81 262.00   C 124.47 262.41 129.70 262.16 135.50 261.23   C 140.61 260.42 145.40 253.38 147.76 248.87   C 148.04 248.33 148.66 248.04 149.26 248.18   L 153.75 249.23   C 154.12 249.32 154.36 249.67 154.31 250.05   C 153.62 255.00 153.64 259.94 154.36 264.86   C 154.44 265.42 154.00 265.91 153.43 265.89   C 149.59 265.71 146.75 266.63 142.82 268.52   C 139.95 269.89 138.17 270.55 137.48 270.49   C 134.89 270.26 131.81 270.48 128.23 271.15   C 121.04 272.49 117.13 272.87 110.77 272.86   C 108.69 272.85 106.55 273.63 104.36 275.18   C 104.17 275.31 104.01 275.46 103.87 275.64   L 100.76 279.70   C 100.37 280.21 99.71 280.44 99.09 280.28   C 97.60 279.91 96.25 279.09 95.02 277.81   C 94.19 276.95 93.96 275.66 94.46 274.56   C 96.07 271.03 99.03 269.50 103.08 268.97   C 110.73 267.99 117.49 267.72 123.38 268.16   C 127.99 268.50 131.93 267.49 134.85 265.46   C 134.94 265.40 134.88 265.25 134.77 265.27   Z" />
<path fill="#73635c" d="   M 156.87 251.49   L 156.07 255.03   C 155.94 253.69 156.21 252.51 156.87 251.49   Z" />
<path fill="#73635c" d="   M 143.47 276.79   L 130.74 279.12   C 130.48 279.17 130.22 279.23 129.97 279.31   C 127.95 280.07 123.73 281.58 120.42 281.59   C 115.70 281.60 111.51 282.31 106.68 285.07   C 105.53 285.73 104.10 284.89 104.10 283.57   L 104.10 280.19   C 104.10 278.50 104.97 276.94 106.40 276.04   C 108.30 274.87 109.84 274.26 111.02 274.21   C 117.41 273.98 121.50 273.69 123.29 273.34   C 131.97 271.62 138.67 270.91 143.38 271.21   C 146.29 271.40 148.70 271.06 150.61 270.20   C 156.55 267.53 159.36 260.45 161.25 254.49   C 161.44 253.90 161.99 253.50 162.60 253.50   L 168.95 253.50   C 169.46 253.50 169.83 253.99 169.70 254.48   C 168.45 259.15 168.38 265.86 172.72 269.02   C 173.05 269.27 174.32 269.53 176.53 269.82   C 181.29 270.44 185.33 268.12 190.36 270.35   C 190.66 270.49 190.94 270.67 191.18 270.89   C 193.61 273.15 193.98 277.82 191.64 280.07   C 188.56 283.03 185.78 282.38 182.00 281.82   C 181.26 281.71 180.52 281.52 179.80 281.26   C 176.98 280.25 173.43 278.82 169.16 276.97   C 166.74 275.92 163.75 275.91 160.20 276.92   C 158.89 277.29 155.74 279.49 150.74 283.50   C 148.05 285.66 140.61 287.62 137.75 288.50   C 128.78 291.26 124.02 299.79 112.53 296.33   C 107.99 294.96 104.57 287.29 110.76 285.50   C 112.30 285.05 113.86 284.78 115.44 284.67   C 121.64 284.27 127.15 283.71 131.98 283.00   C 135.51 282.49 139.39 280.54 143.64 277.16   C 143.81 277.02 143.69 276.75 143.47 276.79   Z" />
<path fill="#29166f" d="   M 155.91 255.45   C 155.86 255.76 155.86 256.02 155.92 256.25   C 155.97 256.42 156.08 256.51 156.25 256.51   C 156.38 256.52 156.53 256.50 156.72 256.46   C 156.58 256.89 156.26 257.01 155.76 256.84   C 155.58 256.78 155.44 256.64 155.37 256.46   C 155.21 255.99 155.39 255.66 155.91 255.45   Z" />
<path fill="#29166f" d="   M 129.36 260.07   C 126.33 260.86 123.32 260.82 120.33 259.95   L 129.36 260.07   Z" />
<path fill="#ffffff" fill-opacity="0.988" d="   M 150.7800 267.8175   C 150.86 268.10 150.70 268.40 150.4098 268.4854   L 145.8534 269.7920   C 145.57 269.87 145.27 269.71 145.1855 269.4217   L 145.1800 269.4025   C 145.10 269.12 145.26 268.82 145.5502 268.7346   L 150.1066 267.4280   C 150.39 267.35 150.69 267.51 150.7745 267.7983   L 150.7800 267.8175   Z" />
</svg>