<?xml version='1.0' encoding='utf-8'?>
<svg xmlns="http://www.w3.org/2000/svg" version="1.1" viewBox="0.00 26.44 296.87 262.16" width="300" height="264">
<path fill="#da151c" d="   M 293.60 34.85   C 292.31 35.73 290.90 36.98 289.35 38.60   C 231.58 99.00 197.19 135.20 186.20 147.20   C 180.29 153.64 173.93 158.97 165.00 159.28   C 150.49 159.77 120.49 160.93 75.00 162.78   C 45.39 163.97 21.34 164.83 2.85 165.35   C 2.63 165.36 2.57 165.50 2.68 165.78   C 2.65 165.74 2.63 165.70 2.60 165.66   C 2.69 165.08 2.21 164.78 1.15 164.77   C 0.95 164.77 0.83 164.55 0.94 164.38   C 19.10 137.16 37.42 111.33 55.90 86.89   C 68.88 69.72 81.93 53.44 95.06 38.03   C 98.40 34.11 102.34 31.39 106.88 29.86   C 109.80 28.87 114.25 28.44 120.24 28.55   C 147.17 29.04 164.92 29.44 173.50 29.74   C 188.06 30.25 198.18 30.53 203.86 30.58   C 216.94 30.69 223.84 30.80 224.56 30.91   C 224.99 30.97 231.89 31.09 245.25 31.26   C 253.86 31.37 270.27 31.83 294.49 32.64   C 294.73 32.64 294.87 32.91 294.74 33.12   L 293.60 34.85   Z" />
<path fill="#f1ce03" d="   M 293.60 34.85   C 266.75 74.47 239.87 114.05 212.96 153.58   C 208.39 160.29 205.69 165.13 204.85 168.09   C 203.35 173.40 203.16 178.76 204.28 184.17   C 204.77 186.55 206.25 189.80 208.71 193.91   C 226.38 223.48 244.50 253.58 263.06 284.19   C 263.28 284.56 263.32 284.99 263.17 285.48   C 234.71 256.07 206.53 226.46 188.45 207.14   C 183.08 201.39 179.73 197.46 175.12 193.36   C 172.86 191.36 170.15 189.99 166.99 189.26   C 163.14 188.37 158.48 187.54 153.01 186.78   C 93.70 178.54 57.69 173.67 44.96 172.16   C 38.49 171.39 32.02 170.52 25.55 169.54   C 22.97 169.15 15.61 168.10 3.47 166.40   C 3.26 166.37 3.10 166.30 2.98 166.21   C 2.83 166.09 2.73 165.95 2.68 165.78   C 2.57 165.50 2.63 165.36 2.85 165.35   C 21.34 164.83 45.39 163.97 75.00 162.78   C 120.49 160.93 150.49 159.77 165.00 159.28   C 173.93 158.97 180.29 153.64 186.20 147.20   C 197.19 135.20 231.58 99.00 289.35 38.60   C 290.90 36.98 292.31 35.73 293.60 34.85   Z" />
<path fill="#1e1f93" d="   M 2.60 165.66   C 2.63 165.70 2.65 165.74 2.68 165.78   C 2.73 165.95 2.83 166.09 2.98 166.21   C 3.10 166.30 3.26 166.37 3.47 166.40   C 15.61 168.10 22.97 169.15 25.55 169.54   C 32.02 170.52 38.49 171.39 44.96 172.16   C 57.69 173.67 93.70 178.54 153.01 186.78   C 158.48 187.54 163.14 188.37 166.99 189.26   C 170.15 189.99 172.86 191.36 175.12 193.36   C 179.73 197.46 183.08 201.39 188.45 207.14   C 206.53 226.46 234.71 256.07 263.17 285.48   C 263.36 285.82 263.40 286.09 263.30 286.30   C 263.21 286.50 262.96 286.60 262.57 286.59   C 247.22 286.36 233.11 286.07 220.25 285.72   C 191.00 284.91 171.48 284.45 161.68 284.32   C 131.48 283.92 104.07 282.93 72.03 282.34   C 68.16 282.27 65.53 281.91 64.14 281.28   C 61.69 280.15 59.42 278.71 57.32 276.94   C 57.05 276.71 56.81 276.44 56.62 276.14   C 56.39 275.77 55.53 274.47 54.05 272.23   C 51.38 268.16 47.42 261.58 42.17 252.49   C 38.65 246.39 35.05 239.62 31.36 232.18   C 21.11 211.45 10.87 189.92 0.65 167.59   C 0.28 166.76 0.31 166.22 0.75 165.96   C 1.14 165.73 1.75 165.63 2.60 165.66   Z" />
</svg>