<?xml version='1.0' encoding='utf-8'?>
<svg xmlns="http://www.w3.org/2000/svg" version="1.1" viewBox="0.00 16.79 301.85 262.28" width="300" height="260">
<path fill="#ed1a25" d="   M 299.13 46.09   C 294.77 46.01 290.16 46.27 285.31 46.88   C 280.55 47.48 276.07 49.48 271.88 52.88   C 262.46 60.51 252.69 68.65 242.58 77.31   C 242.29 77.56 242.24 78.00 242.47 78.31   C 288.04 139.62 265.37 227.51 197.21 260.20   C 184.45 266.32 168.41 270.59 153.34 270.64   C 141.94 270.68 134.96 271.06 126.19 269.33   C 102.62 264.69 82.65 254.56 66.28 238.93   C 49.99 223.38 38.72 204.71 32.47 182.94   C 32.37 182.59 32.04 182.34 31.67 182.34   L 1.00 182.34   C 0.22 182.34 -0.18 181.39 0.38 180.84   C 3.51 177.74 7.01 175.51 10.90 174.14   C 16.49 172.17 22.49 170.62 28.88 169.47   C 29.35 169.39 29.66 168.95 29.59 168.48   C 23.09 126.08 39.92 82.91 73.23 56.18   C 99.41 35.18 134.04 25.65 167.33 31.63   C 187.60 35.27 205.82 43.56 222.00 56.51   C 222.59 56.98 223.41 57.03 224.05 56.63   C 233.34 50.90 242.48 45.52 251.46 40.47   C 259.01 36.23 265.03 33.50 272.89 33.43   C 283.45 33.34 292.33 37.26 299.54 45.20   C 299.85 45.55 299.60 46.10 299.13 46.09   Z   M 35.14 167.14   L 217.25 60.12   C 217.43 60.01 217.44 59.75 217.27 59.62   C 207.85 52.93 198.02 47.55 187.77 43.47   C 125.70 18.79 55.42 55.36 38.15 119.41   C 33.97 134.91 32.84 150.76 34.75 166.95   C 34.77 167.13 34.98 167.23 35.14 167.14   Z   M 259.88 163.94   C 259.35 164.09 258.97 164.26 258.72 164.47   C 250.06 171.80 244.64 176.30 242.47 177.96   C 238.35 181.10 233.77 182.66 228.74 182.63   C 206.07 182.50 180.92 182.43 153.31 182.42   C 146.07 182.41 141.51 183.30 138.57 176.70   C 138.45 176.44 138.48 176.13 138.64 175.89   C 141.97 171.09 145.06 167.71 150.01 163.57   C 181.74 137.02 209.28 114.03 232.61 94.60   C 234.51 93.01 237.75 90.83 242.32 88.06   C 242.45 87.99 242.48 87.82 242.39 87.70   L 237.76 81.61   C 237.70 81.52 237.56 81.50 237.47 81.58   C 178.21 131.89 143.87 161.05 134.45 169.06   C 132.63 170.61 131.57 171.78 131.26 172.57   C 130.10 175.61 132.37 179.56 134.14 181.94   C 134.32 182.19 134.15 182.54 133.85 182.54   L 38.82 182.54   C 38.51 182.54 38.28 182.84 38.37 183.13   C 56.21 241.61 114.79 277.07 175.23 261.80   C 221.48 250.12 253.46 210.39 260.20 164.22   C 260.22 164.04 260.05 163.89 259.88 163.94   Z   M 183.86 163.91   C 210.12 155.63 234.59 147.78 259.98 142.01   C 260.24 141.95 260.42 141.70 260.39 141.44   C 258.79 127.63 256.48 113.02 249.05 101.25   C 248.83 100.90 248.29 101.08 248.31 101.49   C 248.62 106.70 248.80 111.19 248.87 114.98   C 249.03 124.53 241.94 131.66 233.80 136.05   C 220.37 143.29 206.79 150.46 193.05 157.57   C 190.16 159.06 187.01 161.00 183.61 163.39   C 183.49 163.47 183.45 163.63 183.51 163.76   C 183.58 163.89 183.72 163.95 183.86 163.91   Z" />
<path fill="#ffffff" d="   M 35.14 167.14   C 34.98 167.23 34.77 167.13 34.75 166.95   C 32.84 150.76 33.97 134.91 38.15 119.41   C 55.42 55.36 125.70 18.79 187.77 43.47   C 198.02 47.55 207.85 52.93 217.27 59.62   C 217.44 59.75 217.43 60.01 217.25 60.12   L 35.14 167.14   Z" />
<path fill="#ffffff" d="   M 259.88 163.94   C 260.05 163.89 260.22 164.04 260.20 164.22   C 253.46 210.39 221.48 250.12 175.23 261.80   C 114.79 277.07 56.21 241.61 38.37 183.13   C 38.28 182.84 38.51 182.54 38.82 182.54   L 133.85 182.54   C 134.15 182.54 134.32 182.19 134.14 181.94   C 132.37 179.56 130.10 175.61 131.26 172.57   C 131.57 171.78 132.63 170.61 134.45 169.06   C 143.87 161.05 178.21 131.89 237.47 81.58   C 237.56 81.50 237.70 81.52 237.76 81.61   L 242.39 87.70   C 242.48 87.82 242.45 87.99 242.32 88.06   C 237.75 90.83 234.51 93.01 232.61 94.60   C 209.28 114.03 181.74 137.02 150.01 163.57   C 145.06 167.71 141.97 171.09 138.64 175.89   C 138.48 176.13 138.45 176.44 138.57 176.70   C 141.51 183.30 146.07 182.41 153.31 182.42   C 180.92 182.43 206.07 182.50 228.74 182.63   C 233.77 182.66 238.35 181.10 242.47 177.96   C 244.64 176.30 250.06 171.80 258.72 164.47   C 258.97 164.26 259.35 164.09 259.88 163.94   Z" />
<path fill="#ffffff" d="   M 183.86 163.91   C 183.72 163.95 183.58 163.89 183.51 163.76   C 183.45 163.63 183.49 163.47 183.61 163.39   C 187.01 161.00 190.16 159.06 193.05 157.57   C 206.79 150.46 220.37 143.29 233.80 136.05   C 241.94 131.66 249.03 124.53 248.87 114.98   C 248.80 111.19 248.62 106.70 248.31 101.49   C 248.29 101.08 248.83 100.90 249.05 101.25   C 256.48 113.02 258.79 127.63 260.39 141.44   C 260.42 141.70 260.24 141.95 259.98 142.01   C 234.59 147.78 210.12 155.63 183.86 163.91   Z" />
</svg>