<svg xmlns="http://www.w3.org/2000/svg" width="50" height="50" viewBox="0 0 338 338"><path fill="#0f4c3a" d="m328.37 108.9-39.99.04c-.18 0-.34-.1-.43-.26-20.01-37.99-56.49-64.41-99.02-70.43a.398.398 0 0 0-.46.39l.01 297.99-36.41.19-.28-.53a.7.7 0 0 1-.08-.32V38.7c0-.28-.25-.49-.53-.45-42.49 6.19-79.03 32.46-98.92 70.48-.09.16-.26.26-.44.26l-40.04-.04q24.975-61.875 83.19-91.26c14.61-7.38 31.09-12.57 49.45-15.58Q153 .7 162.63.94c10.81.26 21.05-.6 30.78.81 33.39 4.87 63.76 18.72 88.97 41.13 20.5 18.22 35.83 40.23 45.99 66.02"/><path fill="#fff" d="M152.07 336.82c-.07.06-.16.13-.28.22a.87.87 0 0 1-.64.17c-4.85-.54-9.69-1.07-14.52-1.58-1.21-.13-2.43-.64-3.66-1.51l2.42.04c.34.01.62-.27.62-.61V133.38c0-.32.26-.58.58-.59l8.37-.06a4.07 4.07 0 0 0 4.03-4.38l-.01-.18a4.567 4.567 0 0 0-4.55-4.21l-53.63.03a4.504 4.504 0 0 0-4.48 4.17v.03c-.17 2.48 1.79 4.59 4.28 4.58l7.91-.03c.41 0 .74.33.74.73v146.39c0 .3-.33.48-.58.32-17.49-11.52-31.19-25.38-41.12-41.58-19.79-32.33-25.02-67.27-15.67-104.82.12-.48.54-.81 1.03-.81h4.71c2.44 0 4.36-2.08 4.17-4.52l-.03-.48a4.31 4.31 0 0 0-4.29-3.93l-40.85-.01c1.69-4.39 3.39-8.74 5.12-13.04.43-1.07.45-1.75.04-2.04l40.04.04c.18 0 .35-.1.44-.26 19.89-38.02 56.43-64.29 98.92-70.48.28-.04.53.17.53.45v297.27c0 .11.03.22.08.32zM328.37 108.9c.37.83.91 2.77 1.64 5.81.51 2.12 1.76 5.21 3.74 9.27l-38.04.02c-.35 0-.6.34-.48.67 4.38 12.34 6.82 25.04 7.33 38.11.01.27.24.49.51.49l33.91-.04v15.03l-34.12.04c-.28 0-.51.21-.53.49-1.02 12.26-3.55 23.9-7.6 34.92-.32.87-.48 1.79-.48 2.72l.1 67.07-8.92 9.15q-.165.165-.3.36a20.96 20.96 0 0 1-7.92 6.86l1.62-1.57c.39-.38.61-.89.61-1.43v-57.36c0-2.53-2.06-4.59-4.6-4.59h-.37a4.22 4.22 0 0 0-4.22 4.22v14.97c0 .73-.27 1.44-.75 1.99-8.14 9.18-17.31 17.09-27.51 23.72-.2.13-.47-.02-.47-.26V166.55c0-.22.2-.39.41-.35 9.64 1.63 17.35 6.29 23.12 13.98 1.51 2.01 3.13 4.21 4.86 6.58.21.29.32.63.32.97v8.67c0 2.42 2.04 4.34 4.45 4.18l.25-.02c2.49-.24 4.4-2.34 4.39-4.84q-.12-34.035-.03-60.48c.01-2.71-.2-4.48-.65-5.3-2.09-3.89-8.5-2.54-8.35 2.42.01.18-.02 1.27-.08 3.27-.01.18-.22.27-.35.15-5.38-4.88-11.64-8.43-18.77-10.64-13.62-4.23-30.07-5.36-42.48 1.64q-2.445 1.38-3.9 3.81c-.13.23-.2.49-.2.75.23 49.57.3 103.13.21 160.66-.01 3.06-.36 5.75-.35 8.34.07 13.06.13 23.7.16 31.91 0 .27-.1.69-.29 1.26-2.61.91-4.45 1.38-5.51 1.41-3.46.09-6.88.66-10.25 1.71l-.01-297.99c0-.24.22-.43.46-.39 42.53 6.02 79.01 32.44 99.02 70.43.09.16.25.26.43.26z"/><path fill="#0f4c3a" d="M277.21 299.87c-3.61 2.65-7.26 5.27-10.97 7.85q-27.93 19.44-60.75 26.43c-.45.09-.87-.12-1.25-.64.19-.57.29-.99.29-1.26-.03-8.21-.09-18.85-.16-31.91-.01-2.59.34-5.28.35-8.34.09-57.53.02-111.09-.21-160.66 0-.26.07-.52.2-.75q1.455-2.43 3.9-3.81c12.41-7 28.86-5.87 42.48-1.64 7.13 2.21 13.39 5.76 18.77 10.64.13.12.34.03.35-.15.06-2 .09-3.09.08-3.27-.15-4.96 6.26-6.31 8.35-2.42.45.82.66 2.59.65 5.3q-.09 26.445.03 60.48c.01 2.5-1.9 4.6-4.39 4.84l-.25.02c-2.41.16-4.45-1.76-4.45-4.18v-8.67c0-.34-.11-.68-.32-.97a603 603 0 0 0-4.86-6.58c-5.77-7.69-13.48-12.35-23.12-13.98a.353.353 0 0 0-.41.35v113.01c0 .24.27.39.47.26 10.2-6.63 19.37-14.54 27.51-23.72.48-.55.75-1.26.75-1.99v-14.97a4.22 4.22 0 0 1 4.22-4.22h.37c2.54 0 4.6 2.06 4.6 4.59v57.36c0 .54-.22 1.05-.61 1.43zM6.62 124.03l40.85.01c2.23 0 4.1 1.71 4.29 3.93l.03.48a4.187 4.187 0 0 1-4.17 4.52h-4.71c-.49 0-.91.33-1.03.81-9.35 37.55-4.12 72.49 15.67 104.82 9.93 16.2 23.63 30.06 41.12 41.58.25.16.58-.02.58-.32V133.47c0-.4-.33-.73-.74-.73l-7.91.03c-2.49.01-4.45-2.1-4.28-4.58v-.03a4.504 4.504 0 0 1 4.48-4.17l53.63-.03c2.38 0 4.36 1.83 4.55 4.21l.01.18a4.07 4.07 0 0 1-4.03 4.38l-8.37.06c-.32.01-.58.27-.58.59v200.17c0 .34-.28.62-.62.61l-2.42-.04c-.91-.43-1.91-.78-2.99-1.05C60.24 315.8 8.65 256.73 1.51 184.99c-.73-7.33-.44-14.77-.53-22.48q-.045-4.08.39-9c.87-10 2.62-19.83 5.25-29.48M333.75 123.98c2.13 8.57 3.21 14.24 3.22 17.02.05 7.25.05 14.66.01 22.23l-33.91.04c-.27 0-.5-.22-.51-.49-.51-13.07-2.95-25.77-7.33-38.11-.12-.33.13-.67.48-.67zM336.98 178.26c.01 5.55.03 11.13.04 16.74 0 3.08-.71 7.5-2.14 13.27-7.03 28.31-20.54 53.39-40.53 75.23l-.1-67.07c0-.93.16-1.85.48-2.72 4.05-11.02 6.58-22.66 7.6-34.92.02-.28.25-.49.53-.49z"/></svg>