<?xml version='1.0' encoding='utf-8'?>
<svg xmlns="http://www.w3.org/2000/svg" version="1.1" viewBox="0.00 0.00 300.73 302.00" width="50" height="50">
<path fill="#08356f" d="   M 150.03 1.74   C 166.74 1.71 186.57 2.33 204.90 4.36   C 205.52 4.43 205.92 5.05 205.73 5.64   L 193.09 44.50   C 192.87 45.19 192.21 45.64 191.49 45.59   C 177.09 44.69 165.23 43.91 150.10 43.93   C 134.98 43.96 123.12 44.77 108.72 45.73   C 108.00 45.77 107.34 45.32 107.12 44.64   L 94.35 5.82   C 94.16 5.22 94.56 4.60 95.17 4.54   C 113.50 2.45 133.33 1.76 150.03 1.74   Z   M 150.47 31.63   C 162.08 31.61 173.23 31.87 183.92 32.40   C 185.00 32.46 186.01 31.89 186.54 30.95   C 188.61 27.21 189.24 23.33 188.42 19.30   C 188.03 17.34 186.72 16.29 184.51 16.16   C 173.42 15.48 162.07 15.15 150.45 15.17   C 138.83 15.18 127.48 15.54 116.39 16.25   C 114.18 16.39 112.88 17.44 112.49 19.40   C 111.68 23.43 112.32 27.31 114.40 31.04   C 114.93 31.98 115.95 32.54 117.02 32.49   C 127.72 31.93 138.87 31.64 150.47 31.63   Z" />
<path fill="#ba202a" d="   M 149.89 299.28   C 144.44 299.28 138.98 299.33 133.50 299.43   C 131.48 299.46 129.67 299.37 128.06 299.14   C 127.38 299.05 126.80 298.59 126.56 297.94   C 123.45 289.66 120.83 282.27 118.72 275.78   C 99.65 217.14 78.70 156.44 58.50 96.32   C 47.52 63.65 40.75 43.33 38.18 35.37   C 36.21 29.30 36.89 23.91 40.20 19.21   C 45.25 12.05 53.22 9.74 61.26 8.48   C 66.66 7.63 73.03 6.64 80.37 5.50   C 82.24 5.21 83.39 5.87 83.83 7.48   C 84.27 9.05 90.11 27.13 101.34 61.71   C 117.23 110.63 133.10 159.29 148.96 207.70   C 149.30 208.72 149.60 209.23 149.88 209.23   C 150.16 209.23 150.47 208.72 150.80 207.70   C 166.64 159.29 182.50 110.62 198.37 61.69   C 209.60 27.11 215.43 9.03 215.87 7.46   C 216.31 5.85 217.46 5.19 219.33 5.48   C 226.67 6.62 233.04 7.61 238.44 8.45   C 246.48 9.71 254.45 12.02 259.50 19.18   C 262.82 23.87 263.49 29.26 261.53 35.34   C 258.96 43.30 252.20 63.61 241.23 96.29   C 221.04 156.42 200.11 217.12 181.06 275.77   C 178.95 282.26 176.34 289.65 173.23 297.93   C 172.99 298.58 172.41 299.04 171.73 299.13   C 170.12 299.36 168.31 299.46 166.29 299.42   C 160.81 299.33 155.34 299.28 149.89 299.28   Z" />
<path fill="#fbc311" d="   M 150.45 15.17   C 162.07 15.15 173.42 15.48 184.51 16.16   C 186.72 16.29 188.03 17.34 188.42 19.30   C 189.24 23.33 188.61 27.21 186.54 30.95   C 186.01 31.89 185.00 32.46 183.92 32.40   C 173.23 31.87 162.08 31.61 150.47 31.63   C 138.87 31.64 127.72 31.93 117.02 32.49   C 115.95 32.54 114.93 31.98 114.40 31.04   C 112.32 27.31 111.68 23.43 112.49 19.40   C 112.88 17.44 114.18 16.39 116.39 16.25   C 127.48 15.54 138.83 15.18 150.45 15.17   Z" />
<path fill="#08356f" d="   M 249.31 298.49   C 248.77 298.88 248.04 299.08 247.13 299.11   C 239.37 299.34 231.61 299.39 223.85 299.26   C 223.63 299.25 223.41 299.22 223.20 299.16   C 221.96 298.78 221.23 298.80 221.02 299.21   C 218.07 296.22 216.52 292.57 216.39 288.24   C 216.24 283.65 216.21 279.15 216.29 274.72   C 216.31 273.97 215.70 273.35 214.95 273.35   L 194.26 273.35   C 193.79 273.35 193.46 272.89 193.61 272.44   C 202.16 247.67 210.57 222.48 218.84 196.86   C 220.09 193.01 221.40 189.83 223.23 185.05   C 223.58 184.15 224.35 183.48 225.29 183.26   C 234.38 181.17 242.41 179.12 249.36 177.12   C 253.01 176.07 255.59 173.91 257.08 170.62   C 257.78 169.08 258.08 165.63 257.97 160.28   C 257.50 137.15 256.52 113.84 255.03 90.36   C 255.01 89.98 255.06 89.59 255.18 89.23   L 263.93 62.32   C 264.05 61.96 264.56 61.94 264.69 62.30   C 265.40 64.19 266.50 65.38 267.99 65.87   C 271.84 67.12 279.22 68.72 283.48 72.21   C 288.61 76.42 291.69 81.67 292.72 87.96   C 292.84 88.67 293.24 89.30 293.83 89.72   C 295.12 90.62 295.91 91.22 296.20 91.52   C 298.11 93.50 298.45 97.64 298.52 100.25   C 298.68 106.80 298.73 114.97 298.68 124.75   C 298.66 128.93 298.33 132.23 297.70 134.65   C 296.07 140.91 291.21 140.46 285.62 140.38   C 280.19 140.29 277.50 137.28 277.55 131.34   C 277.64 119.66 277.65 107.61 277.60 95.19   C 277.59 93.44 278.19 91.94 279.39 90.71   C 279.53 90.57 279.71 90.46 279.91 90.39   L 282.51 89.51   C 283.32 89.24 283.72 88.32 283.36 87.54   C 280.49 81.22 273.59 79.49 267.21 77.58   C 266.79 77.45 266.38 77.79 266.41 78.22   C 269.21 116.62 271.03 153.90 270.77 194.74   C 270.68 209.55 270.65 226.72 270.68 246.25   C 270.68 248.64 270.62 250.40 270.50 251.53   C 269.41 261.49 264.17 268.21 254.77 271.69   C 254.04 271.97 253.55 272.67 253.55 273.45   C 253.57 278.16 253.48 283.00 253.29 287.99   C 253.18 290.84 252.67 293.26 251.78 295.25   C 251.31 296.30 250.49 297.38 249.31 298.49   Z   M 218.10 235.57   C 218.83 235.99 219.96 236.07 221.51 235.80   C 230.04 234.33 236.96 233.09 242.28 232.06   C 246.07 231.33 248.90 230.46 250.75 229.46   C 258.09 225.51 258.79 213.29 258.29 205.75   C 258.03 201.93 256.83 200.50 253.04 202.08   C 244.65 205.58 237.62 208.96 231.95 212.23   C 228.46 214.24 226.12 215.92 224.94 217.27   C 220.82 221.96 218.33 227.64 217.48 234.30   C 217.41 234.81 217.66 235.31 218.10 235.57   Z" />
<path fill="#08356f" d="   M 80.17 298.51   L 59.42 299.51   C 53.27 299.68 48.06 298.56 47.55 292.15   C 47.10 286.40 46.94 280.27 47.08 273.75   C 47.10 272.72 46.41 271.82 45.42 271.57   C 38.06 269.72 31.92 261.36 30.50 254.25   C 29.69 250.14 29.90 245.54 29.87 241.22   C 29.58 201.60 29.66 173.53 30.09 157.00   C 30.61 136.99 31.83 113.00 33.74 85.02   C 33.81 84.13 33.90 82.05 34.03 78.76   C 34.04 78.35 33.65 78.04 33.26 78.16   C 26.98 80.03 20.72 81.11 17.46 86.81   C 16.89 87.81 17.27 89.09 18.29 89.61   C 20.64 90.81 22.72 91.71 22.82 95.00   C 23.12 105.11 23.17 117.85 22.97 133.23   C 22.87 140.72 16.99 140.59 10.76 140.40   C 2.99 140.17 1.80 134.63 1.78 127.51   C 1.75 111.36 1.84 100.86 2.07 96.01   C 2.28 91.75 4.72 91.48 7.22 89.22   C 7.47 88.99 7.63 88.69 7.67 88.36   C 8.90 78.78 14.00 72.40 22.97 69.21   C 26.18 68.07 29.41 66.92 32.66 65.75   C 34.22 65.18 34.75 64.29 35.84 63.34   C 36.11 63.11 36.52 63.22 36.63 63.56   L 45.45 89.68   C 45.51 89.87 45.54 90.06 45.53 90.26   C 43.80 119.10 42.80 144.02 42.53 165.01   C 42.42 173.57 48.12 176.41 56.11 178.47   C 62.92 180.22 69.40 181.96 75.56 183.70   C 76.35 183.92 76.98 184.52 77.24 185.30   L 106.75 272.73   C 106.86 273.05 106.62 273.38 106.28 273.38   L 85.36 273.38   C 84.71 273.38 84.18 273.90 84.16 274.55   C 84.01 278.42 83.86 281.98 83.71 285.25   C 83.60 287.61 82.42 292.03 80.17 298.51   Z   M 82.54 235.55   C 82.98 235.28 83.22 234.79 83.16 234.28   C 82.31 227.61 79.83 221.93 75.72 217.23   C 74.54 215.87 72.21 214.19 68.71 212.17   C 63.04 208.90 56.02 205.50 47.63 201.99   C 43.84 200.40 42.64 201.83 42.37 205.65   C 41.86 213.19 42.54 225.42 49.88 229.38   C 51.73 230.39 54.56 231.26 58.35 232.00   C 63.67 233.03 70.60 234.29 79.12 235.77   C 80.67 236.04 81.81 235.96 82.54 235.55   Z" />
<path fill="#fbc311" d="   M 218.10 235.57   C 217.66 235.31 217.41 234.81 217.48 234.30   C 218.33 227.64 220.82 221.96 224.94 217.27   C 226.12 215.92 228.46 214.24 231.95 212.23   C 237.62 208.96 244.65 205.58 253.04 202.08   C 256.83 200.50 258.03 201.93 258.29 205.75   C 258.79 213.29 258.09 225.51 250.75 229.46   C 248.90 230.46 246.07 231.33 242.28 232.06   C 236.96 233.09 230.04 234.33 221.51 235.80   C 219.96 236.07 218.83 235.99 218.10 235.57   Z" />
<path fill="#fbc311" d="   M 82.54 235.55   C 81.81 235.96 80.67 236.04 79.12 235.77   C 70.60 234.29 63.67 233.03 58.35 232.00   C 54.56 231.26 51.73 230.39 49.88 229.38   C 42.54 225.42 41.86 213.19 42.37 205.65   C 42.64 201.83 43.84 200.40 47.63 201.99   C 56.02 205.50 63.04 208.90 68.71 212.17   C 72.21 214.19 74.54 215.87 75.72 217.23   C 79.83 221.93 82.31 227.61 83.16 234.28   C 83.22 234.79 82.98 235.28 82.54 235.55   Z" />
<path fill="#fbc311" d="   M 80.17 298.51   C 80.48 298.70 80.63 298.91 80.62 299.14   C 80.61 299.32 80.45 299.49 80.16 299.65   C 79.95 299.76 79.73 299.88 79.51 300.00   L 60.88 300.00   L 59.42 299.51   L 80.17 298.51   Z" />
<path fill="#fbc311" d="   M 249.31 298.49   C 249.74 298.84 249.80 299.11 249.49 299.28   C 249.07 299.51 248.67 299.75 248.28 300.00   L 222.57 300.00   C 221.86 299.93 221.35 299.66 221.02 299.21   C 221.23 298.80 221.96 298.78 223.20 299.16   C 223.41 299.22 223.63 299.25 223.85 299.26   C 231.61 299.39 239.37 299.34 247.13 299.11   C 248.04 299.08 248.77 298.88 249.31 298.49   Z" />
</svg>